roundedultracondensed-black-italic.ufo
<glyph name="exclam" format="2">
  <advance height="1920" width="400"/>
  <unicode hex="0021"/>
  <outline>
    <contour>
      <point x="103.0" y="-17.0" type="curve" smooth="yes"/>
      <point x="87.0" y="-17.0" type="line" smooth="yes"/>
      <point x="3.0" y="-17.0"/>
      <point x="-63.0" y="24.0"/>
      <point x="-37.0" y="138.0" type="curve" smooth="yes"/>
      <point x="-18.0" y="222.0" type="line" smooth="yes"/>
      <point x="8.0" y="336.0"/>
      <point x="54.0" y="377.0"/>
      <point x="138.0" y="377.0" type="curve" smooth="yes"/>
      <point x="154.0" y="377.0" type="line" smooth="yes"/>
      <point x="238.0" y="377.0"/>
      <point x="304.0" y="336.0"/>
      <point x="278.0" y="222.0" type="curve" smooth="yes"/>
      <point x="259.0" y="138.0" type="line" smooth="yes"/>
      <point x="233.0" y="24.0"/>
      <point x="187.0" y="-17.0"/>
    </contour>
    <contour>
      <point x="175.0" y="1150.0" type="curve" smooth="yes"/>
      <point x="206.0" y="1280.0" type="line" smooth="yes"/>
      <point x="231.0" y="1387.0"/>
      <point x="306.0" y="1465.0"/>
      <point x="413.0" y="1465.0" type="curve" smooth="yes"/>
      <point x="423.0" y="1465.0" type="line" smooth="yes"/>
      <point x="530.0" y="1465.0"/>
      <point x="571.0" y="1387.0"/>
      <point x="546.0" y="1280.0" type="curve" smooth="yes"/>
      <point x="515.0" y="1150.0" type="line" smooth="yes"/>
      <point x="490.0" y="1043.0"/>
      <point x="470.0" y="976.0"/>
      <point x="379.0" y="780.0" type="curve" smooth="yes"/>
      <point x="323.0" y="660.0" type="line" smooth="yes"/>
      <point x="271.0" y="549.0"/>
      <point x="234.0" y="485.0"/>
      <point x="197.0" y="485.0" type="curve" smooth="yes"/>
      <point x="187.0" y="485.0" type="line" smooth="yes"/>
      <point x="150.0" y="485.0"/>
      <point x="141.0" y="549.0"/>
      <point x="141.0" y="660.0" type="curve" smooth="yes"/>
      <point x="141.0" y="780.0" type="line" smooth="yes"/>
      <point x="141.0" y="976.0"/>
      <point x="150.0" y="1043.0"/>
    </contour>
  </outline>
</glyph>
<glyph name="numbersign" format="2">
  <advance height="1920" width="805"/>
  <unicode hex="0023"/>
  <outline>
    <contour>
      <point x="95.0" y="545.0" type="curve" smooth="yes"/>
      <point x="650.0" y="545.0" type="line" smooth="yes"/>
      <point x="714.0" y="545.0"/>
      <point x="770.0" y="524.0"/>
      <point x="770.0" y="470.0" type="curve" smooth="yes"/>
      <point x="770.0" y="465.0" type="line" smooth="yes"/>
      <point x="770.0" y="411.0"/>
      <point x="714.0" y="390.0"/>
      <point x="650.0" y="390.0" type="curve" smooth="yes"/>
      <point x="95.0" y="390.0" type="line" smooth="yes"/>
      <point x="1.0" y="390.0"/>
      <point x="-25.0" y="411.0"/>
      <point x="-25.0" y="465.0" type="curve" smooth="yes"/>
      <point x="-25.0" y="470.0" type="line" smooth="yes"/>
      <point x="-25.0" y="524.0"/>
      <point x="1.0" y="545.0"/>
    </contour>
    <contour>
      <point x="254.0" y="1050.0" type="curve" smooth="yes"/>
      <point x="809.0" y="1050.0" type="line" smooth="yes"/>
      <point x="903.0" y="1050.0"/>
      <point x="929.0" y="1029.0"/>
      <point x="929.0" y="975.0" type="curve" smooth="yes"/>
      <point x="929.0" y="970.0" type="line" smooth="yes"/>
      <point x="929.0" y="916.0"/>
      <point x="903.0" y="895.0"/>
      <point x="809.0" y="895.0" type="curve" smooth="yes"/>
      <point x="254.0" y="895.0" type="line" smooth="yes"/>
      <point x="160.0" y="895.0"/>
      <point x="134.0" y="916.0"/>
      <point x="134.0" y="970.0" type="curve" smooth="yes"/>
      <point x="134.0" y="975.0" type="line" smooth="yes"/>
      <point x="134.0" y="1029.0"/>
      <point x="160.0" y="1050.0"/>
    </contour>
    <contour>
      <point x="827.0" y="1415.0" type="curve" smooth="yes"/>
      <point x="832.0" y="1415.0" type="line" smooth="yes"/>
      <point x="917.0" y="1415.0"/>
      <point x="930.0" y="1377.0"/>
      <point x="884.0" y="1245.0" type="curve" smooth="yes"/>
      <point x="505.0" y="155.0" type="line" smooth="yes"/>
      <point x="459.0" y="23.0"/>
      <point x="412.0" y="-15.0"/>
      <point x="337.0" y="-15.0" type="curve" smooth="yes"/>
      <point x="332.0" y="-15.0" type="line" smooth="yes"/>
      <point x="257.0" y="-15.0"/>
      <point x="234.0" y="23.0"/>
      <point x="280.0" y="155.0" type="curve" smooth="yes"/>
      <point x="659.0" y="1245.0" type="line" smooth="yes"/>
      <point x="705.0" y="1377.0"/>
      <point x="742.0" y="1415.0"/>
    </contour>
    <contour>
      <point x="542.0" y="1415.0" type="curve" smooth="yes"/>
      <point x="547.0" y="1415.0" type="line" smooth="yes"/>
      <point x="631.0" y="1415.0"/>
      <point x="645.0" y="1377.0"/>
      <point x="599.0" y="1245.0" type="curve" smooth="yes"/>
      <point x="220.0" y="155.0" type="line" smooth="yes"/>
      <point x="174.0" y="23.0"/>
      <point x="126.0" y="-15.0"/>
      <point x="52.0" y="-15.0" type="curve" smooth="yes"/>
      <point x="47.0" y="-15.0" type="line" smooth="yes"/>
      <point x="-27.0" y="-15.0"/>
      <point x="-51.0" y="23.0"/>
      <point x="-5.0" y="155.0" type="curve" smooth="yes"/>
      <point x="374.0" y="1245.0" type="line" smooth="yes"/>
      <point x="420.0" y="1377.0"/>
      <point x="458.0" y="1415.0"/>
    </contour>
  </outline>
</glyph>
<glyph name="dollar" format="2">
  <advance height="1920" width="564"/>
  <unicode hex="0024"/>
  <outline>
    <contour>
      <point x="100.0" y="503.0" type="curve" smooth="yes"/>
      <point x="106.0" y="503.0" type="line" smooth="yes"/>
      <point x="167.0" y="503.0"/>
      <point x="194.0" y="477.0"/>
      <point x="160.0" y="330.0" type="curve" smooth="yes"/>
      <point x="158.0" y="320.0" type="line" smooth="yes"/>
      <point x="132.0" y="206.0"/>
      <point x="120.0" y="155.0"/>
      <point x="190.0" y="155.0" type="curve" smooth="yes"/>
      <point x="244.0" y="155.0"/>
      <point x="274.0" y="217.0"/>
      <point x="302.0" y="338.0" type="curve" smooth="yes"/>
      <point x="331.0" y="462.0"/>
      <point x="323.0" y="561.0"/>
      <point x="263.0" y="644.0" type="curve" smooth="yes"/>
      <point x="160.0" y="787.0"/>
      <point x="94.0" y="875.0"/>
      <point x="151.0" y="1123.0" type="curve" smooth="yes"/>
      <point x="193.0" y="1303.0"/>
      <point x="294.0" y="1435.0"/>
      <point x="475.0" y="1435.0" type="curve" smooth="yes"/>
      <point x="657.0" y="1435.0"/>
      <point x="709.0" y="1336.0"/>
      <point x="659.0" y="1121.0" type="curve" smooth="yes"/>
      <point x="652.0" y="1091.0" type="line" smooth="yes"/>
      <point x="630.0" y="994.0"/>
      <point x="593.0" y="948.0"/>
      <point x="540.0" y="948.0" type="curve" smooth="yes"/>
      <point x="536.0" y="948.0" type="line" smooth="yes"/>
      <point x="473.0" y="948.0"/>
      <point x="454.0" y="994.0"/>
      <point x="476.0" y="1091.0" type="curve" smooth="yes"/>
      <point x="485.0" y="1131.0" type="line" smooth="yes"/>
      <point x="502.0" y="1206.0"/>
      <point x="499.0" y="1265.0"/>
      <point x="441.0" y="1265.0" type="curve" smooth="yes"/>
      <point x="405.0" y="1265.0"/>
      <point x="368.0" y="1203.0"/>
      <point x="347.0" y="1113.0" type="curve" smooth="yes"/>
      <point x="335.0" y="1062.0"/>
      <point x="305.0" y="912.0"/>
      <point x="395.0" y="812.0" type="curve" smooth="yes"/>
      <point x="503.0" y="692.0"/>
      <point x="571.0" y="597.0"/>
      <point x="514.0" y="348.0" type="curve" smooth="yes"/>
      <point x="450.0" y="71.0"/>
      <point x="336.0" y="-35.0"/>
      <point x="136.0" y="-35.0" type="curve" smooth="yes"/>
      <point x="-48.0" y="-35.0"/>
      <point x="-95.0" y="63.0"/>
      <point x="-36.0" y="319.0" type="curve" smooth="yes"/>
      <point x="-34.0" y="329.0" type="line" smooth="yes"/>
      <point x="0.0" y="476.0"/>
      <point x="39.0" y="503.0"/>
    </contour>
    <contour>
      <point x="515.0" y="1590.0" type="curve" smooth="yes"/>
      <point x="519.0" y="1590.0" type="line" smooth="yes"/>
      <point x="527.0" y="1590.0"/>
      <point x="535.0" y="1583.0"/>
      <point x="531.0" y="1565.0" type="curve" smooth="yes"/>
      <point x="132.0" y="-165.0" type="line" smooth="yes"/>
      <point x="128.0" y="-183.0"/>
      <point x="116.0" y="-190.0"/>
      <point x="108.0" y="-190.0" type="curve" smooth="yes"/>
      <point x="104.0" y="-190.0" type="line" smooth="yes"/>
      <point x="96.0" y="-190.0"/>
      <point x="88.0" y="-183.0"/>
      <point x="92.0" y="-165.0" type="curve" smooth="yes"/>
      <point x="491.0" y="1565.0" type="line" smooth="yes"/>
      <point x="495.0" y="1583.0"/>
      <point x="507.0" y="1590.0"/>
    </contour>
  </outline>
</glyph>
<glyph name="ampersand" format="2">
  <advance height="1920" width="851"/>
  <unicode hex="0026"/>
  <outline>
    <contour>
      <point x="383.0" y="155.0" type="curve" smooth="yes"/>
      <point x="312.0" y="1034.0" type="line" smooth="yes"/>
      <point x="306.0" y="1132.0"/>
      <point x="310.0" y="1201.0"/>
      <point x="323.0" y="1257.0" type="curve" smooth="yes"/>
      <point x="343.0" y="1342.0"/>
      <point x="420.0" y="1417.0"/>
      <point x="594.0" y="1417.0" type="curve" smooth="yes"/>
      <point x="782.0" y="1417.0"/>
      <point x="823.0" y="1336.0"/>
      <point x="796.0" y="1221.0" type="curve" smooth="yes"/>
      <point x="763.0" y="1077.0"/>
      <point x="556.0" y="942.0"/>
      <point x="432.0" y="885.0" type="curve" smooth="yes"/>
      <point x="363.0" y="853.0"/>
      <point x="312.0" y="763.0"/>
      <point x="295.0" y="691.0" type="curve" smooth="yes"/>
      <point x="283.0" y="641.0"/>
      <point x="284.0" y="617.0"/>
      <point x="290.0" y="546.0" type="curve" smooth="yes"/>
      <point x="316.0" y="246.0" type="line" smooth="yes"/>
      <point x="319.0" y="209.0"/>
      <point x="328.0" y="198.0"/>
      <point x="349.0" y="198.0" type="curve" smooth="yes"/>
      <point x="470.0" y="198.0"/>
      <point x="563.0" y="440.0"/>
      <point x="625.0" y="537.0" type="curve" smooth="yes"/>
      <point x="680.0" y="622.0"/>
      <point x="709.0" y="656.0"/>
      <point x="763.0" y="656.0" type="curve" smooth="yes"/>
      <point x="768.0" y="656.0" type="line" smooth="yes"/>
      <point x="822.0" y="656.0"/>
      <point x="860.0" y="614.0"/>
      <point x="805.0" y="535.0" type="curve" smooth="yes"/>
      <point x="661.0" y="329.0"/>
      <point x="415.0" y="-17.0"/>
      <point x="211.0" y="-17.0" type="curve" smooth="yes"/>
      <point x="83.0" y="-17.0"/>
      <point x="66.0" y="58.0"/>
      <point x="49.0" y="210.0" type="curve" smooth="yes"/>
      <point x="26.0" y="417.0" type="line" smooth="yes"/>
      <point x="16.0" y="505.0"/>
      <point x="24.0" y="583.0"/>
      <point x="40.0" y="651.0" type="curve" smooth="yes"/>
      <point x="69.0" y="775.0"/>
      <point x="209.0" y="908.0"/>
      <point x="421.0" y="988.0" type="curve" smooth="yes"/>
      <point x="545.0" y="1035.0"/>
      <point x="609.0" y="1180.0"/>
      <point x="621.0" y="1230.0" type="curve" smooth="yes"/>
      <point x="628.0" y="1262.0"/>
      <point x="613.0" y="1275.0"/>
      <point x="595.0" y="1275.0" type="curve" smooth="yes"/>
      <point x="577.0" y="1275.0"/>
      <point x="559.0" y="1258.0"/>
      <point x="553.0" y="1231.0" type="curve" smooth="yes"/>
      <point x="547.0" y="1207.0"/>
      <point x="550.0" y="1155.0"/>
      <point x="553.0" y="1105.0" type="curve" smooth="yes"/>
      <point x="638.0" y="155.0" type="line" smooth="yes"/>
      <point x="650.0" y="24.0"/>
      <point x="579.0" y="-15.0"/>
      <point x="505.0" y="-15.0" type="curve" smooth="yes"/>
      <point x="500.0" y="-15.0" type="line" smooth="yes"/>
      <point x="426.0" y="-15.0"/>
      <point x="394.0" y="23.0"/>
    </contour>
  </outline>
</glyph>
<glyph name="quotesingle" format="2">
  <advance height="1920" width="360"/>
  <unicode hex="0027"/>
  <outline>
    <contour>
      <point x="245.0" y="800.0" type="curve" smooth="yes"/>
      <point x="235.0" y="800.0" type="line" smooth="yes"/>
      <point x="201.0" y="800.0"/>
      <point x="192.0" y="842.0"/>
      <point x="196.0" y="910.0" type="curve" smooth="yes"/>
      <point x="205.0" y="1080.0" type="line" smooth="yes"/>
      <point x="209.0" y="1157.0"/>
      <point x="216.0" y="1213.0"/>
      <point x="231.0" y="1280.0" type="curve" smooth="yes"/>
      <point x="237.0" y="1310.0" type="line" smooth="yes"/>
      <point x="255.0" y="1387.0"/>
      <point x="306.0" y="1450.0"/>
      <point x="390.0" y="1450.0" type="curve" smooth="yes"/>
      <point x="395.0" y="1450.0" type="line" smooth="yes"/>
      <point x="483.0" y="1450.0"/>
      <point x="505.0" y="1387.0"/>
      <point x="487.0" y="1310.0" type="curve" smooth="yes"/>
      <point x="481.0" y="1280.0" type="line" smooth="yes"/>
      <point x="466.0" y="1213.0"/>
      <point x="440.0" y="1155.0"/>
      <point x="408.0" y="1080.0" type="curve" smooth="yes"/>
      <point x="334.0" y="910.0" type="line" smooth="yes"/>
      <point x="305.0" y="844.0"/>
      <point x="279.0" y="800.0"/>
    </contour>
  </outline>
</glyph>
<glyph name="parenleft" format="2">
  <advance height="2048" width="332"/>
  <unicode hex="0028"/>
  <outline>
    <contour>
      <point x="179.0" y="1252.0" type="line" smooth="yes"/>
      <point x="226.0" y="1454.0"/>
      <point x="321.0" y="1574.0"/>
      <point x="500.0" y="1626.0" type="curve" smooth="yes"/>
      <point x="556.0" y="1642.0"/>
      <point x="593.0" y="1617.0"/>
      <point x="584.0" y="1578.0" type="curve" smooth="yes"/>
      <point x="582.0" y="1568.0" type="line" smooth="yes"/>
      <point x="573.0" y="1530.0"/>
      <point x="542.0" y="1505.0"/>
      <point x="513.0" y="1486.0" type="curve" smooth="yes"/>
      <point x="467.0" y="1456.0"/>
      <point x="448.0" y="1386.0"/>
      <point x="413.0" y="1236.0" type="curve" smooth="yes"/>
      <point x="131.0" y="14.0" type="line" smooth="yes"/>
      <point x="96.0" y="-136.0"/>
      <point x="91.0" y="-216.0"/>
      <point x="123.0" y="-246.0" type="curve" smooth="yes"/>
      <point x="144.0" y="-265.0"/>
      <point x="156.0" y="-280.0"/>
      <point x="147.0" y="-318.0" type="curve" smooth="yes"/>
      <point x="144.0" y="-328.0" type="line" smooth="yes"/>
      <point x="135.0" y="-367.0"/>
      <point x="86.0" y="-392.0"/>
      <point x="38.0" y="-376.0" type="curve" smooth="yes"/>
      <point x="-117.0" y="-324.0"/>
      <point x="-157.0" y="-204.0"/>
      <point x="-110.0" y="-2.0" type="curve" smooth="yes"/>
    </contour>
  </outline>
</glyph>
<glyph name="parenright" format="2">
  <advance height="2048" width="332"/>
  <unicode hex="0029"/>
  <outline>
    <contour>
      <point x="202.0" y="-2.0" type="line" smooth="yes"/>
      <point x="155.0" y="-204.0"/>
      <point x="59.0" y="-324.0"/>
      <point x="-120.0" y="-376.0" type="curve" smooth="yes"/>
      <point x="-176.0" y="-392.0"/>
      <point x="-213.0" y="-367.0"/>
      <point x="-204.0" y="-328.0" type="curve" smooth="yes"/>
      <point x="-201.0" y="-318.0" type="line" smooth="yes"/>
      <point x="-192.0" y="-280.0"/>
      <point x="-161.0" y="-255.0"/>
      <point x="-132.0" y="-236.0" type="curve" smooth="yes"/>
      <point x="-86.0" y="-206.0"/>
      <point x="-68.0" y="-136.0"/>
      <point x="-33.0" y="14.0" type="curve" smooth="yes"/>
      <point x="249.0" y="1236.0" type="line" smooth="yes"/>
      <point x="284.0" y="1386.0"/>
      <point x="289.0" y="1466.0"/>
      <point x="257.0" y="1496.0" type="curve" smooth="yes"/>
      <point x="236.0" y="1515.0"/>
      <point x="225.0" y="1530.0"/>
      <point x="234.0" y="1568.0" type="curve" smooth="yes"/>
      <point x="236.0" y="1578.0" type="line" smooth="yes"/>
      <point x="245.0" y="1617.0"/>
      <point x="294.0" y="1642.0"/>
      <point x="342.0" y="1626.0" type="curve" smooth="yes"/>
      <point x="497.0" y="1574.0"/>
      <point x="538.0" y="1454.0"/>
      <point x="491.0" y="1252.0" type="curve" smooth="yes"/>
    </contour>
  </outline>
</glyph>
<glyph name="asterisk" format="2">
  <advance height="2048" width="644"/>
  <unicode hex="002A"/>
  <outline>
    <contour>
      <point x="485.0" y="1202.0" type="line"/>
      <point x="481.0" y="1236.0" type="line"/>
      <point x="614.0" y="1341.0" type="line" smooth="yes"/>
      <point x="664.0" y="1381.0"/>
      <point x="676.0" y="1390.0"/>
      <point x="710.0" y="1400.0" type="curve" smooth="yes"/>
      <point x="713.0" y="1402.0" type="line" smooth="yes"/>
      <point x="773.0" y="1420.0"/>
      <point x="810.0" y="1377.0"/>
      <point x="814.0" y="1326.0" type="curve" smooth="yes"/>
      <point x="816.0" y="1312.0" type="line" smooth="yes"/>
      <point x="820.0" y="1261.0"/>
      <point x="794.0" y="1200.0"/>
      <point x="734.0" y="1182.0" type="curve" smooth="yes"/>
      <point x="731.0" y="1181.0" type="line" smooth="yes"/>
      <point x="697.0" y="1171.0"/>
      <point x="682.0" y="1172.0"/>
      <point x="628.0" y="1180.0" type="curve" smooth="yes"/>
    </contour>
    <contour>
      <point x="466.0" y="1210.0" type="line"/>
      <point x="499.0" y="1230.0" type="line"/>
      <point x="617.0" y="1160.0" type="line" smooth="yes"/>
      <point x="661.0" y="1134.0"/>
      <point x="671.0" y="1127.0"/>
      <point x="685.0" y="1100.0" type="curve" smooth="yes"/>
      <point x="686.0" y="1098.0" type="line" smooth="yes"/>
      <point x="709.0" y="1050.0"/>
      <point x="671.0" y="993.0"/>
      <point x="620.0" y="961.0" type="curve" smooth="yes"/>
      <point x="606.0" y="952.0" type="line" smooth="yes"/>
      <point x="555.0" y="920.0"/>
      <point x="491.0" y="914.0"/>
      <point x="468.0" y="962.0" type="curve" smooth="yes"/>
      <point x="467.0" y="964.0" type="line" smooth="yes"/>
      <point x="453.0" y="991.0"/>
      <point x="454.0" y="1005.0"/>
      <point x="457.0" y="1061.0" type="curve" smooth="yes"/>
    </contour>
    <contour>
      <point x="472.0" y="1230.0" type="line"/>
      <point x="495.0" y="1209.0" type="line"/>
      <point x="436.0" y="1060.0" type="line" smooth="yes"/>
      <point x="413.0" y="1004.0"/>
      <point x="407.0" y="990.0"/>
      <point x="381.0" y="963.0" type="curve" smooth="yes"/>
      <point x="379.0" y="961.0" type="line" smooth="yes"/>
      <point x="334.0" y="913.0"/>
      <point x="274.0" y="920.0"/>
      <point x="237.0" y="952.0" type="curve" smooth="yes"/>
      <point x="227.0" y="960.0" type="line" smooth="yes"/>
      <point x="190.0" y="992.0"/>
      <point x="178.0" y="1049.0"/>
      <point x="223.0" y="1097.0" type="curve" smooth="yes"/>
      <point x="226.0" y="1099.0" type="line" smooth="yes"/>
      <point x="252.0" y="1126.0"/>
      <point x="266.0" y="1134.0"/>
      <point x="322.0" y="1160.0" type="curve" smooth="yes"/>
    </contour>
    <contour>
      <point x="492.0" y="1236.0" type="line"/>
      <point x="474.0" y="1202.0" type="line"/>
      <point x="319.0" y="1180.0" type="line" smooth="yes"/>
      <point x="261.0" y="1172.0"/>
      <point x="248.0" y="1171.0"/>
      <point x="218.0" y="1181.0" type="curve" smooth="yes"/>
      <point x="215.0" y="1182.0" type="line" smooth="yes"/>
      <point x="163.0" y="1200.0"/>
      <point x="165.0" y="1261.0"/>
      <point x="193.0" y="1312.0" type="curve" smooth="yes"/>
      <point x="201.0" y="1326.0" type="line" smooth="yes"/>
      <point x="229.0" y="1377.0"/>
      <point x="286.0" y="1420.0"/>
      <point x="338.0" y="1402.0" type="curve" smooth="yes"/>
      <point x="339.0" y="1400.0" type="line" smooth="yes"/>
      <point x="369.0" y="1390.0"/>
      <point x="377.0" y="1381.0"/>
      <point x="409.0" y="1341.0" type="curve" smooth="yes"/>
    </contour>
    <contour>
      <point x="500.0" y="1219.0" type="line"/>
      <point x="465.0" y="1219.0" type="line"/>
      <point x="430.0" y="1354.0" type="line" smooth="yes"/>
      <point x="416.0" y="1405.0"/>
      <point x="413.0" y="1418.0"/>
      <point x="421.0" y="1452.0" type="curve" smooth="yes"/>
      <point x="422.0" y="1454.0" type="line" smooth="yes"/>
      <point x="435.0" y="1512.0"/>
      <point x="496.0" y="1544.0"/>
      <point x="550.0" y="1544.0" type="curve" smooth="yes"/>
      <point x="565.0" y="1544.0" type="line" smooth="yes"/>
      <point x="619.0" y="1544.0"/>
      <point x="666.0" y="1512.0"/>
      <point x="653.0" y="1454.0" type="curve" smooth="yes"/>
      <point x="652.0" y="1452.0" type="line" smooth="yes"/>
      <point x="644.0" y="1418.0"/>
      <point x="637.0" y="1405.0"/>
      <point x="599.0" y="1354.0" type="curve" smooth="yes"/>
    </contour>
  </outline>
</glyph>
<glyph name="plus" format="2">
  <advance height="1920" width="520"/>
  <unicode hex="002B"/>
  <outline>
    <contour>
      <point x="47.0" y="678.0" type="curve" smooth="yes"/>
      <point x="47.0" y="695.0" type="line" smooth="yes"/>
      <point x="47.0" y="749.0"/>
      <point x="87.0" y="775.0"/>
      <point x="141.0" y="775.0" type="curve" smooth="yes"/>
      <point x="457.0" y="775.0" type="line" smooth="yes"/>
      <point x="511.0" y="775.0"/>
      <point x="551.0" y="749.0"/>
      <point x="551.0" y="695.0" type="curve" smooth="yes"/>
      <point x="551.0" y="678.0" type="line" smooth="yes"/>
      <point x="551.0" y="624.0"/>
      <point x="511.0" y="598.0"/>
      <point x="457.0" y="598.0" type="curve" smooth="yes"/>
      <point x="141.0" y="598.0" type="line" smooth="yes"/>
      <point x="87.0" y="598.0"/>
      <point x="47.0" y="624.0"/>
    </contour>
    <contour>
      <point x="351.0" y="950.0" type="curve" smooth="yes"/>
      <point x="367.0" y="950.0" type="line" smooth="yes"/>
      <point x="421.0" y="950.0"/>
      <point x="437.0" y="909.0"/>
      <point x="425.0" y="855.0" type="curve" smooth="yes"/>
      <point x="345.0" y="505.0" type="line" smooth="yes"/>
      <point x="333.0" y="451.0"/>
      <point x="297.0" y="410.0"/>
      <point x="243.0" y="410.0" type="curve" smooth="yes"/>
      <point x="227.0" y="410.0" type="line" smooth="yes"/>
      <point x="173.0" y="410.0"/>
      <point x="157.0" y="451.0"/>
      <point x="169.0" y="505.0" type="curve" smooth="yes"/>
      <point x="249.0" y="855.0" type="line" smooth="yes"/>
      <point x="261.0" y="909.0"/>
      <point x="297.0" y="950.0"/>
    </contour>
  </outline>
</glyph>
<glyph name="comma" format="2">
  <advance height="1920" width="400"/>
  <unicode hex="002C"/>
  <outline>
    <contour>
      <point x="-120.0" y="-326.0" type="curve" smooth="yes"/>
      <point x="-122.0" y="-326.0" type="line" smooth="yes"/>
      <point x="-140.0" y="-326.0"/>
      <point x="-144.0" y="-307.0"/>
      <point x="-120.0" y="-270.0" type="curve" smooth="yes"/>
      <point x="58.0" y="0.0" type="line"/>
      <point x="52.0" y="0.0" type="line" smooth="yes"/>
      <point x="-22.0" y="0.0"/>
      <point x="-59.0" y="40.0"/>
      <point x="-37.0" y="134.0" type="curve" smooth="yes"/>
      <point x="-17.0" y="221.0" type="line" smooth="yes"/>
      <point x="9.0" y="335.0"/>
      <point x="51.0" y="377.0"/>
      <point x="139.0" y="377.0" type="curve" smooth="yes"/>
      <point x="155.0" y="377.0" type="line" smooth="yes"/>
      <point x="243.0" y="377.0"/>
      <point x="305.0" y="335.0"/>
      <point x="279.0" y="221.0" type="curve" smooth="yes"/>
      <point x="270.0" y="180.0" type="line" smooth="yes"/>
      <point x="250.0" y="92.0"/>
      <point x="216.0" y="22.0"/>
      <point x="142.0" y="-60.0" type="curve" smooth="yes"/>
      <point x="-61.0" y="-286.0" type="line" smooth="yes"/>
      <point x="-87.0" y="-315.0"/>
      <point x="-107.0" y="-326.0"/>
    </contour>
  </outline>
</glyph>
<glyph name="hyphen" format="2">
  <advance height="1920" width="285"/>
  <unicode hex="002D"/>
  <outline>
    <contour>
      <point x="26.0" y="604.0" type="curve" smooth="yes"/>
      <point x="26.0" y="621.0" type="line" smooth="yes"/>
      <point x="26.0" y="675.0"/>
      <point x="66.0" y="701.0"/>
      <point x="120.0" y="701.0" type="curve" smooth="yes"/>
      <point x="206.0" y="701.0" type="line" smooth="yes"/>
      <point x="260.0" y="701.0"/>
      <point x="300.0" y="675.0"/>
      <point x="300.0" y="621.0" type="curve" smooth="yes"/>
      <point x="300.0" y="604.0" type="line" smooth="yes"/>
      <point x="300.0" y="550.0"/>
      <point x="260.0" y="524.0"/>
      <point x="206.0" y="524.0" type="curve" smooth="yes"/>
      <point x="120.0" y="524.0" type="line" smooth="yes"/>
      <point x="66.0" y="524.0"/>
      <point x="26.0" y="550.0"/>
    </contour>
  </outline>
</glyph>
<glyph name="period" format="2">
  <advance height="1920" width="400"/>
  <unicode hex="002E"/>
  <outline>
    <contour>
      <point x="99.0" y="-17.0" type="curve" smooth="yes"/>
      <point x="83.0" y="-17.0" type="line" smooth="yes"/>
      <point x="-1.0" y="-17.0"/>
      <point x="-62.0" y="24.0"/>
      <point x="-36.0" y="138.0" type="curve" smooth="yes"/>
      <point x="-17.0" y="222.0" type="line" smooth="yes"/>
      <point x="9.0" y="336.0"/>
      <point x="60.0" y="377.0"/>
      <point x="144.0" y="377.0" type="curve" smooth="yes"/>
      <point x="160.0" y="377.0" type="line" smooth="yes"/>
      <point x="244.0" y="377.0"/>
      <point x="305.0" y="336.0"/>
      <point x="279.0" y="222.0" type="curve" smooth="yes"/>
      <point x="260.0" y="138.0" type="line" smooth="yes"/>
      <point x="234.0" y="24.0"/>
      <point x="183.0" y="-17.0"/>
    </contour>
  </outline>
</glyph>
<glyph name="slash" format="2">
  <advance height="2048" width="520"/>
  <unicode hex="002F"/>
  <outline>
    <contour>
      <point x="656.0" y="1295.0" type="curve" smooth="yes"/>
      <point x="92.0" y="5.0" type="line" smooth="yes"/>
      <point x="56.0" y="-76.0"/>
      <point x="9.0" y="-115.0"/>
      <point x="-44.0" y="-115.0" type="curve" smooth="yes"/>
      <point x="-46.0" y="-115.0" type="line" smooth="yes"/>
      <point x="-100.0" y="-115.0"/>
      <point x="-124.0" y="-76.0"/>
      <point x="-88.0" y="5.0" type="curve" smooth="yes"/>
      <point x="476.0" y="1295.0" type="line" smooth="yes"/>
      <point x="511.0" y="1376.0"/>
      <point x="559.0" y="1415.0"/>
      <point x="612.0" y="1415.0" type="curve" smooth="yes"/>
      <point x="614.0" y="1415.0" type="line" smooth="yes"/>
      <point x="668.0" y="1415.0"/>
      <point x="691.0" y="1376.0"/>
    </contour>
  </outline>
</glyph>
<glyph name="one" format="2">
  <advance height="1920" width="320"/>
  <unicode hex="0031"/>
  <outline>
    <contour>
      <point x="274.0" y="1362.0" type="curve" smooth="yes"/>
      <point x="305.0" y="1372.0"/>
      <point x="316.0" y="1376.0"/>
      <point x="339.0" y="1398.0" type="curve" smooth="yes"/>
      <point x="363.0" y="1421.0"/>
      <point x="387.0" y="1425.0"/>
      <point x="410.0" y="1425.0" type="curve" smooth="yes"/>
      <point x="412.0" y="1425.0" type="line" smooth="yes"/>
      <point x="460.0" y="1425.0"/>
      <point x="484.0" y="1393.0"/>
      <point x="468.0" y="1325.0" type="curve" smooth="yes"/>
      <point x="191.0" y="125.0" type="line" smooth="yes"/>
      <point x="171.0" y="37.0"/>
      <point x="115.0" y="-5.0"/>
      <point x="41.0" y="-5.0" type="curve" smooth="yes"/>
      <point x="37.0" y="-5.0" type="line" smooth="yes"/>
      <point x="-37.0" y="-5.0"/>
      <point x="-73.0" y="37.0"/>
      <point x="-53.0" y="125.0" type="curve" smooth="yes"/>
      <point x="212.0" y="1272.0" type="line" smooth="yes"/>
      <point x="224.0" y="1325.0"/>
      <point x="245.0" y="1352.0"/>
    </contour>
  </outline>
</glyph>
<glyph name="two" format="2">
  <advance height="1920" width="580"/>
  <unicode hex="0032"/>
  <outline>
    <contour>
      <point x="-63.0" y="140.0" type="line" smooth="yes"/>
      <point x="18.0" y="492.0"/>
      <point x="323.0" y="588.0"/>
      <point x="404.0" y="937.0" type="curve" smooth="yes"/>
      <point x="456.0" y="1159.0" type="line" smooth="yes"/>
      <point x="470.0" y="1219.0"/>
      <point x="472.0" y="1243.0"/>
      <point x="454.0" y="1243.0" type="curve" smooth="yes"/>
      <point x="437.0" y="1243.0"/>
      <point x="429.0" y="1217.0"/>
      <point x="416.0" y="1161.0" type="curve" smooth="yes"/>
      <point x="371.0" y="967.0" type="line" smooth="yes"/>
      <point x="345.0" y="853.0"/>
      <point x="300.0" y="797.0"/>
      <point x="216.0" y="797.0" type="curve" smooth="yes"/>
      <point x="206.0" y="797.0" type="line" smooth="yes"/>
      <point x="122.0" y="797.0"/>
      <point x="105.0" y="853.0"/>
      <point x="131.0" y="967.0" type="curve" smooth="yes"/>
      <point x="169.0" y="1131.0" type="line" smooth="yes"/>
      <point x="208.0" y="1298.0"/>
      <point x="309.0" y="1417.0"/>
      <point x="507.0" y="1417.0" type="curve" smooth="yes"/>
      <point x="671.0" y="1417.0"/>
      <point x="731.0" y="1311.0"/>
      <point x="694.0" y="1151.0" type="curve" smooth="yes"/>
      <point x="659.0" y="999.0" type="line" smooth="yes"/>
      <point x="565.0" y="591.0"/>
      <point x="236.0" y="416.0"/>
      <point x="184.0" y="190.0" type="curve" smooth="yes"/>
      <point x="183.0" y="185.0" type="line"/>
      <point x="333.0" y="185.0" type="line" smooth="yes"/>
      <point x="437.0" y="185.0"/>
      <point x="499.0" y="169.0"/>
      <point x="482.0" y="95.0" type="curve" smooth="yes"/>
      <point x="481.0" y="90.0" type="line" smooth="yes"/>
      <point x="464.0" y="16.0"/>
      <point x="394.0" y="0.0"/>
      <point x="290.0" y="0.0" type="curve" smooth="yes"/>
      <point x="50.0" y="0.0" type="line" smooth="yes"/>
      <point x="-64.0" y="0.0"/>
      <point x="-79.0" y="71.0"/>
      <point x="-64.0" y="135.0" type="curve" smooth="yes"/>
    </contour>
  </outline>
</glyph>
<glyph name="three" format="2">
  <advance height="1920" width="576"/>
  <unicode hex="0033"/>
  <outline>
    <contour>
      <point x="125.0" y="472.0" type="curve" smooth="yes"/>
      <point x="140.0" y="472.0" type="line" smooth="yes"/>
      <point x="204.0" y="472.0"/>
      <point x="244.0" y="425.0"/>
      <point x="215.0" y="301.0" type="curve" smooth="yes"/>
      <point x="207.0" y="264.0" type="line" smooth="yes"/>
      <point x="193.0" y="204.0"/>
      <point x="182.0" y="158.0"/>
      <point x="206.0" y="158.0" type="curve" smooth="yes"/>
      <point x="230.0" y="158.0"/>
      <point x="239.0" y="196.0"/>
      <point x="254.0" y="261.0" type="curve" smooth="yes"/>
      <point x="320.0" y="544.0" type="line" smooth="yes"/>
      <point x="330.0" y="589.0"/>
      <point x="332.0" y="620.0"/>
      <point x="284.0" y="620.0" type="curve" smooth="yes"/>
      <point x="283.0" y="620.0" type="line" smooth="yes"/>
      <point x="249.0" y="620.0"/>
      <point x="209.0" y="641.0"/>
      <point x="224.0" y="705.0" type="curve" smooth="yes"/>
      <point x="225.0" y="710.0" type="line" smooth="yes"/>
      <point x="240.0" y="774.0"/>
      <point x="280.0" y="795.0"/>
      <point x="314.0" y="795.0" type="curve" smooth="yes"/>
      <point x="315.0" y="795.0" type="line" smooth="yes"/>
      <point x="358.0" y="795.0"/>
      <point x="375.0" y="816.0"/>
      <point x="384.0" y="856.0" type="curve" smooth="yes"/>
      <point x="452.0" y="1154.0" type="line" smooth="yes"/>
      <point x="466.0" y="1214.0"/>
      <point x="470.0" y="1241.0"/>
      <point x="448.0" y="1241.0" type="curve" smooth="yes"/>
      <point x="427.0" y="1241.0"/>
      <point x="417.0" y="1206.0"/>
      <point x="405.0" y="1155.0" type="curve" smooth="yes"/>
      <point x="396.0" y="1117.0" type="line" smooth="yes"/>
      <point x="367.0" y="993.0"/>
      <point x="314.0" y="937.0"/>
      <point x="240.0" y="937.0" type="curve" smooth="yes"/>
      <point x="230.0" y="937.0" type="line" smooth="yes"/>
      <point x="156.0" y="937.0"/>
      <point x="127.0" y="993.0"/>
      <point x="156.0" y="1117.0" type="curve" smooth="yes"/>
      <point x="172.0" y="1185.0" type="line" smooth="yes"/>
      <point x="199.0" y="1302.0"/>
      <point x="289.0" y="1417.0"/>
      <point x="493.0" y="1417.0" type="curve" smooth="yes"/>
      <point x="697.0" y="1417.0"/>
      <point x="734.0" y="1297.0"/>
      <point x="707.0" y="1182.0" type="curve" smooth="yes"/>
      <point x="646.0" y="919.0" type="line" smooth="yes"/>
      <point x="608.0" y="754.0"/>
      <point x="501.0" y="700.0"/>
      <point x="323.0" y="700.0" type="curve"/>
      <point x="338.0" y="725.0" type="line"/>
      <point x="516.0" y="725.0"/>
      <point x="594.0" y="676.0"/>
      <point x="554.0" y="501.0" type="curve" smooth="yes"/>
      <point x="499.0" y="264.0" type="line" smooth="yes"/>
      <point x="460.0" y="94.0"/>
      <point x="365.0" y="-18.0"/>
      <point x="137.0" y="-18.0" type="curve" smooth="yes"/>
      <point x="-59.0" y="-18.0"/>
      <point x="-79.0" y="85.0"/>
      <point x="-45.0" y="234.0" type="curve" smooth="yes"/>
      <point x="-30.0" y="301.0" type="line" smooth="yes"/>
      <point x="-1.0" y="425.0"/>
      <point x="61.0" y="472.0"/>
    </contour>
  </outline>
</glyph>
<glyph name="four" format="2">
  <advance height="1920" width="575"/>
  <unicode hex="0034"/>
  <outline>
    <contour>
      <point x="566.0" y="415.0" type="curve" smooth="yes"/>
      <point x="565.0" y="410.0" type="line" smooth="yes"/>
      <point x="548.0" y="336.0"/>
      <point x="499.0" y="325.0"/>
      <point x="445.0" y="325.0" type="curve" smooth="yes"/>
      <point x="435.0" y="325.0" type="line"/>
      <point x="396.0" y="155.0" type="line" smooth="yes"/>
      <point x="367.0" y="31.0"/>
      <point x="306.0" y="-15.0"/>
      <point x="232.0" y="-15.0" type="curve" smooth="yes"/>
      <point x="227.0" y="-15.0" type="line" smooth="yes"/>
      <point x="153.0" y="-15.0"/>
      <point x="122.0" y="31.0"/>
      <point x="151.0" y="155.0" type="curve" smooth="yes"/>
      <point x="190.0" y="325.0" type="line"/>
      <point x="120.0" y="325.0" type="line" smooth="yes"/>
      <point x="-14.0" y="325.0"/>
      <point x="-43.0" y="356.0"/>
      <point x="-26.0" y="430.0" type="curve" smooth="yes"/>
      <point x="-25.0" y="435.0" type="line" smooth="yes"/>
      <point x="-15.0" y="479.0"/>
      <point x="7.0" y="529.0"/>
      <point x="73.0" y="665.0" type="curve" smooth="yes"/>
      <point x="357.0" y="1255.0" type="line" smooth="yes"/>
      <point x="404.0" y="1352.0"/>
      <point x="463.0" y="1415.0"/>
      <point x="547.0" y="1415.0" type="curve" smooth="yes"/>
      <point x="572.0" y="1415.0" type="line" smooth="yes"/>
      <point x="656.0" y="1415.0"/>
      <point x="671.0" y="1349.0"/>
      <point x="647.0" y="1245.0" type="curve" smooth="yes"/>
      <point x="475.0" y="500.0" type="line"/>
      <point x="485.0" y="500.0" type="line" smooth="yes"/>
      <point x="539.0" y="500.0"/>
      <point x="583.0" y="489.0"/>
    </contour>
    <contour>
      <point x="235.0" y="500.0" type="line"/>
      <point x="351.0" y="1000.0" type="line"/>
      <point x="137.0" y="500.0" type="line"/>
    </contour>
  </outline>
</glyph>
<glyph name="five" format="2">
  <advance height="1920" width="600"/>
  <unicode hex="0035"/>
  <outline>
    <contour>
      <point x="112.0" y="379.0" type="curve" smooth="yes"/>
      <point x="117.0" y="379.0" type="line" smooth="yes"/>
      <point x="210.0" y="379.0"/>
      <point x="222.0" y="352.0"/>
      <point x="205.0" y="259.0" type="curve" smooth="yes"/>
      <point x="193.0" y="190.0"/>
      <point x="189.0" y="152.0"/>
      <point x="213.0" y="152.0" type="curve" smooth="yes"/>
      <point x="242.0" y="152.0"/>
      <point x="254.0" y="193.0"/>
      <point x="297.0" y="379.0" type="curve" smooth="yes"/>
      <point x="356.0" y="631.0" type="line" smooth="yes"/>
      <point x="377.0" y="721.0"/>
      <point x="382.0" y="753.0"/>
      <point x="360.0" y="753.0" type="curve" smooth="yes"/>
      <point x="334.0" y="753.0"/>
      <point x="331.0" y="723.0"/>
      <point x="310.0" y="658.0" type="curve" smooth="yes"/>
      <point x="279.0" y="563.0"/>
      <point x="247.0" y="538.0"/>
      <point x="164.0" y="538.0" type="curve" smooth="yes"/>
      <point x="159.0" y="538.0" type="line" smooth="yes"/>
      <point x="95.0" y="538.0"/>
      <point x="59.0" y="593.0"/>
      <point x="93.0" y="707.0" type="curve" smooth="yes"/>
      <point x="261.0" y="1275.0" type="line" smooth="yes"/>
      <point x="291.0" y="1378.0"/>
      <point x="349.0" y="1400.0"/>
      <point x="453.0" y="1400.0" type="curve" smooth="yes"/>
      <point x="623.0" y="1400.0" type="line" smooth="yes"/>
      <point x="707.0" y="1400.0"/>
      <point x="744.0" y="1379.0"/>
      <point x="732.0" y="1325.0" type="curve" smooth="yes"/>
      <point x="731.0" y="1322.0" type="line" smooth="yes"/>
      <point x="717.0" y="1262.0"/>
      <point x="683.0" y="1225.0"/>
      <point x="573.0" y="1225.0" type="curve" smooth="yes"/>
      <point x="446.0" y="1225.0" type="line"/>
      <point x="280.0" y="694.0" type="line"/>
      <point x="269.0" y="694.0" type="line"/>
      <point x="316.0" y="866.0"/>
      <point x="384.0" y="929.0"/>
      <point x="494.0" y="929.0" type="curve" smooth="yes"/>
      <point x="614.0" y="929.0"/>
      <point x="654.0" y="865.0"/>
      <point x="605.0" y="651.0" type="curve" smooth="yes"/>
      <point x="542.0" y="379.0" type="line" smooth="yes"/>
      <point x="474.0" y="85.0"/>
      <point x="359.0" y="-18.0"/>
      <point x="154.0" y="-18.0" type="curve" smooth="yes"/>
      <point x="-13.0" y="-18.0"/>
      <point x="-52.0" y="75.0"/>
      <point x="-23.0" y="259.0" type="curve" smooth="yes"/>
      <point x="-10.0" y="343.0"/>
      <point x="18.0" y="379.0"/>
    </contour>
  </outline>
</glyph>
<glyph name="six" format="2">
  <advance height="1920" width="591"/>
  <unicode hex="0036"/>
  <outline>
    <contour>
      <point x="331.0" y="669.0" type="curve" smooth="yes"/>
      <point x="306.0" y="669.0"/>
      <point x="296.0" y="642.0"/>
      <point x="272.0" y="540.0" type="curve" smooth="yes"/>
      <point x="265.0" y="510.0" type="line"/>
      <point x="229.0" y="550.0" type="line"/>
      <point x="259.0" y="682.0"/>
      <point x="332.0" y="794.0"/>
      <point x="450.0" y="794.0" type="curve" smooth="yes"/>
      <point x="594.0" y="794.0"/>
      <point x="611.0" y="694.0"/>
      <point x="570.0" y="517.0" type="curve" smooth="yes"/>
      <point x="512.0" y="266.0" type="line" smooth="yes"/>
      <point x="466.0" y="67.0"/>
      <point x="373.0" y="-16.0"/>
      <point x="177.0" y="-16.0" type="curve" smooth="yes"/>
      <point x="-41.0" y="-16.0"/>
      <point x="-75.0" y="86.0"/>
      <point x="-20.0" y="326.0" type="curve" smooth="yes"/>
      <point x="164.0" y="1121.0" type="line" smooth="yes"/>
      <point x="208.0" y="1311.0"/>
      <point x="305.0" y="1417.0"/>
      <point x="499.0" y="1417.0" type="curve" smooth="yes"/>
      <point x="697.0" y="1417.0"/>
      <point x="738.0" y="1317.0"/>
      <point x="698.0" y="1145.0" type="curve" smooth="yes"/>
      <point x="678.0" y="1055.0" type="line" smooth="yes"/>
      <point x="649.0" y="931.0"/>
      <point x="597.0" y="885.0"/>
      <point x="523.0" y="885.0" type="curve" smooth="yes"/>
      <point x="518.0" y="885.0" type="line" smooth="yes"/>
      <point x="444.0" y="885.0"/>
      <point x="414.0" y="931.0"/>
      <point x="443.0" y="1055.0" type="curve" smooth="yes"/>
      <point x="459.0" y="1125.0" type="line" smooth="yes"/>
      <point x="474.0" y="1191.0"/>
      <point x="486.0" y="1241.0"/>
      <point x="460.0" y="1241.0" type="curve" smooth="yes"/>
      <point x="435.0" y="1241.0"/>
      <point x="422.0" y="1193.0"/>
      <point x="405.0" y="1118.0" type="curve" smooth="yes"/>
      <point x="215.0" y="293.0" type="line" smooth="yes"/>
      <point x="191.0" y="188.0"/>
      <point x="190.0" y="160.0"/>
      <point x="214.0" y="160.0" type="curve" smooth="yes"/>
      <point x="244.0" y="160.0"/>
      <point x="251.0" y="190.0"/>
      <point x="274.0" y="290.0" type="curve" smooth="yes"/>
      <point x="329.0" y="527.0" type="line" smooth="yes"/>
      <point x="353.0" y="629.0"/>
      <point x="356.0" y="669.0"/>
    </contour>
  </outline>
</glyph>
<glyph name="seven" format="2">
  <advance height="1920" width="521"/>
  <unicode hex="0037"/>
  <outline>
    <contour>
      <point x="673.0" y="1235.0" type="curve" smooth="yes"/>
      <point x="275.0" y="155.0" type="line" smooth="yes"/>
      <point x="237.0" y="52.0"/>
      <point x="173.0" y="-15.0"/>
      <point x="88.0" y="-15.0" type="curve" smooth="yes"/>
      <point x="84.0" y="-15.0" type="line" smooth="yes"/>
      <point x="-1.0" y="-15.0"/>
      <point x="-25.0" y="55.0"/>
      <point x="19.0" y="155.0" type="curve" smooth="yes"/>
      <point x="469.0" y="1175.0" type="line"/>
      <point x="343.0" y="1175.0" type="line" smooth="yes"/>
      <point x="229.0" y="1175.0"/>
      <point x="182.0" y="1211.0"/>
      <point x="199.0" y="1285.0" type="curve" smooth="yes"/>
      <point x="201.0" y="1290.0" type="line" smooth="yes"/>
      <point x="220.0" y="1374.0"/>
      <point x="281.0" y="1400.0"/>
      <point x="395.0" y="1400.0" type="curve" smooth="yes"/>
      <point x="579.0" y="1400.0" type="line" smooth="yes"/>
      <point x="693.0" y="1400.0"/>
      <point x="714.0" y="1347.0"/>
    </contour>
  </outline>
</glyph>
<glyph name="nine" format="2">
  <advance height="1920" width="591"/>
  <unicode hex="0039"/>
  <outline>
    <contour>
      <point x="343.0" y="731.0" type="curve" smooth="yes"/>
      <point x="368.0" y="731.0"/>
      <point x="379.0" y="758.0"/>
      <point x="403.0" y="860.0" type="curve" smooth="yes"/>
      <point x="409.0" y="890.0" type="line"/>
      <point x="445.0" y="850.0" type="line"/>
      <point x="415.0" y="718.0"/>
      <point x="342.0" y="606.0"/>
      <point x="224.0" y="606.0" type="curve" smooth="yes"/>
      <point x="80.0" y="606.0"/>
      <point x="63.0" y="706.0"/>
      <point x="104.0" y="883.0" type="curve" smooth="yes"/>
      <point x="162.0" y="1134.0" type="line" smooth="yes"/>
      <point x="208.0" y="1333.0"/>
      <point x="301.0" y="1416.0"/>
      <point x="497.0" y="1416.0" type="curve" smooth="yes"/>
      <point x="715.0" y="1416.0"/>
      <point x="749.0" y="1314.0"/>
      <point x="694.0" y="1074.0" type="curve" smooth="yes"/>
      <point x="510.0" y="279.0" type="line" smooth="yes"/>
      <point x="466.0" y="89.0"/>
      <point x="369.0" y="-17.0"/>
      <point x="175.0" y="-17.0" type="curve" smooth="yes"/>
      <point x="-23.0" y="-17.0"/>
      <point x="-74.0" y="83.0"/>
      <point x="-34.0" y="255.0" type="curve" smooth="yes"/>
      <point x="-13.0" y="345.0" type="line" smooth="yes"/>
      <point x="16.0" y="469.0"/>
      <point x="67.0" y="515.0"/>
      <point x="141.0" y="515.0" type="curve" smooth="yes"/>
      <point x="146.0" y="515.0" type="line" smooth="yes"/>
      <point x="220.0" y="515.0"/>
      <point x="251.0" y="469.0"/>
      <point x="222.0" y="345.0" type="curve" smooth="yes"/>
      <point x="205.0" y="275.0" type="line" smooth="yes"/>
      <point x="190.0" y="209.0"/>
      <point x="179.0" y="159.0"/>
      <point x="210.0" y="159.0" type="curve" smooth="yes"/>
      <point x="240.0" y="159.0"/>
      <point x="252.0" y="207.0"/>
      <point x="269.0" y="282.0" type="curve" smooth="yes"/>
      <point x="460.0" y="1107.0" type="line" smooth="yes"/>
      <point x="484.0" y="1212.0"/>
      <point x="484.0" y="1240.0"/>
      <point x="460.0" y="1240.0" type="curve" smooth="yes"/>
      <point x="430.0" y="1240.0"/>
      <point x="423.0" y="1210.0"/>
      <point x="400.0" y="1110.0" type="curve" smooth="yes"/>
      <point x="346.0" y="873.0" type="line" smooth="yes"/>
      <point x="322.0" y="771.0"/>
      <point x="318.0" y="731.0"/>
    </contour>
  </outline>
</glyph>
<glyph name="less" format="2">
  <advance height="1920" width="505"/>
  <unicode hex="003C"/>
  <outline>
    <contour>
      <point x="275.0" y="390.0" type="curve" smooth="yes"/>
      <point x="87.0" y="487.0" type="line" smooth="yes"/>
      <point x="28.0" y="517.0"/>
      <point x="4.0" y="541.0"/>
      <point x="16.0" y="595.0" type="curve" smooth="yes"/>
      <point x="19.0" y="605.0" type="line" smooth="yes"/>
      <point x="31.0" y="659.0"/>
      <point x="67.0" y="683.0"/>
      <point x="140.0" y="713.0" type="curve" smooth="yes"/>
      <point x="372.0" y="810.0" type="line" smooth="yes"/>
      <point x="458.0" y="846.0"/>
      <point x="489.0" y="799.0"/>
      <point x="477.0" y="745.0" type="curve" smooth="yes"/>
      <point x="476.0" y="740.0" type="line" smooth="yes"/>
      <point x="464.0" y="686.0"/>
      <point x="436.0" y="666.0"/>
      <point x="358.0" y="644.0" type="curve" smooth="yes"/>
      <point x="203.0" y="600.0" type="line"/>
      <point x="337.0" y="556.0" type="line" smooth="yes"/>
      <point x="405.0" y="534.0"/>
      <point x="423.0" y="514.0"/>
      <point x="411.0" y="460.0" type="curve" smooth="yes"/>
      <point x="410.0" y="455.0" type="line" smooth="yes"/>
      <point x="398.0" y="401.0"/>
      <point x="345.0" y="354.0"/>
    </contour>
  </outline>
</glyph>
<glyph name="equal" format="2">
  <advance height="1920" width="590"/>
  <unicode hex="003D"/>
  <outline>
    <contour>
      <point x="30.0" y="371.0" type="curve" smooth="yes"/>
      <point x="30.0" y="389.0" type="line" smooth="yes"/>
      <point x="30.0" y="443.0"/>
      <point x="71.0" y="469.0"/>
      <point x="125.0" y="469.0" type="curve" smooth="yes"/>
      <point x="405.0" y="469.0" type="line" smooth="yes"/>
      <point x="459.0" y="469.0"/>
      <point x="500.0" y="443.0"/>
      <point x="500.0" y="389.0" type="curve" smooth="yes"/>
      <point x="500.0" y="371.0" type="line" smooth="yes"/>
      <point x="500.0" y="317.0"/>
      <point x="459.0" y="291.0"/>
      <point x="405.0" y="291.0" type="curve" smooth="yes"/>
      <point x="125.0" y="291.0" type="line" smooth="yes"/>
      <point x="71.0" y="291.0"/>
      <point x="30.0" y="317.0"/>
    </contour>
    <contour>
      <point x="83.0" y="606.0" type="curve" smooth="yes"/>
      <point x="83.0" y="624.0" type="line" smooth="yes"/>
      <point x="83.0" y="678.0"/>
      <point x="124.0" y="704.0"/>
      <point x="178.0" y="704.0" type="curve" smooth="yes"/>
      <point x="458.0" y="704.0" type="line" smooth="yes"/>
      <point x="512.0" y="704.0"/>
      <point x="553.0" y="678.0"/>
      <point x="553.0" y="624.0" type="curve" smooth="yes"/>
      <point x="553.0" y="606.0" type="line" smooth="yes"/>
      <point x="553.0" y="552.0"/>
      <point x="512.0" y="526.0"/>
      <point x="458.0" y="526.0" type="curve" smooth="yes"/>
      <point x="178.0" y="526.0" type="line" smooth="yes"/>
      <point x="124.0" y="526.0"/>
      <point x="83.0" y="552.0"/>
    </contour>
  </outline>
</glyph>
<glyph name="greater" format="2">
  <advance height="1920" width="505"/>
  <unicode hex="003E"/>
  <outline>
    <contour>
      <point x="266.0" y="810.0" type="curve" smooth="yes"/>
      <point x="454.0" y="713.0" type="line" smooth="yes"/>
      <point x="513.0" y="683.0"/>
      <point x="537.0" y="659.0"/>
      <point x="525.0" y="605.0" type="curve" smooth="yes"/>
      <point x="522.0" y="595.0" type="line" smooth="yes"/>
      <point x="510.0" y="541.0"/>
      <point x="474.0" y="517.0"/>
      <point x="401.0" y="487.0" type="curve" smooth="yes"/>
      <point x="169.0" y="390.0" type="line" smooth="yes"/>
      <point x="83.0" y="354.0"/>
      <point x="52.0" y="401.0"/>
      <point x="64.0" y="455.0" type="curve" smooth="yes"/>
      <point x="65.0" y="460.0" type="line" smooth="yes"/>
      <point x="77.0" y="514.0"/>
      <point x="105.0" y="534.0"/>
      <point x="183.0" y="556.0" type="curve" smooth="yes"/>
      <point x="339.0" y="600.0" type="line"/>
      <point x="204.0" y="644.0" type="line" smooth="yes"/>
      <point x="136.0" y="666.0"/>
      <point x="118.0" y="686.0"/>
      <point x="130.0" y="740.0" type="curve" smooth="yes"/>
      <point x="131.0" y="745.0" type="line" smooth="yes"/>
      <point x="143.0" y="799.0"/>
      <point x="196.0" y="846.0"/>
    </contour>
  </outline>
</glyph>
<glyph name="question" format="2">
  <advance height="1920" width="600"/>
  <unicode hex="003F"/>
  <outline>
    <contour>
      <point x="199.0" y="-17.0" type="curve" smooth="yes"/>
      <point x="183.0" y="-17.0" type="line" smooth="yes"/>
      <point x="99.0" y="-17.0"/>
      <point x="33.0" y="24.0"/>
      <point x="59.0" y="138.0" type="curve" smooth="yes"/>
      <point x="78.0" y="222.0" type="line" smooth="yes"/>
      <point x="104.0" y="336.0"/>
      <point x="150.0" y="377.0"/>
      <point x="234.0" y="377.0" type="curve" smooth="yes"/>
      <point x="250.0" y="377.0" type="line" smooth="yes"/>
      <point x="334.0" y="377.0"/>
      <point x="400.0" y="336.0"/>
      <point x="374.0" y="222.0" type="curve" smooth="yes"/>
      <point x="355.0" y="138.0" type="line" smooth="yes"/>
      <point x="329.0" y="24.0"/>
      <point x="283.0" y="-17.0"/>
    </contour>
    <contour>
      <point x="254.0" y="415.0" type="curve" smooth="yes"/>
      <point x="249.0" y="415.0" type="line" smooth="yes"/>
      <point x="195.0" y="415.0"/>
      <point x="180.0" y="442.0"/>
      <point x="201.0" y="535.0" type="curve" smooth="yes"/>
      <point x="226.0" y="642.0"/>
      <point x="353.0" y="730.0"/>
      <point x="387.0" y="877.0" type="curve" smooth="yes"/>
      <point x="457.0" y="1178.0" type="line" smooth="yes"/>
      <point x="479.0" y="1273.0"/>
      <point x="476.0" y="1291.0"/>
      <point x="458.0" y="1291.0" type="curve" smooth="yes"/>
      <point x="438.0" y="1291.0"/>
      <point x="427.0" y="1266.0"/>
      <point x="405.0" y="1170.0" type="curve" smooth="yes"/>
      <point x="391.0" y="1107.0" type="line" smooth="yes"/>
      <point x="365.0" y="993.0"/>
      <point x="311.0" y="937.0"/>
      <point x="237.0" y="937.0" type="curve" smooth="yes"/>
      <point x="227.0" y="937.0" type="line" smooth="yes"/>
      <point x="153.0" y="937.0"/>
      <point x="125.0" y="993.0"/>
      <point x="151.0" y="1107.0" type="curve" smooth="yes"/>
      <point x="173.0" y="1205.0" type="line" smooth="yes"/>
      <point x="206.0" y="1347.0"/>
      <point x="314.0" y="1467.0"/>
      <point x="512.0" y="1467.0" type="curve" smooth="yes"/>
      <point x="710.0" y="1467.0"/>
      <point x="779.0" y="1361.0"/>
      <point x="747.0" y="1221.0" type="curve" smooth="yes"/>
      <point x="681.0" y="934.0" type="line" smooth="yes"/>
      <point x="625.0" y="692.0"/>
      <point x="435.0" y="614.0"/>
      <point x="384.0" y="524.0" type="curve" smooth="yes"/>
      <point x="332.0" y="434.0"/>
      <point x="307.0" y="415.0"/>
    </contour>
  </outline>
</glyph>
<glyph name="at" format="2">
  <advance height="1920" width="935"/>
  <unicode hex="0040"/>
  <outline>
    <contour>
      <point x="448.0" y="199.0" type="line"/>
      <point x="415.0" y="54.0"/>
      <point x="410.0" y="-17.0"/>
      <point x="276.0" y="-17.0" type="curve" smooth="yes"/>
      <point x="168.0" y="-17.0"/>
      <point x="98.0" y="41.0"/>
      <point x="137.0" y="211.0" type="curve" smooth="yes"/>
      <point x="281.0" y="838.0" type="line" smooth="yes"/>
      <point x="318.0" y="998.0"/>
      <point x="424.0" y="1067.0"/>
      <point x="542.0" y="1067.0" type="curve" smooth="yes"/>
      <point x="670.0" y="1067.0"/>
      <point x="661.0" y="996.0"/>
      <point x="628.0" y="851.0" type="curve"/>
      <point x="552.0" y="841.0" type="line"/>
      <point x="564.0" y="891.0"/>
      <point x="569.0" y="921.0"/>
      <point x="546.0" y="921.0" type="curve" smooth="yes"/>
      <point x="522.0" y="921.0"/>
      <point x="516.0" y="901.0"/>
      <point x="504.0" y="851.0" type="curve" smooth="yes"/>
      <point x="354.0" y="199.0" type="line" smooth="yes"/>
      <point x="342.0" y="149.0"/>
      <point x="339.0" y="128.0"/>
      <point x="363.0" y="128.0" type="curve" smooth="yes"/>
      <point x="386.0" y="128.0"/>
      <point x="394.0" y="159.0"/>
      <point x="406.0" y="209.0" type="curve"/>
    </contour>
    <contour>
      <point x="387.0" y="-344.0" type="curve" smooth="yes"/>
      <point x="343.0" y="-367.0"/>
      <point x="285.0" y="-377.0"/>
      <point x="235.0" y="-377.0" type="curve" smooth="yes"/>
      <point x="-83.0" y="-377.0"/>
      <point x="-114.0" y="-191.0"/>
      <point x="-59.0" y="49.0" type="curve" smooth="yes"/>
      <point x="159.0" y="990.0" type="line" smooth="yes"/>
      <point x="218.0" y="1245.0"/>
      <point x="421.0" y="1417.0"/>
      <point x="689.0" y="1417.0" type="curve" smooth="yes"/>
      <point x="993.0" y="1417.0"/>
      <point x="1045.0" y="1212.0"/>
      <point x="1000.0" y="1016.0" type="curve" smooth="yes"/>
      <point x="819.0" y="235.0" type="line" smooth="yes"/>
      <point x="777.0" y="55.0"/>
      <point x="675.0" y="-17.0"/>
      <point x="561.0" y="-17.0" type="curve" smooth="yes"/>
      <point x="457.0" y="-17.0"/>
      <point x="371.0" y="55.0"/>
      <point x="396.0" y="165.0" type="curve" smooth="yes"/>
      <point x="580.0" y="961.0" type="line"/>
      <point x="678.0" y="1021.0" type="line" smooth="yes"/>
      <point x="743.0" y="1061.0"/>
      <point x="753.0" y="1067.0"/>
      <point x="777.0" y="1067.0" type="curve" smooth="yes"/>
      <point x="778.0" y="1067.0" type="line" smooth="yes"/>
      <point x="812.0" y="1067.0"/>
      <point x="817.0" y="1035.0"/>
      <point x="800.0" y="961.0" type="curve" smooth="yes"/>
      <point x="631.0" y="231.0" type="line" smooth="yes"/>
      <point x="609.0" y="134.0"/>
      <point x="615.0" y="103.0"/>
      <point x="649.0" y="103.0" type="curve" smooth="yes"/>
      <point x="677.0" y="103.0"/>
      <point x="706.0" y="135.0"/>
      <point x="729.0" y="235.0" type="curve" smooth="yes"/>
      <point x="910.0" y="1016.0" type="line" smooth="yes"/>
      <point x="949.0" y="1186.0"/>
      <point x="897.0" y="1347.0"/>
      <point x="673.0" y="1347.0" type="curve" smooth="yes"/>
      <point x="469.0" y="1347.0"/>
      <point x="303.0" y="1206.0"/>
      <point x="255.0" y="996.0" type="curve" smooth="yes"/>
      <point x="35.0" y="45.0" type="line" smooth="yes"/>
      <point x="-9.0" y="-145.0"/>
      <point x="-7.0" y="-307.0"/>
      <point x="251.0" y="-307.0" type="curve" smooth="yes"/>
      <point x="287.0" y="-307.0"/>
      <point x="345.0" y="-293.0"/>
      <point x="376.0" y="-277.0" type="curve" smooth="yes"/>
      <point x="408.0" y="-260.0"/>
      <point x="426.0" y="-264.0"/>
      <point x="430.0" y="-285.0" type="curve" smooth="yes"/>
      <point x="431.0" y="-290.0" type="line" smooth="yes"/>
      <point x="433.0" y="-302.0"/>
      <point x="415.0" y="-329.0"/>
    </contour>
  </outline>
</glyph>
<glyph name="A" format="2">
  <advance height="960" width="550"/>
  <unicode hex="0041"/>
  <anchor x="131.0" y="0.0" name="bottom"/>
  <anchor x="304.0" y="0.0" name="ogonek"/>
  <anchor x="489.0" y="1400.0" name="top"/>
  <outline>
    <contour>
      <point x="155.666015625" y="520.0" type="line"/>
      <point x="370.666015625" y="520.0" type="line"/>
      <point x="341.666015625" y="395.0" type="line"/>
      <point x="126.666015625" y="395.0" type="line"/>
    </contour>
    <contour>
      <point x="412.666015625" y="1089.0" type="line"/>
      <point x="119.666015625" y="125.0" type="line" smooth="yes"/>
      <point x="88.666015625" y="23.0"/>
      <point x="56.666015625" y="-15.0"/>
      <point x="-17.333984375" y="-15.0" type="curve" smooth="yes"/>
      <point x="-27.333984375" y="-15.0" type="line" smooth="yes"/>
      <point x="-99.333984375" y="-15.0"/>
      <point x="-111.333984375" y="21.0"/>
      <point x="-76.333984375" y="125.0" type="curve" smooth="yes"/>
      <point x="312.666015625" y="1275.0" type="line" smooth="yes"/>
      <point x="340.666015625" y="1358.0"/>
      <point x="388.666015625" y="1400.0"/>
      <point x="480.666015625" y="1400.0" type="curve" smooth="yes"/>
      <point x="530.666015625" y="1400.0" type="line" smooth="yes"/>
      <point x="623.666015625" y="1400.0"/>
      <point x="653.666015625" y="1368.0"/>
      <point x="640.666015625" y="1275.0" type="curve" smooth="yes"/>
      <point x="485.666015625" y="125.0" type="line" smooth="yes"/>
      <point x="471.666015625" y="25.0"/>
      <point x="417.666015625" y="-15.0"/>
      <point x="342.666015625" y="-15.0" type="curve" smooth="yes"/>
      <point x="332.666015625" y="-15.0" type="line" smooth="yes"/>
      <point x="260.666015625" y="-15.0"/>
      <point x="212.666015625" y="20.0"/>
      <point x="232.666015625" y="125.0" type="curve" smooth="yes"/>
    </contour>
  </outline>
</glyph>
<glyph name="B" format="2">
  <advance height="960" width="581"/>
  <unicode hex="0042"/>
  <anchor x="158.0" y="0.0" name="bottom"/>
  <anchor x="465.0" y="1400.0" name="top"/>
  <outline>
    <contour>
      <point x="346.322265625" y="770.0" type="line"/>
      <point x="368.884765625" y="770.0" type="line" smooth="yes"/>
      <point x="389.642578125" y="770.0"/>
      <point x="404.653320312" y="794.0"/>
      <point x="421.653320312" y="869.0" type="curve" smooth="yes"/>
      <point x="480.686523438" y="1126.0" type="line" smooth="yes"/>
      <point x="497.716796875" y="1201.0"/>
      <point x="499.159179688" y="1225.0"/>
      <point x="473.889648438" y="1225.0" type="curve" smooth="yes"/>
      <point x="451.322265625" y="1225.0" type="line"/>
    </contour>
    <contour>
      <point x="385.01953125" y="725.0" type="line"/>
      <point x="512.653320312" y="725.0"/>
      <point x="625.653320312" y="656.0"/>
      <point x="580.317382812" y="461.0" type="curve" smooth="yes"/>
      <point x="542.317382812" y="294.0" type="line" smooth="yes"/>
      <point x="494.317382812" y="84.0"/>
      <point x="385.317382812" y="0.0"/>
      <point x="227.317382812" y="0.0" type="curve" smooth="yes"/>
      <point x="48.322265625" y="0.0" type="line" smooth="yes"/>
      <point x="-55.677734375" y="0.0"/>
      <point x="-71.677734375" y="21.0"/>
      <point x="-47.677734375" y="125.0" type="curve" smooth="yes"/>
      <point x="217.322265625" y="1275.0" type="line" smooth="yes"/>
      <point x="243.322265625" y="1389.0"/>
      <point x="267.322265625" y="1400.0"/>
      <point x="371.322265625" y="1400.0" type="curve" smooth="yes"/>
      <point x="541.00390625" y="1400.0" type="line" smooth="yes"/>
      <point x="698.653320312" y="1400.0"/>
      <point x="752.653320312" y="1307.0"/>
      <point x="707.653320312" y="1112.0" type="curve" smooth="yes"/>
      <point x="671.653320312" y="959.0" type="line" smooth="yes"/>
      <point x="626.653320312" y="764.0"/>
      <point x="497.653320312" y="700.0"/>
      <point x="370.918945312" y="700.0" type="curve"/>
    </contour>
    <contour>
      <point x="344.412109375" y="645.0" type="curve" smooth="yes"/>
      <point x="317.322265625" y="645.0" type="line"/>
      <point x="208.322265625" y="175.0" type="line"/>
      <point x="235.459960938" y="175.0" type="line" smooth="yes"/>
      <point x="260.729492188" y="175.0"/>
      <point x="271.317382812" y="203.0"/>
      <point x="288.317382812" y="278.0" type="curve" smooth="yes"/>
      <point x="349.317382812" y="541.0" type="line" smooth="yes"/>
      <point x="366.321289062" y="616.0"/>
      <point x="369.681640625" y="645.0"/>
    </contour>
  </outline>
</glyph>
<glyph name="C" format="2">
  <advance height="960" width="539"/>
  <unicode hex="0043"/>
  <anchor x="168.0" y="0.0" name="bottom"/>
  <anchor x="500.0" y="1400.0" name="top"/>
  <outline>
    <contour>
      <point x="547.384765625" y="503.0" type="curve" smooth="yes"/>
      <point x="529.384765625" y="426.0"/>
      <point x="516.384765625" y="367.0"/>
      <point x="497.384765625" y="294.0" type="curve" smooth="yes"/>
      <point x="447.384765625" y="98.0"/>
      <point x="332.384765625" y="-18.0"/>
      <point x="157.220703125" y="-18.0" type="curve" smooth="yes"/>
      <point x="-46.779296875" y="-18.0"/>
      <point x="-59.779296875" y="109.0"/>
      <point x="-4.779296875" y="349.0" type="curve" smooth="yes"/>
      <point x="155.220703125" y="1042.0" type="line" smooth="yes"/>
      <point x="208.220703125" y="1272.0"/>
      <point x="284.220703125" y="1418.0"/>
      <point x="497.52734375" y="1418.0" type="curve" smooth="yes"/>
      <point x="674.862304688" y="1418.0"/>
      <point x="713.862304688" y="1293.0"/>
      <point x="663.862304688" y="1074.0" type="curve" smooth="yes"/>
      <point x="656.862304688" y="1042.0"/>
      <point x="648.862304688" y="1006.0"/>
      <point x="639.862304688" y="966.0" type="curve" smooth="yes"/>
      <point x="622.862304688" y="892.0"/>
      <point x="596.862304688" y="847.0"/>
      <point x="522.862304688" y="847.0" type="curve" smooth="yes"/>
      <point x="518.862304688" y="847.0" type="line" smooth="yes"/>
      <point x="444.862304688" y="847.0"/>
      <point x="438.862304688" y="892.0"/>
      <point x="454.862304688" y="966.0" type="curve" smooth="yes"/>
      <point x="491.020507812" y="1129.0"/>
      <point x="514.862304688" y="1218.0"/>
      <point x="478.584960938" y="1218.0" type="curve" smooth="yes"/>
      <point x="446.997070312" y="1218.0"/>
      <point x="432.176757812" y="1161.0"/>
      <point x="405.220703125" y="1046.0" type="curve" smooth="yes"/>
      <point x="236.220703125" y="314.0" type="line" smooth="yes"/>
      <point x="213.212890625" y="214.0"/>
      <point x="209.784179688" y="182.0"/>
      <point x="239.56640625" y="182.0" type="curve" smooth="yes"/>
      <point x="272.959960938" y="182.0"/>
      <point x="296.420898438" y="262.0"/>
      <point x="352.384765625" y="503.0" type="curve" smooth="yes"/>
      <point x="371.423828125" y="587.0"/>
      <point x="401.384765625" y="623.0"/>
      <point x="475.384765625" y="623.0" type="curve" smooth="yes"/>
      <point x="480.384765625" y="623.0" type="line" smooth="yes"/>
      <point x="554.384765625" y="623.0"/>
      <point x="566.384765625" y="587.0"/>
    </contour>
  </outline>
</glyph>
<glyph name="D" format="2">
  <advance height="960" width="599"/>
  <unicode hex="0044"/>
  <anchor x="142.0" y="0.0" name="bottom"/>
  <anchor x="485.0" y="1400.0" name="top"/>
  <outline>
    <contour>
      <point x="170.998046875" y="0.0" type="curve" smooth="yes"/>
      <point x="78.330078125" y="0.0" type="line" smooth="yes"/>
      <point x="-65.669921875" y="0.0"/>
      <point x="-73.669921875" y="11.0"/>
      <point x="-40.669921875" y="155.0" type="curve" smooth="yes"/>
      <point x="210.330078125" y="1245.0" type="line" smooth="yes"/>
      <point x="243.330078125" y="1389.0"/>
      <point x="257.330078125" y="1400.0"/>
      <point x="401.330078125" y="1400.0" type="curve" smooth="yes"/>
      <point x="494.01953125" y="1400.0" type="line" smooth="yes"/>
      <point x="694.979492188" y="1400.0"/>
      <point x="773.979492188" y="1285.0"/>
      <point x="705.979492188" y="992.0" type="curve" smooth="yes"/>
      <point x="570.979492188" y="409.0" type="line" smooth="yes"/>
      <point x="502.979492188" y="116.0"/>
      <point x="391.979492188" y="0.0"/>
    </contour>
    <contour>
      <point x="229.087890625" y="175.0" type="line" smooth="yes"/>
      <point x="257.966796875" y="175.0"/>
      <point x="277.979492188" y="220.0"/>
      <point x="319.979492188" y="404.0" type="curve" smooth="yes"/>
      <point x="456.979492188" y="996.0" type="line" smooth="yes"/>
      <point x="498.994140625" y="1180.0"/>
      <point x="500.91015625" y="1225.0"/>
      <point x="472.029296875" y="1225.0" type="curve" smooth="yes"/>
      <point x="451.272460938" y="1225.0" type="line"/>
      <point x="208.330078125" y="175.0" type="line"/>
    </contour>
  </outline>
</glyph>
<glyph name="E" format="2">
  <advance height="960" width="429"/>
  <unicode hex="0045"/>
  <anchor x="172.0" y="0.0" name="bottom"/>
  <anchor x="230.0" y="0.0" name="ogonek"/>
  <anchor x="495.0" y="1400.0" name="top"/>
  <outline>
    <contour>
      <point x="346.330078125" y="770.0" type="line"/>
      <point x="361.330078125" y="770.0" type="line" smooth="yes"/>
      <point x="435.330078125" y="770.0"/>
      <point x="447.330078125" y="754.0"/>
      <point x="437.330078125" y="710.0" type="curve" smooth="yes"/>
      <point x="436.330078125" y="705.0" type="line" smooth="yes"/>
      <point x="426.330078125" y="661.0"/>
      <point x="406.330078125" y="645.0"/>
      <point x="332.330078125" y="645.0" type="curve" smooth="yes"/>
      <point x="317.330078125" y="645.0" type="line"/>
      <point x="208.330078125" y="175.0" type="line"/>
      <point x="263.330078125" y="175.0" type="line" smooth="yes"/>
      <point x="337.330078125" y="175.0"/>
      <point x="381.330078125" y="164.0"/>
      <point x="364.330078125" y="90.0" type="curve" smooth="yes"/>
      <point x="363.330078125" y="85.0" type="line" smooth="yes"/>
      <point x="346.330078125" y="11.0"/>
      <point x="297.330078125" y="0.0"/>
      <point x="223.330078125" y="0.0" type="curve" smooth="yes"/>
      <point x="78.330078125" y="0.0" type="line" smooth="yes"/>
      <point x="-65.669921875" y="0.0"/>
      <point x="-73.669921875" y="11.0"/>
      <point x="-40.669921875" y="155.0" type="curve" smooth="yes"/>
      <point x="210.330078125" y="1245.0" type="line" smooth="yes"/>
      <point x="243.330078125" y="1389.0"/>
      <point x="257.330078125" y="1400.0"/>
      <point x="401.330078125" y="1400.0" type="curve" smooth="yes"/>
      <point x="536.330078125" y="1400.0" type="line" smooth="yes"/>
      <point x="610.330078125" y="1400.0"/>
      <point x="654.330078125" y="1389.0"/>
      <point x="637.330078125" y="1315.0" type="curve" smooth="yes"/>
      <point x="635.330078125" y="1310.0" type="line" smooth="yes"/>
      <point x="618.330078125" y="1236.0"/>
      <point x="570.330078125" y="1225.0"/>
      <point x="496.330078125" y="1225.0" type="curve" smooth="yes"/>
      <point x="451.330078125" y="1225.0" type="line"/>
    </contour>
  </outline>
</glyph>
<glyph name="F" format="2">
  <advance height="960" width="424"/>
  <unicode hex="0046"/>
  <anchor x="152.0" y="0.0" name="bottom"/>
  <anchor x="475.0" y="1400.0" name="top"/>
  <outline>
    <contour>
      <point x="347.330078125" y="775.0" type="line"/>
      <point x="357.330078125" y="775.0" type="line" smooth="yes"/>
      <point x="431.330078125" y="775.0"/>
      <point x="454.330078125" y="764.0"/>
      <point x="444.330078125" y="720.0" type="curve" smooth="yes"/>
      <point x="441.330078125" y="705.0" type="line" smooth="yes"/>
      <point x="431.330078125" y="661.0"/>
      <point x="402.330078125" y="650.0"/>
      <point x="328.330078125" y="650.0" type="curve" smooth="yes"/>
      <point x="318.330078125" y="650.0" type="line"/>
      <point x="192.330078125" y="105.0" type="line" smooth="yes"/>
      <point x="173.330078125" y="21.0"/>
      <point x="129.330078125" y="-15.0"/>
      <point x="45.330078125" y="-15.0" type="curve" smooth="yes"/>
      <point x="40.330078125" y="-15.0" type="line" smooth="yes"/>
      <point x="-43.669921875" y="-15.0"/>
      <point x="-71.669921875" y="21.0"/>
      <point x="-52.669921875" y="105.0" type="curve" smooth="yes"/>
      <point x="210.330078125" y="1245.0" type="line" smooth="yes"/>
      <point x="243.330078125" y="1389.0"/>
      <point x="257.330078125" y="1400.0"/>
      <point x="401.330078125" y="1400.0" type="curve" smooth="yes"/>
      <point x="541.330078125" y="1400.0" type="line" smooth="yes"/>
      <point x="615.330078125" y="1400.0"/>
      <point x="659.330078125" y="1389.0"/>
      <point x="642.330078125" y="1315.0" type="curve" smooth="yes"/>
      <point x="640.330078125" y="1310.0" type="line" smooth="yes"/>
      <point x="623.330078125" y="1236.0"/>
      <point x="575.330078125" y="1225.0"/>
      <point x="501.330078125" y="1225.0" type="curve" smooth="yes"/>
      <point x="451.330078125" y="1225.0" type="line"/>
    </contour>
  </outline>
</glyph>
<glyph name="G" format="2">
  <advance height="960" width="561"/>
  <unicode hex="0047"/>
  <anchor x="202.0" y="0.0" name="bottom"/>
  <anchor x="485.0" y="1400.0" name="top"/>
  <outline>
    <contour>
      <point x="329.333984375" y="637.0" type="curve" smooth="yes"/>
      <point x="330.303710938" y="640.0" type="line" smooth="yes"/>
      <point x="340.319335938" y="684.0"/>
      <point x="367.754882812" y="700.0"/>
      <point x="410.909179688" y="700.0" type="curve" smooth="yes"/>
      <point x="460.909179688" y="700.0" type="line" smooth="yes"/>
      <point x="604.909179688" y="700.0"/>
      <point x="612.909179688" y="689.0"/>
      <point x="576.696289062" y="545.0" type="curve" smooth="yes"/>
      <point x="474.696289062" y="105.0" type="line" smooth="yes"/>
      <point x="452.696289062" y="11.0"/>
      <point x="431.696289062" y="-15.0"/>
      <point x="387.696289062" y="-15.0" type="curve" smooth="yes"/>
      <point x="382.696289062" y="-15.0" type="line" smooth="yes"/>
      <point x="338.696289062" y="-15.0"/>
      <point x="326.696289062" y="13.0"/>
      <point x="334.696289062" y="105.0" type="curve" smooth="yes"/>
      <point x="350.696289062" y="280.0" type="line"/>
      <point x="485.696289062" y="630.0" type="line"/>
      <point x="386.696289062" y="245.0"/>
      <point x="322.696289062" y="-18.0"/>
      <point x="117.303710938" y="-18.0" type="curve" smooth="yes"/>
      <point x="-50.6962890625" y="-18.0"/>
      <point x="-58.6962890625" y="119.0"/>
      <point x="8.3037109375" y="409.0" type="curve" smooth="yes"/>
      <point x="143.303710938" y="992.0" type="line" smooth="yes"/>
      <point x="210.303710938" y="1282.0"/>
      <point x="284.303710938" y="1418.0"/>
      <point x="497.631835938" y="1418.0" type="curve" smooth="yes"/>
      <point x="678.909179688" y="1418.0"/>
      <point x="713.909179688" y="1296.0"/>
      <point x="667.909179688" y="1094.0" type="curve" smooth="yes"/>
      <point x="656.909179688" y="1043.0"/>
      <point x="651.909179688" y="1008.0"/>
      <point x="639.909179688" y="957.0" type="curve" smooth="yes"/>
      <point x="622.909179688" y="883.0"/>
      <point x="578.909179688" y="848.0"/>
      <point x="514.909179688" y="848.0" type="curve" smooth="yes"/>
      <point x="509.909179688" y="848.0" type="line" smooth="yes"/>
      <point x="445.909179688" y="848.0"/>
      <point x="417.909179688" y="883.0"/>
      <point x="434.909179688" y="957.0" type="curve" smooth="yes"/>
      <point x="488.099609375" y="1195.0"/>
      <point x="500.909179688" y="1228.0"/>
      <point x="470.791992188" y="1228.0" type="curve" smooth="yes"/>
      <point x="450.034179688" y="1228.0"/>
      <point x="437.244140625" y="1181.0"/>
      <point x="394.272460938" y="996.0" type="curve" smooth="yes"/>
      <point x="257.303710938" y="404.0" type="line" smooth="yes"/>
      <point x="215.303710938" y="224.0"/>
      <point x="206.956054688" y="172.0"/>
      <point x="241.251953125" y="172.0" type="curve" smooth="yes"/>
      <point x="271.034179688" y="172.0"/>
      <point x="289.509765625" y="231.0"/>
      <point x="388.696289062" y="628.0" type="curve"/>
      <point x="437.696289062" y="578.0" type="line"/>
      <point x="378.696289062" y="578.0" type="line" smooth="yes"/>
      <point x="339.73828125" y="578.0"/>
      <point x="319.318359375" y="593.0"/>
    </contour>
  </outline>
</glyph>
<glyph name="H" format="2">
  <advance height="960" width="589"/>
  <unicode hex="0048"/>
  <anchor x="182.0" y="0.0" name="bottom"/>
  <anchor x="505.0" y="1400.0" name="top"/>
  <outline>
    <contour>
      <point x="660.454101562" y="1415.0" type="curve" smooth="yes"/>
      <point x="665.454101562" y="1415.0" type="line" smooth="yes"/>
      <point x="739.454101562" y="1415.0"/>
      <point x="778.454101562" y="1389.0"/>
      <point x="745.454101562" y="1245.0" type="curve" smooth="yes"/>
      <point x="494.454101562" y="155.0" type="line" smooth="yes"/>
      <point x="461.454101562" y="11.0"/>
      <point x="409.454101562" y="-15.0"/>
      <point x="335.454101562" y="-15.0" type="curve" smooth="yes"/>
      <point x="330.454101562" y="-15.0" type="line" smooth="yes"/>
      <point x="256.454101562" y="-15.0"/>
      <point x="216.454101562" y="11.0"/>
      <point x="249.454101562" y="155.0" type="curve" smooth="yes"/>
      <point x="356.489257812" y="620.0" type="line"/>
      <point x="311.329101562" y="620.0" type="line"/>
      <point x="204.329101562" y="155.0" type="line" smooth="yes"/>
      <point x="171.305664062" y="11.0"/>
      <point x="119.329101562" y="-15.0"/>
      <point x="45.3291015625" y="-15.0" type="curve" smooth="yes"/>
      <point x="40.3291015625" y="-15.0" type="line" smooth="yes"/>
      <point x="-33.6708984375" y="-15.0"/>
      <point x="-73.6708984375" y="11.0"/>
      <point x="-40.6708984375" y="155.0" type="curve" smooth="yes"/>
      <point x="210.329101562" y="1245.0" type="line" smooth="yes"/>
      <point x="243.329101562" y="1389.0"/>
      <point x="296.329101562" y="1415.0"/>
      <point x="370.329101562" y="1415.0" type="curve" smooth="yes"/>
      <point x="375.329101562" y="1415.0" type="line" smooth="yes"/>
      <point x="449.329101562" y="1415.0"/>
      <point x="488.329101562" y="1389.0"/>
      <point x="455.329101562" y="1245.0" type="curve" smooth="yes"/>
      <point x="352.305664062" y="795.0" type="line"/>
      <point x="397.454101562" y="795.0" type="line"/>
      <point x="500.517578125" y="1245.0" type="line" smooth="yes"/>
      <point x="533.541992188" y="1389.0"/>
      <point x="586.454101562" y="1415.0"/>
    </contour>
  </outline>
</glyph>
<glyph name="I" format="2">
  <advance height="960" width="299"/>
  <unicode hex="0049"/>
  <anchor x="40.0" y="0.0" name="bottom"/>
  <anchor x="40.0" y="0.0" name="ogonek"/>
  <anchor x="363.0" y="1400.0" name="top"/>
  <outline>
    <contour>
      <point x="370.329101562" y="1415.0" type="curve" smooth="yes"/>
      <point x="375.329101562" y="1415.0" type="line" smooth="yes"/>
      <point x="449.329101562" y="1415.0"/>
      <point x="488.329101562" y="1389.0"/>
      <point x="455.329101562" y="1245.0" type="curve" smooth="yes"/>
      <point x="204.329101562" y="155.0" type="line" smooth="yes"/>
      <point x="171.329101562" y="11.0"/>
      <point x="119.329101562" y="-15.0"/>
      <point x="45.3291015625" y="-15.0" type="curve" smooth="yes"/>
      <point x="40.3291015625" y="-15.0" type="line" smooth="yes"/>
      <point x="-33.6708984375" y="-15.0"/>
      <point x="-73.6708984375" y="11.0"/>
      <point x="-40.6708984375" y="155.0" type="curve" smooth="yes"/>
      <point x="210.329101562" y="1245.0" type="line" smooth="yes"/>
      <point x="243.329101562" y="1389.0"/>
      <point x="296.329101562" y="1415.0"/>
    </contour>
  </outline>
</glyph>
<glyph name="J" format="2">
  <advance height="960" width="510"/>
  <unicode hex="004A"/>
  <anchor x="118.0" y="0.0" name="bottom"/>
  <anchor x="591.0" y="1400.0" name="top"/>
  <outline>
    <contour>
      <point x="565.475585938" y="1415.0" type="curve" smooth="yes"/>
      <point x="575.475585938" y="1415.0" type="line" smooth="yes"/>
      <point x="649.475585938" y="1415.0"/>
      <point x="688.475585938" y="1389.0"/>
      <point x="655.475585938" y="1245.0" type="curve" smooth="yes"/>
      <point x="430.475585938" y="269.0" type="line" smooth="yes"/>
      <point x="385.475585938" y="76.0"/>
      <point x="320.475585938" y="-18.0"/>
      <point x="117.475585938" y="-18.0" type="curve" smooth="yes"/>
      <point x="-58.4892578125" y="-18.0"/>
      <point x="-86.4892578125" y="77.0"/>
      <point x="-49.4892578125" y="239.0" type="curve" smooth="yes"/>
      <point x="28.5107421875" y="577.0" type="line" smooth="yes"/>
      <point x="45.5107421875" y="651.0"/>
      <point x="88.5107421875" y="678.0"/>
      <point x="142.510742188" y="678.0" type="curve" smooth="yes"/>
      <point x="147.510742188" y="678.0" type="line" smooth="yes"/>
      <point x="201.510742188" y="678.0"/>
      <point x="230.508789062" y="651.0"/>
      <point x="213.504882812" y="577.0" type="curve" smooth="yes"/>
      <point x="136.510742188" y="244.0" type="line" smooth="yes"/>
      <point x="123.510742188" y="188.0"/>
      <point x="121.314453125" y="162.0"/>
      <point x="137.463867188" y="162.0" type="curve" smooth="yes"/>
      <point x="153.614257812" y="162.0"/>
      <point x="161.475585938" y="184.0"/>
      <point x="177.475585938" y="254.0" type="curve" smooth="yes"/>
      <point x="405.515625" y="1245.0" type="line" smooth="yes"/>
      <point x="438.52734375" y="1389.0"/>
      <point x="491.475585938" y="1415.0"/>
    </contour>
  </outline>
</glyph>
<glyph name="K" format="2">
  <advance height="960" width="610"/>
  <unicode hex="004B"/>
  <anchor x="202.0" y="0.0" name="bottom"/>
  <anchor x="525.0" y="1400.0" name="top"/>
  <outline>
    <contour>
      <point x="370.329101562" y="1415.0" type="curve" smooth="yes"/>
      <point x="375.329101562" y="1415.0" type="line" smooth="yes"/>
      <point x="449.329101562" y="1415.0"/>
      <point x="488.329101562" y="1389.0"/>
      <point x="455.329101562" y="1245.0" type="curve" smooth="yes"/>
      <point x="204.329101562" y="155.0" type="line" smooth="yes"/>
      <point x="171.305664062" y="11.0"/>
      <point x="119.329101562" y="-15.0"/>
      <point x="45.3291015625" y="-15.0" type="curve" smooth="yes"/>
      <point x="40.3291015625" y="-15.0" type="line" smooth="yes"/>
      <point x="-33.6708984375" y="-15.0"/>
      <point x="-73.6708984375" y="11.0"/>
      <point x="-40.6708984375" y="155.0" type="curve" smooth="yes"/>
      <point x="210.329101562" y="1245.0" type="line" smooth="yes"/>
      <point x="243.329101562" y="1389.0"/>
      <point x="296.329101562" y="1415.0"/>
    </contour>
    <contour>
      <point x="349.329101562" y="785.0" type="line"/>
      <point x="539.944335938" y="890.0" type="line"/>
      <point x="545.944335938" y="155.0" type="line" smooth="yes"/>
      <point x="546.944335938" y="36.0"/>
      <point x="488.944335938" y="-15.0"/>
      <point x="396.944335938" y="-15.0" type="curve" smooth="yes"/>
      <point x="391.944335938" y="-15.0" type="line" smooth="yes"/>
      <point x="316.944335938" y="-15.0"/>
      <point x="269.944335938" y="25.0"/>
      <point x="281.944335938" y="155.0" type="curve" smooth="yes"/>
    </contour>
    <contour>
      <point x="558.944335938" y="1245.0" type="line" smooth="yes"/>
      <point x="630.944335938" y="1376.0"/>
      <point x="661.944335938" y="1415.0"/>
      <point x="736.944335938" y="1415.0" type="curve" smooth="yes"/>
      <point x="739.944335938" y="1415.0" type="line" smooth="yes"/>
      <point x="811.944335938" y="1415.0"/>
      <point x="842.944335938" y="1372.0"/>
      <point x="766.944335938" y="1245.0" type="curve" smooth="yes"/>
      <point x="452.944335938" y="720.0" type="line"/>
      <point x="405.892578125" y="770.0" type="line"/>
      <point x="262.329101562" y="450.0" type="line"/>
      <point x="160.329101562" y="505.0" type="line"/>
    </contour>
  </outline>
</glyph>
<glyph name="L" format="2">
  <advance height="960" width="455"/>
  <unicode hex="004C"/>
  <anchor x="152.0" y="0.0" name="bottom"/>
  <anchor x="345.0" y="1400.0" name="top"/>
  <outline>
    <contour>
      <point x="370.329101562" y="1415.0" type="curve" smooth="yes"/>
      <point x="375.329101562" y="1415.0" type="line" smooth="yes"/>
      <point x="449.329101562" y="1415.0"/>
      <point x="488.329101562" y="1389.0"/>
      <point x="455.329101562" y="1245.0" type="curve" smooth="yes"/>
      <point x="208.329101562" y="175.0" type="line"/>
      <point x="283.329101562" y="175.0" type="line" smooth="yes"/>
      <point x="357.329101562" y="175.0"/>
      <point x="399.329101562" y="154.0"/>
      <point x="384.329101562" y="90.0" type="curve" smooth="yes"/>
      <point x="383.329101562" y="85.0" type="line" smooth="yes"/>
      <point x="366.329101562" y="11.0"/>
      <point x="317.329101562" y="0.0"/>
      <point x="243.329101562" y="0.0" type="curve" smooth="yes"/>
      <point x="78.3291015625" y="0.0" type="line" smooth="yes"/>
      <point x="-65.6708984375" y="0.0"/>
      <point x="-73.6708984375" y="11.0"/>
      <point x="-40.6708984375" y="155.0" type="curve" smooth="yes"/>
      <point x="210.329101562" y="1245.0" type="line" smooth="yes"/>
      <point x="243.329101562" y="1389.0"/>
      <point x="296.329101562" y="1415.0"/>
    </contour>
  </outline>
</glyph>
<glyph name="M" format="2">
  <advance height="960" width="770"/>
  <unicode hex="004D"/>
  <anchor x="252.0" y="0.0" name="bottom"/>
  <anchor x="585.0" y="1400.0" name="top"/>
  <outline>
    <contour>
      <point x="346.3046875" y="1115.0" type="line"/>
      <point x="125.3046875" y="155.0" type="line" smooth="yes"/>
      <point x="92.28125" y="11.0"/>
      <point x="65.3046875" y="-15.0"/>
      <point x="1.3046875" y="-15.0" type="curve" smooth="yes"/>
      <point x="-3.6953125" y="-15.0" type="line" smooth="yes"/>
      <point x="-67.6953125" y="-15.0"/>
      <point x="-82.6953125" y="11.0"/>
      <point x="-49.6953125" y="155.0" type="curve" smooth="yes"/>
      <point x="201.3046875" y="1245.0" type="line" smooth="yes"/>
      <point x="234.3046875" y="1389.0"/>
      <point x="271.3046875" y="1415.0"/>
      <point x="395.3046875" y="1415.0" type="curve" smooth="yes"/>
      <point x="397.3046875" y="1415.0" type="line" smooth="yes"/>
      <point x="511.056640625" y="1415.0"/>
      <point x="533.9140625" y="1388.0"/>
      <point x="512.645507812" y="1245.0" type="curve" smooth="yes"/>
      <point x="423.306640625" y="644.0" type="line"/>
      <point x="614.626953125" y="1245.0" type="line" smooth="yes"/>
      <point x="660.263671875" y="1388.0"/>
      <point x="692.459960938" y="1415.0"/>
      <point x="812.1796875" y="1415.0" type="curve" smooth="yes"/>
      <point x="817.1796875" y="1415.0" type="line" smooth="yes"/>
      <point x="941.1796875" y="1415.0"/>
      <point x="960.1796875" y="1389.0"/>
      <point x="927.1796875" y="1245.0" type="curve" smooth="yes"/>
      <point x="676.1796875" y="155.0" type="line" smooth="yes"/>
      <point x="643.1796875" y="11.0"/>
      <point x="596.1796875" y="-15.0"/>
      <point x="522.1796875" y="-15.0" type="curve" smooth="yes"/>
      <point x="517.1796875" y="-15.0" type="line" smooth="yes"/>
      <point x="443.1796875" y="-15.0"/>
      <point x="408.1796875" y="11.0"/>
      <point x="441.1796875" y="155.0" type="curve" smooth="yes"/>
      <point x="662.2421875" y="1115.0" type="line"/>
      <point x="358.150390625" y="155.0" type="line" smooth="yes"/>
      <point x="309.581054688" y="2.0"/>
      <point x="285.732421875" y="-15.0"/>
      <point x="246.0234375" y="-15.0" type="curve" smooth="yes"/>
      <point x="236.998046875" y="-15.0" type="line" smooth="yes"/>
      <point x="197.288085938" y="-15.0"/>
      <point x="181.42578125" y="2.0"/>
      <point x="203.822265625" y="155.0" type="curve" smooth="yes"/>
    </contour>
  </outline>
</glyph>
<glyph name="N" format="2">
  <advance height="960" width="562"/>
  <unicode hex="004E"/>
  <anchor x="172.0" y="0.0" name="bottom"/>
  <anchor x="500.0" y="1400.0" name="top"/>
  <outline>
    <contour>
      <point x="673.998046875" y="1415.0" type="curve" smooth="yes"/>
      <point x="678.998046875" y="1415.0" type="line" smooth="yes"/>
      <point x="742.998046875" y="1415.0"/>
      <point x="761.998046875" y="1389.0"/>
      <point x="735.998046875" y="1275.0" type="curve" smooth="yes"/>
      <point x="469.013671875" y="125.0" type="line" smooth="yes"/>
      <point x="443.013671875" y="11.0"/>
      <point x="401.013671875" y="-15.0"/>
      <point x="347.013671875" y="-15.0" type="curve" smooth="yes"/>
      <point x="342.013671875" y="-15.0" type="line" smooth="yes"/>
      <point x="288.013671875" y="-15.0"/>
      <point x="262.013671875" y="17.0"/>
      <point x="260.013671875" y="125.0" type="curve" smooth="yes"/>
      <point x="263.249023438" y="796.0" type="line"/>
      <point x="283.244140625" y="796.0" type="line"/>
      <point x="128.249023438" y="125.0" type="line" smooth="yes"/>
      <point x="102.216796875" y="11.0"/>
      <point x="60.2490234375" y="-15.0"/>
      <point x="6.2490234375" y="-15.0" type="curve" smooth="yes"/>
      <point x="1.2490234375" y="-15.0" type="line" smooth="yes"/>
      <point x="-52.7509765625" y="-15.0"/>
      <point x="-82.7509765625" y="11.0"/>
      <point x="-56.7509765625" y="125.0" type="curve" smooth="yes"/>
      <point x="211.249023438" y="1285.0" type="line" smooth="yes"/>
      <point x="235.249023438" y="1389.0"/>
      <point x="277.249023438" y="1415.0"/>
      <point x="351.249023438" y="1415.0" type="curve" smooth="yes"/>
      <point x="356.249023438" y="1415.0" type="line" smooth="yes"/>
      <point x="430.040039062" y="1415.0"/>
      <point x="461.889648438" y="1376.0"/>
      <point x="456.923828125" y="1275.0" type="curve" smooth="yes"/>
      <point x="420.013671875" y="629.0" type="line"/>
      <point x="400.013671875" y="629.0" type="line"/>
      <point x="550.998046875" y="1275.0" type="line" smooth="yes"/>
      <point x="577.013671875" y="1389.0"/>
      <point x="609.998046875" y="1415.0"/>
    </contour>
  </outline>
</glyph>
<glyph name="P" format="2">
  <advance height="960" width="554"/>
  <unicode hex="0050"/>
  <anchor x="18.0" y="0.0" name="bottom"/>
  <anchor x="525.0" y="1400.0" name="top"/>
  <outline>
    <contour>
      <point x="451.330078125" y="1225.0" type="line"/>
      <point x="335.330078125" y="725.0" type="line"/>
      <point x="344.413085938" y="725.0" type="line" smooth="yes"/>
      <point x="378.708007812" y="725.0"/>
      <point x="393.7265625" y="749.0"/>
      <point x="403.7265625" y="794.0" type="curve" smooth="yes"/>
      <point x="487.7265625" y="1156.0" type="line" smooth="yes"/>
      <point x="497.7265625" y="1201.0"/>
      <point x="494.65234375" y="1225.0"/>
      <point x="460.358398438" y="1225.0" type="curve" smooth="yes"/>
    </contour>
    <contour>
      <point x="491.330078125" y="1400.0" type="line" smooth="yes"/>
      <point x="668.7265625" y="1400.0"/>
      <point x="736.7265625" y="1326.0"/>
      <point x="693.7265625" y="1141.0" type="curve" smooth="yes"/>
      <point x="628.7265625" y="859.0" type="line" smooth="yes"/>
      <point x="585.7265625" y="674.0"/>
      <point x="485.7265625" y="600.0"/>
      <point x="343.404296875" y="600.0" type="curve" smooth="yes"/>
      <point x="307.3046875" y="600.0" type="line"/>
      <point x="204.330078125" y="155.0" type="line" smooth="yes"/>
      <point x="171.306640625" y="11.0"/>
      <point x="129.330078125" y="-15.0"/>
      <point x="45.330078125" y="-15.0" type="curve" smooth="yes"/>
      <point x="40.330078125" y="-15.0" type="line" smooth="yes"/>
      <point x="-43.669921875" y="-15.0"/>
      <point x="-73.669921875" y="11.0"/>
      <point x="-40.669921875" y="155.0" type="curve" smooth="yes"/>
      <point x="210.330078125" y="1245.0" type="line" smooth="yes"/>
      <point x="243.330078125" y="1389.0"/>
      <point x="257.330078125" y="1400.0"/>
      <point x="401.330078125" y="1400.0" type="curve" smooth="yes"/>
    </contour>
  </outline>
</glyph>
<glyph name="Q" format="2">
  <advance height="960" width="649"/>
  <unicode hex="0051"/>
  <anchor x="192.0" y="0.0" name="bottom"/>
  <anchor x="515.0" y="1400.0" name="top"/>
  <outline>
    <contour>
      <point x="589.967773438" y="110.0" type="curve" smooth="yes"/>
      <point x="588.967773438" y="105.0" type="line" smooth="yes"/>
      <point x="569.967773438" y="21.0"/>
      <point x="537.967773438" y="-8.0"/>
      <point x="481.967773438" y="-8.0" type="curve" smooth="yes"/>
      <point x="386.967773438" y="-8.0"/>
      <point x="341.967773438" y="46.0"/>
      <point x="372.967773438" y="179.0" type="curve"/>
      <point x="464.967773438" y="294.0" type="line"/>
      <point x="424.967773438" y="119.0"/>
      <point x="337.967773438" y="-18.0"/>
      <point x="157.280273438" y="-18.0" type="curve" smooth="yes"/>
      <point x="-50.7197265625" y="-18.0"/>
      <point x="-55.7197265625" y="129.0"/>
      <point x="-15.7197265625" y="304.0" type="curve" smooth="yes"/>
      <point x="167.280273438" y="1096.0" type="line" smooth="yes"/>
      <point x="207.280273438" y="1271.0"/>
      <point x="284.280273438" y="1418.0"/>
      <point x="524.71484375" y="1418.0" type="curve" smooth="yes"/>
      <point x="764.967773438" y="1418.0"/>
      <point x="774.967773438" y="1271.0"/>
      <point x="734.967773438" y="1096.0" type="curve" smooth="yes"/>
      <point x="548.967773438" y="289.0" type="line" smooth="yes"/>
      <point x="535.967773438" y="232.0"/>
      <point x="549.967773438" y="219.0"/>
      <point x="562.967773438" y="213.0" type="curve" smooth="yes"/>
      <point x="585.967773438" y="202.0"/>
      <point x="606.967773438" y="183.0"/>
    </contour>
    <contour>
      <point x="292.967773438" y="264.0" type="curve" smooth="yes"/>
      <point x="493.999023438" y="1136.0" type="line" smooth="yes"/>
      <point x="508.999023438" y="1201.0"/>
      <point x="516.375" y="1248.0"/>
      <point x="485.689453125" y="1248.0" type="curve" smooth="yes"/>
      <point x="455.004882812" y="1248.0"/>
      <point x="441.280273438" y="1201.0"/>
      <point x="426.280273438" y="1136.0" type="curve" smooth="yes"/>
      <point x="225.280273438" y="264.0" type="line" smooth="yes"/>
      <point x="209.264648438" y="194.0"/>
      <point x="202.001953125" y="152.0"/>
      <point x="232.686523438" y="152.0" type="curve" smooth="yes"/>
      <point x="263.372070312" y="152.0"/>
      <point x="276.967773438" y="194.0"/>
    </contour>
  </outline>
</glyph>
<glyph name="R" format="2">
  <advance height="960" width="611"/>
  <unicode hex="0052"/>
  <anchor x="202.0" y="0.0" name="bottom"/>
  <anchor x="525.0" y="1400.0" name="top"/>
  <outline>
    <contour>
      <point x="451.30859375" y="1225.0" type="line"/>
      <point x="334.330078125" y="720.0" type="line"/>
      <point x="352.401367188" y="720.0" type="line" smooth="yes"/>
      <point x="383.0859375" y="720.0"/>
      <point x="394.661132812" y="751.0"/>
      <point x="404.661132812" y="796.0" type="curve" smooth="yes"/>
      <point x="485.677734375" y="1148.0" type="line" smooth="yes"/>
      <point x="494.701171875" y="1188.0"/>
      <point x="500.045898438" y="1225.0"/>
      <point x="469.361328125" y="1225.0" type="curve" smooth="yes"/>
    </contour>
    <contour>
      <point x="518.424804688" y="1400.0" type="line" smooth="yes"/>
      <point x="748.661132812" y="1400.0"/>
      <point x="769.661132812" y="1296.0"/>
      <point x="733.661132812" y="1141.0" type="curve" smooth="yes"/>
      <point x="673.661132812" y="879.0" type="line" smooth="yes"/>
      <point x="634.661132812" y="709.0"/>
      <point x="504.661132812" y="640.0"/>
      <point x="343.379882812" y="640.0" type="curve"/>
      <point x="350.373046875" y="670.0" type="line"/>
      <point x="525.661132812" y="670.0"/>
      <point x="625.661132812" y="656.0"/>
      <point x="582.661132812" y="466.0" type="curve" smooth="yes"/>
      <point x="516.661132812" y="179.0" type="line" smooth="yes"/>
      <point x="510.661132812" y="152.0"/>
      <point x="512.661132812" y="130.0"/>
      <point x="513.661132812" y="114.0" type="curve" smooth="yes"/>
      <point x="514.661132812" y="101.0"/>
      <point x="517.661132812" y="78.0"/>
      <point x="511.661132812" y="52.0" type="curve" smooth="yes"/>
      <point x="510.661132812" y="49.0" type="line" smooth="yes"/>
      <point x="500.661132812" y="6.0"/>
      <point x="468.661132812" y="-15.0"/>
      <point x="394.661132812" y="-15.0" type="curve" smooth="yes"/>
      <point x="379.661132812" y="-15.0" type="line" smooth="yes"/>
      <point x="303.661132812" y="-15.0"/>
      <point x="255.661132812" y="1.0"/>
      <point x="251.661132812" y="70.0" type="curve" smooth="yes"/>
      <point x="249.661132812" y="97.0"/>
      <point x="248.661132812" y="120.0"/>
      <point x="258.661132812" y="164.0" type="curve" smooth="yes"/>
      <point x="344.661132812" y="536.0" type="line" smooth="yes"/>
      <point x="353.671875" y="576.0"/>
      <point x="344.171875" y="595.0"/>
      <point x="318.90234375" y="595.0" type="curve" smooth="yes"/>
      <point x="305.330078125" y="595.0" type="line"/>
      <point x="204.307617188" y="155.0" type="line" smooth="yes"/>
      <point x="171.284179688" y="11.0"/>
      <point x="119.330078125" y="-15.0"/>
      <point x="45.330078125" y="-15.0" type="curve" smooth="yes"/>
      <point x="40.330078125" y="-15.0" type="line" smooth="yes"/>
      <point x="-33.669921875" y="-15.0"/>
      <point x="-73.669921875" y="11.0"/>
      <point x="-40.669921875" y="155.0" type="curve" smooth="yes"/>
      <point x="210.330078125" y="1245.0" type="line" smooth="yes"/>
      <point x="243.330078125" y="1389.0"/>
      <point x="257.330078125" y="1400.0"/>
      <point x="401.330078125" y="1400.0" type="curve" smooth="yes"/>
    </contour>
  </outline>
</glyph>
<glyph name="S" format="2">
  <advance height="960" width="472"/>
  <unicode hex="0053"/>
  <anchor x="122.0" y="0.0" name="bottom"/>
  <anchor x="404.0" y="1400.0" name="top"/>
  <outline>
    <contour>
      <point x="118.27734375" y="539.0" type="curve" smooth="yes"/>
      <point x="124.27734375" y="539.0" type="line" smooth="yes"/>
      <point x="185.27734375" y="539.0"/>
      <point x="208.264648438" y="514.0"/>
      <point x="186.27734375" y="420.0" type="curve" smooth="yes"/>
      <point x="170.27734375" y="352.0"/>
      <point x="175.27734375" y="372.0"/>
      <point x="155.27734375" y="285.0" type="curve" smooth="yes"/>
      <point x="135.27734375" y="200.0"/>
      <point x="133.78125" y="172.0"/>
      <point x="150.928710938" y="172.0" type="curve" smooth="yes"/>
      <point x="172.588867188" y="172.0"/>
      <point x="182.469726562" y="208.0"/>
      <point x="206.469726562" y="314.0" type="curve" smooth="yes"/>
      <point x="241.478515625" y="466.0"/>
      <point x="216.27734375" y="558.0"/>
      <point x="187.27734375" y="645.0" type="curve" smooth="yes"/>
      <point x="151.27734375" y="754.0"/>
      <point x="107.27734375" y="869.0"/>
      <point x="164.27734375" y="1116.0" type="curve" smooth="yes"/>
      <point x="211.27734375" y="1321.0"/>
      <point x="306.27734375" y="1418.0"/>
      <point x="472.27734375" y="1418.0" type="curve" smooth="yes"/>
      <point x="635.008789062" y="1418.0"/>
      <point x="662.008789062" y="1308.0"/>
      <point x="626.008789062" y="1150.0" type="curve" smooth="yes"/>
      <point x="596.008789062" y="1016.0" type="line" smooth="yes"/>
      <point x="572.008789062" y="912.0"/>
      <point x="533.008789062" y="887.0"/>
      <point x="480.008789062" y="887.0" type="curve" smooth="yes"/>
      <point x="476.008789062" y="887.0" type="line" smooth="yes"/>
      <point x="423.008789062" y="887.0"/>
      <point x="396.008789062" y="912.0"/>
      <point x="420.008789062" y="1016.0" type="curve" smooth="yes"/>
      <point x="442.008789062" y="1110.0"/>
      <point x="430.0234375" y="1060.0"/>
      <point x="448.047851562" y="1139.0" type="curve" smooth="yes"/>
      <point x="467.040039062" y="1221.0"/>
      <point x="467.422851562" y="1238.0"/>
      <point x="452.080078125" y="1238.0" type="curve" smooth="yes"/>
      <point x="437.640625" y="1238.0"/>
      <point x="425.27734375" y="1211.0"/>
      <point x="407.27734375" y="1132.0" type="curve" smooth="yes"/>
      <point x="365.27734375" y="952.0"/>
      <point x="397.008789062" y="839.0"/>
      <point x="430.008789062" y="753.0" type="curve" smooth="yes"/>
      <point x="469.008789062" y="653.0"/>
      <point x="501.469726562" y="552.0"/>
      <point x="446.469726562" y="314.0" type="curve" smooth="yes"/>
      <point x="393.469726562" y="85.0"/>
      <point x="291.469726562" y="-18.0"/>
      <point x="131.469726562" y="-18.0" type="curve" smooth="yes"/>
      <point x="-27.72265625" y="-18.0"/>
      <point x="-82.72265625" y="52.0"/>
      <point x="-39.72265625" y="240.0" type="curve" smooth="yes"/>
      <point x="2.27734375" y="420.0" type="line" smooth="yes"/>
      <point x="24.27734375" y="514.0"/>
      <point x="57.27734375" y="539.0"/>
    </contour>
  </outline>
</glyph>
<glyph name="T" format="2">
  <advance height="960" width="534"/>
  <unicode hex="0054"/>
  <anchor x="133.0" y="0.0" name="bottom"/>
  <anchor x="475.0" y="1400.0" name="top"/>
  <outline>
    <contour>
      <point x="326.205078125" y="1400.0" type="curve" smooth="yes"/>
      <point x="651.205078125" y="1400.0" type="line" smooth="yes"/>
      <point x="739.205078125" y="1400.0"/>
      <point x="769.205078125" y="1369.0"/>
      <point x="757.205078125" y="1315.0" type="curve" smooth="yes"/>
      <point x="755.205078125" y="1310.0" type="line" smooth="yes"/>
      <point x="743.205078125" y="1256.0"/>
      <point x="699.205078125" y="1225.0"/>
      <point x="611.205078125" y="1225.0" type="curve" smooth="yes"/>
      <point x="571.205078125" y="1225.0" type="line"/>
      <point x="315.205078125" y="115.0" type="line" smooth="yes"/>
      <point x="295.205078125" y="27.0"/>
      <point x="239.205078125" y="-15.0"/>
      <point x="165.205078125" y="-15.0" type="curve" smooth="yes"/>
      <point x="160.205078125" y="-15.0" type="line" smooth="yes"/>
      <point x="86.205078125" y="-15.0"/>
      <point x="50.205078125" y="27.0"/>
      <point x="70.205078125" y="115.0" type="curve" smooth="yes"/>
      <point x="326.205078125" y="1225.0" type="line"/>
      <point x="286.205078125" y="1225.0" type="line" smooth="yes"/>
      <point x="198.205078125" y="1225.0"/>
      <point x="168.205078125" y="1256.0"/>
      <point x="180.205078125" y="1310.0" type="curve" smooth="yes"/>
      <point x="182.205078125" y="1315.0" type="line" smooth="yes"/>
      <point x="194.205078125" y="1369.0"/>
      <point x="238.205078125" y="1400.0"/>
    </contour>
  </outline>
</glyph>
<glyph name="U" format="2">
  <advance height="960" width="534"/>
  <unicode hex="0055"/>
  <anchor x="180.0" y="0.0" name="bottom"/>
  <anchor x="228.0" y="0.0" name="ogonek"/>
  <anchor x="503.0" y="1400.0" name="top"/>
  <outline>
    <contour>
      <point x="277.446289062" y="254.0" type="curve" smooth="yes"/>
      <point x="510.486328125" y="1265.0" type="line" smooth="yes"/>
      <point x="534.487304688" y="1369.0"/>
      <point x="571.446289062" y="1415.0"/>
      <point x="635.446289062" y="1415.0" type="curve" smooth="yes"/>
      <point x="640.446289062" y="1415.0" type="line" smooth="yes"/>
      <point x="704.446289062" y="1415.0"/>
      <point x="719.446289062" y="1369.0"/>
      <point x="695.446289062" y="1265.0" type="curve" smooth="yes"/>
      <point x="472.446289062" y="299.0" type="line" smooth="yes"/>
      <point x="435.446289062" y="139.0"/>
      <point x="375.446289062" y="-18.0"/>
      <point x="162.817382812" y="-18.0" type="curve" smooth="yes"/>
      <point x="-71.1826171875" y="-18.0"/>
      <point x="-57.1826171875" y="104.0"/>
      <point x="-13.1826171875" y="294.0" type="curve" smooth="yes"/>
      <point x="205.817382812" y="1245.0" type="line" smooth="yes"/>
      <point x="238.817382812" y="1389.0"/>
      <point x="291.817382812" y="1415.0"/>
      <point x="365.817382812" y="1415.0" type="curve" smooth="yes"/>
      <point x="375.817382812" y="1415.0" type="line" smooth="yes"/>
      <point x="449.817382812" y="1415.0"/>
      <point x="488.817382812" y="1389.0"/>
      <point x="455.817382812" y="1245.0" type="curve" smooth="yes"/>
      <point x="235.817382812" y="289.0" type="line" smooth="yes"/>
      <point x="208.817382812" y="174.0"/>
      <point x="207.462890625" y="152.0"/>
      <point x="228.220703125" y="152.0" type="curve" smooth="yes"/>
      <point x="248.978515625" y="152.0"/>
      <point x="260.446289062" y="179.0"/>
    </contour>
  </outline>
</glyph>
<glyph name="V" format="2">
  <advance height="960" width="536"/>
  <unicode hex="0056"/>
  <anchor x="170.0" y="0.0" name="bottom"/>
  <anchor x="494.0" y="1400.0" name="top"/>
  <outline>
    <contour>
      <point x="251.9921875" y="311.0" type="line"/>
      <point x="539.026367188" y="1275.0" type="line" smooth="yes"/>
      <point x="570.026367188" y="1377.0"/>
      <point x="602.026367188" y="1415.0"/>
      <point x="676.026367188" y="1415.0" type="curve" smooth="yes"/>
      <point x="686.026367188" y="1415.0" type="line" smooth="yes"/>
      <point x="758.026367188" y="1415.0"/>
      <point x="770.026367188" y="1379.0"/>
      <point x="735.026367188" y="1275.0" type="curve" smooth="yes"/>
      <point x="345.026367188" y="125.0" type="line" smooth="yes"/>
      <point x="317.026367188" y="42.0"/>
      <point x="266.026367188" y="-15.0"/>
      <point x="180.575195312" y="-15.0" type="curve" smooth="yes"/>
      <point x="135.04296875" y="-15.0" type="line" smooth="yes"/>
      <point x="42.04296875" y="-15.0"/>
      <point x="15.04296875" y="32.0"/>
      <point x="28.04296875" y="125.0" type="curve" smooth="yes"/>
      <point x="184.04296875" y="1275.0" type="line" smooth="yes"/>
      <point x="198.04296875" y="1375.0"/>
      <point x="252.04296875" y="1415.0"/>
      <point x="327.04296875" y="1415.0" type="curve" smooth="yes"/>
      <point x="337.04296875" y="1415.0" type="line" smooth="yes"/>
      <point x="409.04296875" y="1415.0"/>
      <point x="457.04296875" y="1380.0"/>
      <point x="437.04296875" y="1275.0" type="curve" smooth="yes"/>
    </contour>
  </outline>
</glyph>
<glyph name="W" format="2">
  <advance height="960" width="785"/>
  <unicode hex="0057"/>
  <anchor x="296.0" y="0.0" name="bottom"/>
  <anchor x="639.0" y="1400.0" name="top"/>
  <outline>
    <contour>
      <point x="267.578125" y="495.0" type="line"/>
      <point x="502.866210938" y="1245.0" type="line" smooth="yes"/>
      <point x="548.866210938" y="1387.0"/>
      <point x="589.866210938" y="1415.0"/>
      <point x="643.866210938" y="1415.0" type="curve" smooth="yes"/>
      <point x="648.866210938" y="1415.0" type="line" smooth="yes"/>
      <point x="702.866210938" y="1415.0"/>
      <point x="728.866210938" y="1387.0"/>
      <point x="708.866210938" y="1245.0" type="curve" smooth="yes"/>
      <point x="594.108398438" y="477.0" type="line"/>
      <point x="815.360351562" y="1245.0" type="line" smooth="yes"/>
      <point x="857.360351562" y="1387.0"/>
      <point x="893.360351562" y="1415.0"/>
      <point x="947.360351562" y="1415.0" type="curve" smooth="yes"/>
      <point x="952.360351562" y="1415.0" type="line" smooth="yes"/>
      <point x="1006.36035156" y="1415.0"/>
      <point x="1036.36035156" y="1387.0"/>
      <point x="990.360351562" y="1245.0" type="curve" smooth="yes"/>
      <point x="622.360351562" y="115.0" type="line" smooth="yes"/>
      <point x="588.360351562" y="12.0"/>
      <point x="553.360351562" y="-15.0"/>
      <point x="483.758789062" y="-15.0" type="curve" smooth="yes"/>
      <point x="474.734375" y="-15.0" type="line" smooth="yes"/>
      <point x="407.866210938" y="-15.0"/>
      <point x="365.866210938" y="12.0"/>
      <point x="379.866210938" y="115.0" type="curve" smooth="yes"/>
      <point x="469.866210938" y="765.0" type="line"/>
      <point x="262.866210938" y="115.0" type="line" smooth="yes"/>
      <point x="229.866210938" y="12.0"/>
      <point x="182.99609375" y="-15.0"/>
      <point x="115.712890625" y="-15.0" type="curve" smooth="yes"/>
      <point x="113.712890625" y="-15.0" type="line" smooth="yes"/>
      <point x="39.712890625" y="-15.0"/>
      <point x="2.712890625" y="12.0"/>
      <point x="16.712890625" y="115.0" type="curve" smooth="yes"/>
      <point x="171.712890625" y="1245.0" type="line" smooth="yes"/>
      <point x="189.712890625" y="1377.0"/>
      <point x="246.712890625" y="1415.0"/>
      <point x="320.712890625" y="1415.0" type="curve" smooth="yes"/>
      <point x="328.712890625" y="1415.0" type="line" smooth="yes"/>
      <point x="402.712890625" y="1415.0"/>
      <point x="436.712890625" y="1378.0"/>
      <point x="411.712890625" y="1245.0" type="curve" smooth="yes"/>
    </contour>
  </outline>
</glyph>
<glyph name="X" format="2">
  <advance height="960" width="595"/>
  <unicode hex="0058"/>
  <anchor x="196.0" y="0.0" name="bottom"/>
  <anchor x="519.0" y="1400.0" name="top"/>
  <outline>
    <contour>
      <point x="687.666015625" y="1415.0" type="curve" smooth="yes"/>
      <point x="699.666015625" y="1415.0" type="line" smooth="yes"/>
      <point x="773.666015625" y="1415.0"/>
      <point x="792.666015625" y="1344.0"/>
      <point x="746.666015625" y="1245.0" type="curve" smooth="yes"/>
      <point x="507.666015625" y="732.0" type="line"/>
      <point x="517.203125" y="155.0" type="line" smooth="yes"/>
      <point x="519.203125" y="38.0"/>
      <point x="454.203125" y="-15.0"/>
      <point x="370.203125" y="-15.0" type="curve" smooth="yes"/>
      <point x="360.203125" y="-15.0" type="line" smooth="yes"/>
      <point x="276.203125" y="-15.0"/>
      <point x="234.203125" y="32.0"/>
      <point x="250.203125" y="155.0" type="curve" smooth="yes"/>
      <point x="289.920898438" y="436.0" type="line"/>
      <point x="181.61328125" y="155.0" type="line" smooth="yes"/>
      <point x="132.61328125" y="34.0"/>
      <point x="77.61328125" y="-15.0"/>
      <point x="-6.38671875" y="-15.0" type="curve" smooth="yes"/>
      <point x="-13.38671875" y="-15.0" type="line" smooth="yes"/>
      <point x="-97.38671875" y="-15.0"/>
      <point x="-111.38671875" y="32.0"/>
      <point x="-45.38671875" y="155.0" type="curve" smooth="yes"/>
      <point x="235.61328125" y="680.0" type="line"/>
      <point x="214.61328125" y="1245.0" type="line" smooth="yes"/>
      <point x="210.61328125" y="1343.0"/>
      <point x="281.61328125" y="1415.0"/>
      <point x="355.61328125" y="1415.0" type="curve" smooth="yes"/>
      <point x="365.61328125" y="1415.0" type="line" smooth="yes"/>
      <point x="439.61328125" y="1415.0"/>
      <point x="483.61328125" y="1348.0"/>
      <point x="470.61328125" y="1245.0" type="curve" smooth="yes"/>
      <point x="430.491210938" y="946.0" type="line"/>
      <point x="525.666015625" y="1245.0" type="line" smooth="yes"/>
      <point x="559.666015625" y="1348.0"/>
      <point x="613.666015625" y="1415.0"/>
    </contour>
  </outline>
</glyph>
<glyph name="Y" format="2">
  <advance height="960" width="630"/>
  <unicode hex="0059"/>
  <anchor x="205.0" y="0.0" name="bottom"/>
  <anchor x="543.0" y="1400.0" name="top"/>
  <outline>
    <contour>
      <point x="751.36328125" y="1415.0" type="curve" smooth="yes"/>
      <point x="754.36328125" y="1415.0" type="line" smooth="yes"/>
      <point x="818.36328125" y="1415.0"/>
      <point x="841.36328125" y="1365.0"/>
      <point x="807.36328125" y="1295.0" type="curve" smooth="yes"/>
      <point x="478.36328125" y="625.0" type="line"/>
      <point x="370.36328125" y="155.0" type="line" smooth="yes"/>
      <point x="337.36328125" y="11.0"/>
      <point x="285.36328125" y="-15.0"/>
      <point x="211.36328125" y="-15.0" type="curve" smooth="yes"/>
      <point x="206.36328125" y="-15.0" type="line" smooth="yes"/>
      <point x="132.36328125" y="-15.0"/>
      <point x="92.36328125" y="11.0"/>
      <point x="125.36328125" y="155.0" type="curve" smooth="yes"/>
      <point x="233.36328125" y="625.0" type="line"/>
      <point x="215.36328125" y="1295.0" type="line" smooth="yes"/>
      <point x="213.36328125" y="1365.0"/>
      <point x="290.36328125" y="1415.0"/>
      <point x="364.36328125" y="1415.0" type="curve" smooth="yes"/>
      <point x="371.36328125" y="1415.0" type="line" smooth="yes"/>
      <point x="445.36328125" y="1415.0"/>
      <point x="497.36328125" y="1378.0"/>
      <point x="489.36328125" y="1295.0" type="curve" smooth="yes"/>
      <point x="439.36328125" y="800.0" type="line"/>
      <point x="617.36328125" y="1295.0" type="line" smooth="yes"/>
      <point x="643.36328125" y="1368.0"/>
      <point x="687.36328125" y="1415.0"/>
    </contour>
  </outline>
</glyph>
<glyph name="Z" format="2">
  <advance height="960" width="523"/>
  <unicode hex="005A"/>
  <anchor x="164.0" y="0.0" name="bottom"/>
  <anchor x="466.0" y="1400.0" name="top"/>
  <outline>
    <contour>
      <point x="-70.052734375" y="155.0" type="curve" smooth="yes"/>
      <point x="429.947265625" y="1225.0" type="line"/>
      <point x="361.947265625" y="1225.0" type="line" smooth="yes"/>
      <point x="217.947265625" y="1225.0"/>
      <point x="195.947265625" y="1246.0"/>
      <point x="210.947265625" y="1310.0" type="curve" smooth="yes"/>
      <point x="212.947265625" y="1315.0" type="line" smooth="yes"/>
      <point x="227.947265625" y="1379.0"/>
      <point x="257.947265625" y="1400.0"/>
      <point x="401.947265625" y="1400.0" type="curve" smooth="yes"/>
      <point x="596.947265625" y="1400.0" type="line" smooth="yes"/>
      <point x="720.947265625" y="1400.0"/>
      <point x="733.947265625" y="1363.0"/>
      <point x="678.947265625" y="1245.0" type="curve" smooth="yes"/>
      <point x="185.947265625" y="175.0" type="line"/>
      <point x="303.947265625" y="175.0" type="line" smooth="yes"/>
      <point x="447.947265625" y="175.0"/>
      <point x="469.947265625" y="154.0"/>
      <point x="454.947265625" y="90.0" type="curve" smooth="yes"/>
      <point x="453.947265625" y="85.0" type="line" smooth="yes"/>
      <point x="438.947265625" y="21.0"/>
      <point x="407.947265625" y="0.0"/>
      <point x="263.947265625" y="0.0" type="curve" smooth="yes"/>
      <point x="8.947265625" y="0.0" type="line" smooth="yes"/>
      <point x="-125.052734375" y="0.0"/>
      <point x="-130.052734375" y="27.0"/>
    </contour>
  </outline>
</glyph>
<glyph name="bracketleft" format="2">
  <advance height="1920" width="380"/>
  <unicode hex="005B"/>
  <outline>
    <contour>
      <point x="456.0" y="1475.0" type="line"/>
      <point x="61.0" y="-235.0" type="line"/>
      <point x="101.0" y="-235.0" type="line" smooth="yes"/>
      <point x="155.0" y="-235.0"/>
      <point x="192.0" y="-246.0"/>
      <point x="182.0" y="-290.0" type="curve" smooth="yes"/>
      <point x="179.0" y="-305.0" type="line" smooth="yes"/>
      <point x="169.0" y="-349.0"/>
      <point x="126.0" y="-360.0"/>
      <point x="72.0" y="-360.0" type="curve" smooth="yes"/>
      <point x="-64.0" y="-360.0" type="line" smooth="yes"/>
      <point x="-142.0" y="-360.0"/>
      <point x="-162.0" y="-333.0"/>
      <point x="-144.0" y="-255.0" type="curve" smooth="yes"/>
      <point x="260.0" y="1495.0" type="line" smooth="yes"/>
      <point x="278.0" y="1573.0"/>
      <point x="310.0" y="1600.0"/>
      <point x="388.0" y="1600.0" type="curve" smooth="yes"/>
      <point x="524.0" y="1600.0" type="line" smooth="yes"/>
      <point x="578.0" y="1600.0"/>
      <point x="616.0" y="1589.0"/>
      <point x="606.0" y="1545.0" type="curve" smooth="yes"/>
      <point x="602.0" y="1530.0" type="line" smooth="yes"/>
      <point x="592.0" y="1486.0"/>
      <point x="550.0" y="1475.0"/>
      <point x="496.0" y="1475.0" type="curve" smooth="yes"/>
    </contour>
  </outline>
</glyph>
<glyph name="backslash" format="2">
  <advance height="2048" width="519"/>
  <unicode hex="005C"/>
  <outline>
    <contour>
      <point x="370.0" y="5.0" type="line" smooth="yes"/>
      <point x="368.0" y="-76.0"/>
      <point x="326.0" y="-115.0"/>
      <point x="272.0" y="-115.0" type="curve" smooth="yes"/>
      <point x="270.0" y="-115.0" type="line" smooth="yes"/>
      <point x="217.0" y="-115.0"/>
      <point x="188.0" y="-76.0"/>
      <point x="190.0" y="5.0" type="curve" smooth="yes"/>
      <point x="222.0" y="1295.0" type="line" smooth="yes"/>
      <point x="224.0" y="1376.0"/>
      <point x="266.0" y="1415.0"/>
      <point x="320.0" y="1415.0" type="curve" smooth="yes"/>
      <point x="322.0" y="1415.0" type="line" smooth="yes"/>
      <point x="375.0" y="1415.0"/>
      <point x="404.0" y="1376.0"/>
      <point x="402.0" y="1295.0" type="curve" smooth="yes"/>
    </contour>
  </outline>
</glyph>
<glyph name="bracketright" format="2">
  <advance height="1920" width="380"/>
  <unicode hex="005D"/>
  <outline>
    <contour>
      <point x="-29.0" y="-235.0" type="line"/>
      <point x="366.0" y="1475.0" type="line"/>
      <point x="326.0" y="1475.0" type="line" smooth="yes"/>
      <point x="272.0" y="1475.0"/>
      <point x="234.0" y="1486.0"/>
      <point x="244.0" y="1530.0" type="curve" smooth="yes"/>
      <point x="248.0" y="1545.0" type="line" smooth="yes"/>
      <point x="258.0" y="1589.0"/>
      <point x="300.0" y="1600.0"/>
      <point x="354.0" y="1600.0" type="curve" smooth="yes"/>
      <point x="490.0" y="1600.0" type="line" smooth="yes"/>
      <point x="568.0" y="1600.0"/>
      <point x="588.0" y="1573.0"/>
      <point x="570.0" y="1495.0" type="curve" smooth="yes"/>
      <point x="166.0" y="-255.0" type="line" smooth="yes"/>
      <point x="148.0" y="-333.0"/>
      <point x="116.0" y="-360.0"/>
      <point x="38.0" y="-360.0" type="curve" smooth="yes"/>
      <point x="-98.0" y="-360.0" type="line" smooth="yes"/>
      <point x="-152.0" y="-360.0"/>
      <point x="-189.0" y="-349.0"/>
      <point x="-179.0" y="-305.0" type="curve" smooth="yes"/>
      <point x="-176.0" y="-290.0" type="line" smooth="yes"/>
      <point x="-166.0" y="-246.0"/>
      <point x="-123.0" y="-235.0"/>
      <point x="-69.0" y="-235.0" type="curve" smooth="yes"/>
    </contour>
  </outline>
</glyph>
<glyph name="asciicircum" format="2">
  <advance height="1920" width="412"/>
  <unicode hex="005E"/>
  <outline>
    <contour>
      <point x="346.0" y="1131.0" type="line"/>
      <point x="250.0" y="811.0" type="line" smooth="yes"/>
      <point x="228.0" y="736.0"/>
      <point x="184.0" y="715.0"/>
      <point x="130.0" y="715.0" type="curve" smooth="yes"/>
      <point x="125.0" y="715.0" type="line" smooth="yes"/>
      <point x="71.0" y="715.0"/>
      <point x="30.0" y="741.0"/>
      <point x="61.0" y="811.0" type="curve" smooth="yes"/>
      <point x="287.0" y="1320.0" type="line" smooth="yes"/>
      <point x="315.0" y="1382.0"/>
      <point x="353.0" y="1416.0"/>
      <point x="407.0" y="1416.0" type="curve" smooth="yes"/>
      <point x="417.0" y="1416.0" type="line" smooth="yes"/>
      <point x="471.0" y="1416.0"/>
      <point x="494.0" y="1382.0"/>
      <point x="493.0" y="1320.0" type="curve" smooth="yes"/>
      <point x="483.0" y="811.0" type="line" smooth="yes"/>
      <point x="482.0" y="741.0"/>
      <point x="431.0" y="715.0"/>
      <point x="375.0" y="715.0" type="curve" smooth="yes"/>
      <point x="370.0" y="715.0" type="line" smooth="yes"/>
      <point x="315.0" y="715.0"/>
      <point x="282.0" y="736.0"/>
      <point x="294.0" y="811.0" type="curve" smooth="yes"/>
    </contour>
  </outline>
</glyph>
<glyph name="underscore" format="2">
  <advance height="1920" width="450"/>
  <unicode hex="005F"/>
  <outline>
    <contour>
      <point x="-154.0" y="-97.0" type="curve" smooth="yes"/>
      <point x="-154.0" y="-80.0" type="line" smooth="yes"/>
      <point x="-154.0" y="-26.0"/>
      <point x="-113.0" y="0.0"/>
      <point x="-59.0" y="0.0" type="curve" smooth="yes"/>
      <point x="231.0" y="0.0" type="line" smooth="yes"/>
      <point x="285.0" y="0.0"/>
      <point x="326.0" y="-26.0"/>
      <point x="326.0" y="-80.0" type="curve" smooth="yes"/>
      <point x="326.0" y="-97.0" type="line" smooth="yes"/>
      <point x="326.0" y="-151.0"/>
      <point x="285.0" y="-177.0"/>
      <point x="231.0" y="-177.0" type="curve" smooth="yes"/>
      <point x="-59.0" y="-177.0" type="line" smooth="yes"/>
      <point x="-113.0" y="-177.0"/>
      <point x="-154.0" y="-151.0"/>
    </contour>
  </outline>
</glyph>
<glyph name="grave" format="2">
  <advance width="386"/>
  <unicode hex="0060"/>
  <outline>
    <contour>
      <point x="441.0" y="1054.0" type="curve" smooth="yes"/>
      <point x="437.0" y="1054.0" type="line" smooth="yes"/>
      <point x="393.0" y="1054.0"/>
      <point x="354.0" y="1121.0"/>
      <point x="316.0" y="1204.0" type="curve" smooth="yes"/>
      <point x="304.0" y="1230.0" type="line" smooth="yes"/>
      <point x="255.0" y="1339.0"/>
      <point x="333.0" y="1430.0"/>
      <point x="411.0" y="1430.0" type="curve" smooth="yes"/>
      <point x="416.0" y="1430.0" type="line" smooth="yes"/>
      <point x="494.0" y="1430.0"/>
      <point x="519.0" y="1390.0"/>
      <point x="510.0" y="1290.0" type="curve" smooth="yes"/>
      <point x="502.0" y="1214.0" type="line" smooth="yes"/>
      <point x="492.0" y="1105.0"/>
      <point x="469.0" y="1054.0"/>
    </contour>
  </outline>
</glyph>
<glyph name="a" format="2">
  <advance height="960" width="560"/>
  <unicode hex="0061"/>
  <anchor x="131.0" y="0.0" name="bottom"/>
  <anchor x="333.0" y="0.0" name="ogonek"/>
  <anchor x="427.0" y="1050.0" name="top"/>
  <outline>
    <contour>
      <point x="267.0" y="238.0" type="line"/>
      <point x="234.0" y="93.0"/>
      <point x="135.0" y="-18.0"/>
      <point x="37.0" y="-18.0" type="curve" smooth="yes"/>
      <point x="-51.0" y="-18.0"/>
      <point x="-87.0" y="54.0"/>
      <point x="-48.0" y="224.0" type="curve" smooth="yes"/>
      <point x="91.0" y="827.0" type="line" smooth="yes"/>
      <point x="128.0" y="987.0"/>
      <point x="214.0" y="1067.0"/>
      <point x="352.0" y="1067.0" type="curve" smooth="yes"/>
      <point x="476.0" y="1067.0"/>
      <point x="535.0" y="986.0"/>
      <point x="502.0" y="841.0" type="curve"/>
      <point x="368.0" y="807.0" type="line"/>
      <point x="384.0" y="877.0"/>
      <point x="382.0" y="897.0"/>
      <point x="367.0" y="897.0" type="curve" smooth="yes"/>
      <point x="351.0" y="897.0"/>
      <point x="338.0" y="872.0"/>
      <point x="325.0" y="817.0" type="curve" smooth="yes"/>
      <point x="190.0" y="234.0" type="line" smooth="yes"/>
      <point x="177.0" y="179.0"/>
      <point x="172.0" y="152.0"/>
      <point x="191.0" y="152.0" type="curve" smooth="yes"/>
      <point x="208.0" y="152.0"/>
      <point x="225.0" y="189.0"/>
      <point x="238.0" y="244.0" type="curve"/>
    </contour>
    <contour>
      <point x="487.0" y="120.0" type="curve" smooth="yes"/>
      <point x="487.0" y="117.0" type="line" smooth="yes"/>
      <point x="487.0" y="53.0"/>
      <point x="459.188383628" y="-4.54928245776"/>
      <point x="375.0" y="-14.0" type="curve" smooth="yes"/>
      <point x="247.009560597" y="-28.3677956362"/>
      <point x="187.0" y="22.0"/>
      <point x="223.0" y="176.0" type="curve" smooth="yes"/>
      <point x="387.0" y="887.0" type="line" smooth="yes"/>
      <point x="586.0" y="1043.0" type="line" smooth="yes"/>
      <point x="605.605252045" y="1058.3689413"/>
      <point x="616.0" y="1067.0"/>
      <point x="633.0" y="1067.0" type="curve" smooth="yes"/>
      <point x="635.0" y="1067.0" type="line" smooth="yes"/>
      <point x="647.0" y="1067.0"/>
      <point x="665.683921709" y="1056.99763941"/>
      <point x="656.0" y="1015.0" type="curve" smooth="yes"/>
      <point x="466.0" y="191.0" type="line" smooth="yes"/>
      <point x="458.0" y="157.0"/>
      <point x="462.613884055" y="150.247733626"/>
      <point x="468.0" y="147.0" type="curve" smooth="yes"/>
      <point x="481.555664062" y="138.826171875"/>
      <point x="487.0" y="133.0"/>
    </contour>
  </outline>
</glyph>
<glyph name="b" format="2">
  <advance height="1920" width="570"/>
  <unicode hex="0062"/>
  <outline>
    <contour>
      <point x="372.298828125" y="1465.0" type="curve" smooth="yes"/>
      <point x="377.298828125" y="1465.0" type="line" smooth="yes"/>
      <point x="451.298828125" y="1465.0"/>
      <point x="487.298828125" y="1424.0"/>
      <point x="468.298828125" y="1340.0" type="curve" smooth="yes"/>
      <point x="197.271484375" y="165.0" type="line"/>
      <point x="53.298828125" y="30.0" type="line" smooth="yes"/>
      <point x="24.298828125" y="3.0"/>
      <point x="-0.701171875" y="-15.0"/>
      <point x="-28.701171875" y="-15.0" type="curve" smooth="yes"/>
      <point x="-34.701171875" y="-15.0" type="line" smooth="yes"/>
      <point x="-68.701171875" y="-15.0"/>
      <point x="-82.701171875" y="12.0"/>
      <point x="-64.701171875" y="90.0" type="curve" smooth="yes"/>
      <point x="223.298828125" y="1340.0" type="line" smooth="yes"/>
      <point x="242.298828125" y="1424.0"/>
      <point x="298.298828125" y="1465.0"/>
    </contour>
    <contour>
      <point x="314.298828125" y="801.0" type="line"/>
      <point x="347.298828125" y="946.0"/>
      <point x="443.200195312" y="1067.0"/>
      <point x="539.90234375" y="1067.0" type="curve" smooth="yes"/>
      <point x="647.90234375" y="1067.0"/>
      <point x="683.90234375" y="997.0"/>
      <point x="644.90234375" y="827.0" type="curve" smooth="yes"/>
      <point x="505.90234375" y="224.0" type="line" smooth="yes"/>
      <point x="468.90234375" y="64.0"/>
      <point x="381.90234375" y="-18.0"/>
      <point x="233.90234375" y="-18.0" type="curve" smooth="yes"/>
      <point x="115.298828125" y="-18.0"/>
      <point x="49.298828125" y="63.0"/>
      <point x="82.298828125" y="208.0" type="curve"/>
      <point x="215.294921875" y="244.0" type="line"/>
      <point x="199.279296875" y="174.0"/>
      <point x="199.6875" y="152.0"/>
      <point x="218.638671875" y="152.0" type="curve" smooth="yes"/>
      <point x="240.299804688" y="152.0"/>
      <point x="249.932617188" y="179.0"/>
      <point x="262.90234375" y="234.0" type="curve" smooth="yes"/>
      <point x="397.90234375" y="817.0" type="line" smooth="yes"/>
      <point x="410.90234375" y="872.0"/>
      <point x="412.298828125" y="897.0"/>
      <point x="390.638671875" y="897.0" type="curve" smooth="yes"/>
      <point x="371.685546875" y="897.0"/>
      <point x="358.263671875" y="862.0"/>
      <point x="345.29296875" y="807.0" type="curve"/>
    </contour>
  </outline>
</glyph>
<glyph name="c" format="2">
  <advance height="960" width="461"/>
  <unicode hex="0063"/>
  <anchor x="132.0" y="0.0" name="bottom"/>
  <anchor x="371.0" y="1050.0" name="top"/>
  <outline>
    <contour>
      <point x="433.520507812" y="364.0" type="curve" smooth="yes"/>
      <point x="390.520507812" y="179.0"/>
      <point x="358.520507812" y="89.0"/>
      <point x="288.520507812" y="32.0" type="curve" smooth="yes"/>
      <point x="243.520507812" y="-5.0"/>
      <point x="186.870117188" y="-18.0"/>
      <point x="122.743164062" y="-18.0" type="curve" smooth="yes"/>
      <point x="-12.2568359375" y="-18.0"/>
      <point x="-72.2568359375" y="76.0"/>
      <point x="-38.2568359375" y="224.0" type="curve" smooth="yes"/>
      <point x="100.743164062" y="827.0" type="line" smooth="yes"/>
      <point x="134.743164062" y="975.0"/>
      <point x="225.743164062" y="1067.0"/>
      <point x="375.743164062" y="1067.0" type="curve" smooth="yes"/>
      <point x="446.520507812" y="1067.0"/>
      <point x="491.520507812" y="1047.0"/>
      <point x="511.520507812" y="1021.0" type="curve" smooth="yes"/>
      <point x="533.520507812" y="992.0"/>
      <point x="565.520507812" y="951.0"/>
      <point x="506.520507812" y="697.0" type="curve" smooth="yes"/>
      <point x="491.520507812" y="634.0"/>
      <point x="462.520507812" y="598.0"/>
      <point x="408.520507812" y="598.0" type="curve" smooth="yes"/>
      <point x="403.520507812" y="598.0" type="line" smooth="yes"/>
      <point x="350.520507812" y="598.0"/>
      <point x="336.943359375" y="635.0"/>
      <point x="350.974609375" y="697.0" type="curve" smooth="yes"/>
      <point x="372.922851562" y="790.0"/>
      <point x="388.893554688" y="858.0"/>
      <point x="381.041992188" y="870.0" type="curve" smooth="yes"/>
      <point x="380.18359375" y="872.0"/>
      <point x="378.401367188" y="873.0"/>
      <point x="375.693359375" y="873.0" type="curve" smooth="yes"/>
      <point x="358.545898438" y="873.0"/>
      <point x="348.743164062" y="842.0"/>
      <point x="331.743164062" y="767.0" type="curve" smooth="yes"/>
      <point x="220.743164062" y="284.0" type="line" smooth="yes"/>
      <point x="203.743164062" y="212.0"/>
      <point x="195.743164062" y="178.0"/>
      <point x="213.84375" y="178.0" type="curve" smooth="yes"/>
      <point x="217.455078125" y="178.0"/>
      <point x="221.086914062" y="179.0"/>
      <point x="223.861328125" y="182.0" type="curve" smooth="yes"/>
      <point x="236.745117188" y="193.0"/>
      <point x="253.572265625" y="259.0"/>
      <point x="278.520507812" y="365.0" type="curve" smooth="yes"/>
      <point x="292.551757812" y="427.0"/>
      <point x="322.520507812" y="453.0"/>
      <point x="375.520507812" y="453.0" type="curve" smooth="yes"/>
      <point x="380.520507812" y="453.0" type="line" smooth="yes"/>
      <point x="434.520507812" y="453.0"/>
      <point x="448.520507812" y="427.0"/>
    </contour>
  </outline>
</glyph>
<glyph name="d" format="2">
  <advance height="960" width="570"/>
  <unicode hex="0064"/>
  <outline>
    <contour>
      <point x="289.510742188" y="238.0" type="line"/>
      <point x="256.510742188" y="93.0"/>
      <point x="168.873046875" y="-18.0"/>
      <point x="66.7431640625" y="-18.0" type="curve" smooth="yes"/>
      <point x="-41.2568359375" y="-18.0"/>
      <point x="-77.2568359375" y="54.0"/>
      <point x="-38.2568359375" y="224.0" type="curve" smooth="yes"/>
      <point x="100.743164062" y="827.0" type="line" smooth="yes"/>
      <point x="139.743164062" y="997.0"/>
      <point x="208.743164062" y="1067.0"/>
      <point x="316.743164062" y="1067.0" type="curve" smooth="yes"/>
      <point x="418.921875" y="1067.0"/>
      <point x="454.500976562" y="956.0"/>
      <point x="421.500976562" y="811.0" type="curve"/>
      <point x="390.505859375" y="807.0" type="line"/>
      <point x="403.500976562" y="862.0"/>
      <point x="409.678710938" y="897.0"/>
      <point x="388.01953125" y="897.0" type="curve" smooth="yes"/>
      <point x="366.359375" y="897.0"/>
      <point x="357.673828125" y="872.0"/>
      <point x="344.704101562" y="817.0" type="curve" smooth="yes"/>
      <point x="209.743164062" y="234.0" type="line" smooth="yes"/>
      <point x="196.743164062" y="179.0"/>
      <point x="194.359375" y="152.0"/>
      <point x="216.01953125" y="152.0" type="curve" smooth="yes"/>
      <point x="237.6796875" y="152.0"/>
      <point x="247.538085938" y="189.0"/>
      <point x="260.51171875" y="244.0" type="curve"/>
    </contour>
    <contour>
      <point x="758.500976562" y="1335.0" type="curve" smooth="yes"/>
      <point x="477.510742188" y="115.0" type="line" smooth="yes"/>
      <point x="458.510742188" y="31.0"/>
      <point x="404.510742188" y="-15.0"/>
      <point x="330.510742188" y="-15.0" type="curve" smooth="yes"/>
      <point x="327.510742188" y="-15.0" type="line" smooth="yes"/>
      <point x="253.510742188" y="-15.0"/>
      <point x="220.510742188" y="31.0"/>
      <point x="239.510742188" y="115.0" type="curve" smooth="yes"/>
      <point x="242.510742188" y="130.0" type="line"/>
      <point x="235.514648438" y="136.0" type="line"/>
      <point x="512.500976562" y="1335.0" type="line" smooth="yes"/>
      <point x="531.534179688" y="1419.0"/>
      <point x="589.500976562" y="1465.0"/>
      <point x="663.500976562" y="1465.0" type="curve" smooth="yes"/>
      <point x="668.500976562" y="1465.0" type="line" smooth="yes"/>
      <point x="742.500976562" y="1465.0"/>
      <point x="777.500976562" y="1419.0"/>
    </contour>
  </outline>
</glyph>
<glyph name="e" format="2">
  <advance height="960" width="551"/>
  <unicode hex="0065"/>
  <anchor x="180.0" y="0.0" name="bottom"/>
  <anchor x="289.0" y="30.0" name="ogonek"/>
  <anchor x="427.0" y="1050.0" name="top"/>
  <outline>
    <contour>
      <point x="507.17578125" y="314.0" type="curve" smooth="yes"/>
      <point x="475.17578125" y="177.0"/>
      <point x="444.17578125" y="105.0"/>
      <point x="374.17578125" y="48.0" type="curve" smooth="yes"/>
      <point x="318.17578125" y="3.0"/>
      <point x="248.17578125" y="-18.0"/>
      <point x="171.603515625" y="-18.0" type="curve" smooth="yes"/>
      <point x="-10.2119140625" y="-18.0"/>
      <point x="-74.2119140625" y="69.0"/>
      <point x="-27.2119140625" y="274.0" type="curve" smooth="yes"/>
      <point x="88.7880859375" y="777.0" type="line" smooth="yes"/>
      <point x="134.788085938" y="977.0"/>
      <point x="235.788085938" y="1067.0"/>
      <point x="421.651367188" y="1067.0" type="curve" smooth="yes"/>
      <point x="603.17578125" y="1067.0"/>
      <point x="657.17578125" y="979.0"/>
      <point x="612.17578125" y="767.0" type="curve" smooth="yes"/>
      <point x="603.17578125" y="722.0"/>
      <point x="596.17578125" y="677.0"/>
      <point x="586.17578125" y="635.0" type="curve" smooth="yes"/>
      <point x="553.17578125" y="493.0"/>
      <point x="540.17578125" y="481.0"/>
      <point x="396.17578125" y="481.0" type="curve" smooth="yes"/>
      <point x="158.788085938" y="481.0" type="line"/>
      <point x="177.788085938" y="565.0" type="line"/>
      <point x="327.321289062" y="565.0" type="line"/>
      <point x="404.489257812" y="906.0"/>
      <point x="411.279296875" y="927.0"/>
      <point x="389.619140625" y="927.0" type="curve" smooth="yes"/>
      <point x="373.375" y="927.0"/>
      <point x="363.764648438" y="901.0"/>
      <point x="349.778320312" y="841.0" type="curve" smooth="yes"/>
      <point x="203.788085938" y="209.0" type="line" smooth="yes"/>
      <point x="186.756835938" y="134.0"/>
      <point x="188.291015625" y="122.0"/>
      <point x="202.731445312" y="122.0" type="curve" smooth="yes"/>
      <point x="223.489257812" y="122.0"/>
      <point x="243.498046875" y="209.0"/>
      <point x="265.17578125" y="290.0" type="curve" smooth="yes"/>
      <point x="290.17578125" y="381.0"/>
      <point x="334.17578125" y="433.0"/>
      <point x="415.17578125" y="433.0" type="curve" smooth="yes"/>
      <point x="421.17578125" y="433.0" type="line" smooth="yes"/>
      <point x="495.17578125" y="433.0"/>
      <point x="522.17578125" y="377.0"/>
    </contour>
  </outline>
</glyph>
<glyph name="f" format="2">
  <advance height="960" width="326"/>
  <unicode hex="0066"/>
  <outline>
    <contour>
      <point x="357.697265625" y="930.0" type="curve" smooth="yes"/>
      <point x="194.697265625" y="930.0" type="line" smooth="yes"/>
      <point x="120.697265625" y="930.0"/>
      <point x="90.697265625" y="941.0"/>
      <point x="101.697265625" y="989.0" type="curve" smooth="yes"/>
      <point x="102.697265625" y="994.0" type="line" smooth="yes"/>
      <point x="113.697265625" y="1042.0"/>
      <point x="147.697265625" y="1050.0"/>
      <point x="221.697265625" y="1050.0" type="curve" smooth="yes"/>
      <point x="384.697265625" y="1050.0" type="line" smooth="yes"/>
      <point x="458.697265625" y="1050.0"/>
      <point x="488.697265625" y="1042.0"/>
      <point x="477.697265625" y="994.0" type="curve" smooth="yes"/>
      <point x="476.697265625" y="989.0" type="line" smooth="yes"/>
      <point x="465.697265625" y="941.0"/>
      <point x="431.697265625" y="930.0"/>
    </contour>
    <contour>
      <point x="238.697265625" y="1319.0" type="line" smooth="yes"/>
      <point x="265.697265625" y="1438.0"/>
      <point x="386.697265625" y="1466.0"/>
      <point x="540.697265625" y="1443.0" type="curve" smooth="yes"/>
      <point x="578.697265625" y="1437.0"/>
      <point x="592.697265625" y="1424.0"/>
      <point x="582.697265625" y="1380.0" type="curve" smooth="yes"/>
      <point x="580.697265625" y="1375.0" type="line" smooth="yes"/>
      <point x="570.697265625" y="1332.0"/>
      <point x="548.697265625" y="1320.0"/>
      <point x="507.697265625" y="1308.0" type="curve" smooth="yes"/>
      <point x="488.697265625" y="1302.0"/>
      <point x="474.697265625" y="1292.0"/>
      <point x="466.697265625" y="1259.0" type="curve" smooth="yes"/>
      <point x="113.697265625" y="-270.0" type="line" smooth="yes"/>
      <point x="98.697265625" y="-334.0"/>
      <point x="42.697265625" y="-375.0"/>
      <point x="-21.302734375" y="-375.0" type="curve" smooth="yes"/>
      <point x="-43.302734375" y="-375.0" type="line" smooth="yes"/>
      <point x="-107.302734375" y="-375.0"/>
      <point x="-143.302734375" y="-334.0"/>
      <point x="-128.302734375" y="-270.0" type="curve" smooth="yes"/>
    </contour>
  </outline>
</glyph>
<glyph name="h" format="2">
  <advance height="960" width="561"/>
  <unicode hex="0068"/>
  <anchor x="173.0" y="0.0" name="bottom"/>
  <anchor x="367.0" y="1450.0" name="top"/>
  <outline>
    <contour>
      <point x="372.260742188" y="1465.0" type="curve" smooth="yes"/>
      <point x="377.260742188" y="1465.0" type="line" smooth="yes"/>
      <point x="451.260742188" y="1465.0"/>
      <point x="491.260742188" y="1439.0"/>
      <point x="458.260742188" y="1295.0" type="curve" smooth="yes"/>
      <point x="195.260742188" y="155.0" type="line" smooth="yes"/>
      <point x="162.236328125" y="11.0"/>
      <point x="109.260742188" y="-15.0"/>
      <point x="36.2607421875" y="-15.0" type="curve" smooth="yes"/>
      <point x="31.2607421875" y="-15.0" type="line" smooth="yes"/>
      <point x="-42.7392578125" y="-15.0"/>
      <point x="-82.7392578125" y="11.0"/>
      <point x="-49.7392578125" y="155.0" type="curve" smooth="yes"/>
      <point x="213.260742188" y="1295.0" type="line" smooth="yes"/>
      <point x="246.260742188" y="1439.0"/>
      <point x="298.260742188" y="1465.0"/>
    </contour>
    <contour>
      <point x="336.260742188" y="877.0" type="line"/>
      <point x="364.260742188" y="997.0"/>
      <point x="448.067382812" y="1067.0"/>
      <point x="542.067382812" y="1067.0" type="curve" smooth="yes"/>
      <point x="646.067382812" y="1067.0"/>
      <point x="677.067382812" y="1012.0"/>
      <point x="641.067382812" y="857.0" type="curve" smooth="yes"/>
      <point x="479.067382812" y="155.0" type="line" smooth="yes"/>
      <point x="446.067382812" y="11.0"/>
      <point x="394.067382812" y="-15.0"/>
      <point x="320.067382812" y="-15.0" type="curve" smooth="yes"/>
      <point x="315.067382812" y="-15.0" type="line" smooth="yes"/>
      <point x="241.067382812" y="-15.0"/>
      <point x="201.067382812" y="11.0"/>
      <point x="234.067382812" y="155.0" type="curve" smooth="yes"/>
      <point x="390.07421875" y="831.0" type="line" smooth="yes"/>
      <point x="402.067382812" y="881.0"/>
      <point x="402.524414062" y="903.0"/>
      <point x="389.889648438" y="903.0" type="curve" smooth="yes"/>
      <point x="373.645507812" y="903.0"/>
      <point x="359.260742188" y="866.0"/>
      <point x="335.250976562" y="761.0" type="curve"/>
    </contour>
  </outline>
</glyph>
<glyph name="i" format="2">
  <advance height="960" width="280"/>
  <unicode hex="0069"/>
  <anchor x="28.0" y="0.0" name="bottom"/>
  <anchor x="28.0" y="0.0" name="ogonek"/>
  <outline>
    <contour>
      <point x="443.241210938" y="1360.0" type="curve" smooth="yes"/>
      <point x="426.241210938" y="1285.0" type="line" smooth="yes"/>
      <point x="404.241210938" y="1191.0"/>
      <point x="367.241210938" y="1145.0"/>
      <point x="303.241210938" y="1145.0" type="curve" smooth="yes"/>
      <point x="298.241210938" y="1145.0" type="line" smooth="yes"/>
      <point x="234.241210938" y="1145.0"/>
      <point x="219.241210938" y="1191.0"/>
      <point x="241.241210938" y="1285.0" type="curve" smooth="yes"/>
      <point x="258.241210938" y="1360.0" type="line" smooth="yes"/>
      <point x="280.241210938" y="1454.0"/>
      <point x="316.241210938" y="1500.0"/>
      <point x="380.241210938" y="1500.0" type="curve" smooth="yes"/>
      <point x="385.241210938" y="1500.0" type="line" smooth="yes"/>
      <point x="449.241210938" y="1500.0"/>
      <point x="465.241210938" y="1454.0"/>
    </contour>
    <contour>
      <point x="366.241210938" y="895.0" type="curve" smooth="yes"/>
      <point x="195.241210938" y="155.0" type="line" smooth="yes"/>
      <point x="162.241210938" y="11.0"/>
      <point x="110.241210938" y="-15.0"/>
      <point x="36.2412109375" y="-15.0" type="curve" smooth="yes"/>
      <point x="31.2412109375" y="-15.0" type="line" smooth="yes"/>
      <point x="-42.7587890625" y="-15.0"/>
      <point x="-82.7587890625" y="11.0"/>
      <point x="-49.7587890625" y="155.0" type="curve" smooth="yes"/>
      <point x="121.241210938" y="895.0" type="line" smooth="yes"/>
      <point x="154.241210938" y="1039.0"/>
      <point x="206.241210938" y="1065.0"/>
      <point x="280.241210938" y="1065.0" type="curve" smooth="yes"/>
      <point x="285.241210938" y="1065.0" type="line" smooth="yes"/>
      <point x="359.241210938" y="1065.0"/>
      <point x="399.241210938" y="1039.0"/>
    </contour>
  </outline>
</glyph>
<glyph name="j" format="2">
  <advance height="960" width="280"/>
  <unicode hex="006A"/>
  <outline>
    <contour>
      <point x="165.71484375" y="-59.0" type="line" smooth="yes"/>
      <point x="116.609375" y="-270.975585938"/>
      <point x="28.71484375" y="-371.0"/>
      <point x="-130.28515625" y="-371.0" type="curve" smooth="yes"/>
      <point x="-369.28515625" y="-371.0"/>
      <point x="-320.466796875" y="-199.083984375"/>
      <point x="-311.28515625" y="-157.0" type="curve" smooth="yes"/>
      <point x="-299.28515625" y="-102.0"/>
      <point x="-257.28515625" y="-85.0"/>
      <point x="-220.28515625" y="-85.0" type="curve" smooth="yes"/>
      <point x="-215.28515625" y="-85.0" type="line" smooth="yes"/>
      <point x="-168.28515625" y="-85.0"/>
      <point x="-140.7578125" y="-109.729492188"/>
      <point x="-152.28515625" y="-147.0" type="curve" smooth="yes"/>
      <point x="-163.46875" y="-183.158203125"/>
      <point x="-164.28515625" y="-204.0"/>
      <point x="-145.28515625" y="-204.0" type="curve" smooth="yes"/>
      <point x="-117.28515625" y="-204.0"/>
      <point x="-98.9716796875" y="-145.072265625"/>
      <point x="-79.28515625" y="-60.0" type="curve" smooth="yes"/>
      <point x="141.71484375" y="895.0" type="line" smooth="yes"/>
      <point x="174.71484375" y="1039.0"/>
      <point x="226.71484375" y="1065.0"/>
      <point x="300.71484375" y="1065.0" type="curve" smooth="yes"/>
      <point x="305.71484375" y="1065.0" type="line" smooth="yes"/>
      <point x="379.71484375" y="1065.0"/>
      <point x="419.71484375" y="1039.0"/>
      <point x="386.71484375" y="895.0" type="curve" smooth="yes"/>
    </contour>
    <contour>
      <point x="463.71484375" y="1360.0" type="curve" smooth="yes"/>
      <point x="446.71484375" y="1285.0" type="line" smooth="yes"/>
      <point x="424.71484375" y="1191.0"/>
      <point x="387.71484375" y="1145.0"/>
      <point x="323.71484375" y="1145.0" type="curve" smooth="yes"/>
      <point x="318.71484375" y="1145.0" type="line" smooth="yes"/>
      <point x="254.71484375" y="1145.0"/>
      <point x="239.71484375" y="1191.0"/>
      <point x="261.71484375" y="1285.0" type="curve" smooth="yes"/>
      <point x="278.71484375" y="1360.0" type="line" smooth="yes"/>
      <point x="300.71484375" y="1454.0"/>
      <point x="336.71484375" y="1500.0"/>
      <point x="400.71484375" y="1500.0" type="curve" smooth="yes"/>
      <point x="405.71484375" y="1500.0" type="line" smooth="yes"/>
      <point x="469.71484375" y="1500.0"/>
      <point x="485.71484375" y="1454.0"/>
    </contour>
  </outline>
</glyph>
<glyph name="k" format="2">
  <advance height="960" width="577"/>
  <unicode hex="006B"/>
  <outline>
    <contour>
      <point x="372.260742188" y="1465.0" type="curve" smooth="yes"/>
      <point x="377.260742188" y="1465.0" type="line" smooth="yes"/>
      <point x="451.260742188" y="1465.0"/>
      <point x="491.260742188" y="1439.0"/>
      <point x="458.260742188" y="1295.0" type="curve" smooth="yes"/>
      <point x="195.260742188" y="155.0" type="line" smooth="yes"/>
      <point x="162.236328125" y="11.0"/>
      <point x="110.260742188" y="-15.0"/>
      <point x="36.2607421875" y="-15.0" type="curve" smooth="yes"/>
      <point x="31.2607421875" y="-15.0" type="line" smooth="yes"/>
      <point x="-42.7392578125" y="-15.0"/>
      <point x="-82.7392578125" y="11.0"/>
      <point x="-49.7392578125" y="155.0" type="curve" smooth="yes"/>
      <point x="213.260742188" y="1295.0" type="line" smooth="yes"/>
      <point x="246.260742188" y="1439.0"/>
      <point x="298.260742188" y="1465.0"/>
    </contour>
    <contour>
      <point x="171.260742188" y="422.0" type="line"/>
      <point x="446.5078125" y="895.0" type="line" smooth="yes"/>
      <point x="527.5078125" y="1031.0"/>
      <point x="553.5078125" y="1065.0"/>
      <point x="619.5078125" y="1065.0" type="curve" smooth="yes"/>
      <point x="626.5078125" y="1065.0" type="line" smooth="yes"/>
      <point x="690.5078125" y="1065.0"/>
      <point x="748.5078125" y="1030.0"/>
      <point x="652.5078125" y="895.0" type="curve" smooth="yes"/>
      <point x="203.260742188" y="256.0" type="line"/>
    </contour>
    <contour>
      <point x="274.260742188" y="586.0" type="line"/>
      <point x="415.5078125" y="616.0" type="line"/>
      <point x="499.5078125" y="155.0" type="line" smooth="yes"/>
      <point x="515.5078125" y="65.0"/>
      <point x="474.5078125" y="-15.0"/>
      <point x="370.5078125" y="-15.0" type="curve" smooth="yes"/>
      <point x="365.5078125" y="-15.0" type="line" smooth="yes"/>
      <point x="281.5078125" y="-15.0"/>
      <point x="241.5078125" y="15.0"/>
      <point x="248.5078125" y="155.0" type="curve" smooth="yes"/>
    </contour>
  </outline>
</glyph>
<glyph name="l" format="2">
  <advance height="960" width="280"/>
  <unicode hex="006C"/>
  <outline>
    <contour>
      <point x="372.260742188" y="1465.0" type="curve" smooth="yes"/>
      <point x="377.260742188" y="1465.0" type="line" smooth="yes"/>
      <point x="451.260742188" y="1465.0"/>
      <point x="491.260742188" y="1439.0"/>
      <point x="458.260742188" y="1295.0" type="curve" smooth="yes"/>
      <point x="195.260742188" y="155.0" type="line" smooth="yes"/>
      <point x="162.260742188" y="11.0"/>
      <point x="109.260742188" y="-15.0"/>
      <point x="36.2607421875" y="-15.0" type="curve" smooth="yes"/>
      <point x="31.2607421875" y="-15.0" type="line" smooth="yes"/>
      <point x="-42.7392578125" y="-15.0"/>
      <point x="-82.7392578125" y="11.0"/>
      <point x="-49.7392578125" y="155.0" type="curve" smooth="yes"/>
      <point x="213.260742188" y="1295.0" type="line" smooth="yes"/>
      <point x="246.260742188" y="1439.0"/>
      <point x="298.260742188" y="1465.0"/>
    </contour>
  </outline>
</glyph>
<glyph name="m" format="2">
  <advance height="960" width="779"/>
  <unicode hex="006D"/>
  <outline>
    <contour>
      <point x="551.854492188" y="877.0" type="line"/>
      <point x="579.853515625" y="997.0"/>
      <point x="661.592773438" y="1067.0"/>
      <point x="758.466796875" y="1067.0" type="curve" smooth="yes"/>
      <point x="862.466796875" y="1067.0"/>
      <point x="894.466796875" y="1012.0"/>
      <point x="858.466796875" y="857.0" type="curve" smooth="yes"/>
      <point x="696.466796875" y="155.0" type="line" smooth="yes"/>
      <point x="663.466796875" y="11.0"/>
      <point x="616.466796875" y="-15.0"/>
      <point x="542.466796875" y="-15.0" type="curve" smooth="yes"/>
      <point x="537.466796875" y="-15.0" type="line" smooth="yes"/>
      <point x="463.466796875" y="-15.0"/>
      <point x="428.466796875" y="11.0"/>
      <point x="461.466796875" y="155.0" type="curve" smooth="yes"/>
      <point x="623.473632812" y="857.0" type="line" smooth="yes"/>
      <point x="630.466796875" y="887.0"/>
      <point x="627.216796875" y="903.0"/>
      <point x="615.483398438" y="903.0" type="curve" smooth="yes"/>
      <point x="603.750976562" y="903.0"/>
      <point x="590.854492188" y="892.0"/>
      <point x="566.844726562" y="787.0" type="curve"/>
    </contour>
    <contour>
      <point x="274.241210938" y="1065.0" type="curve" smooth="yes"/>
      <point x="276.241210938" y="1065.0" type="line" smooth="yes"/>
      <point x="350.241210938" y="1065.0"/>
      <point x="382.241210938" y="1029.0"/>
      <point x="351.241210938" y="895.0" type="curve" smooth="yes"/>
      <point x="345.241210938" y="869.0" type="line"/>
      <point x="346.241210938" y="855.0" type="line"/>
      <point x="185.241210938" y="155.0" type="line" smooth="yes"/>
      <point x="152.216796875" y="11.0"/>
      <point x="105.241210938" y="-15.0"/>
      <point x="31.2412109375" y="-15.0" type="curve" smooth="yes"/>
      <point x="26.2412109375" y="-15.0" type="line" smooth="yes"/>
      <point x="-47.7587890625" y="-15.0"/>
      <point x="-82.7587890625" y="11.0"/>
      <point x="-49.7587890625" y="155.0" type="curve" smooth="yes"/>
      <point x="121.241210938" y="895.0" type="line" smooth="yes"/>
      <point x="152.241210938" y="1029.0"/>
      <point x="200.241210938" y="1065.0"/>
    </contour>
    <contour>
      <point x="326.241210938" y="877.0" type="line"/>
      <point x="354.241210938" y="997.0"/>
      <point x="411.541015625" y="1067.0"/>
      <point x="502.853515625" y="1067.0" type="curve" smooth="yes"/>
      <point x="596.853515625" y="1067.0"/>
      <point x="618.83984375" y="1012.0"/>
      <point x="582.854492188" y="857.0" type="curve" smooth="yes"/>
      <point x="420.854492188" y="155.0" type="line" smooth="yes"/>
      <point x="387.830078125" y="11.0"/>
      <point x="340.853515625" y="-15.0"/>
      <point x="286.853515625" y="-15.0" type="curve" smooth="yes"/>
      <point x="281.853515625" y="-15.0" type="line" smooth="yes"/>
      <point x="227.853515625" y="-15.0"/>
      <point x="192.853515625" y="11.0"/>
      <point x="225.854492188" y="155.0" type="curve" smooth="yes"/>
      <point x="387.861328125" y="857.0" type="line" smooth="yes"/>
      <point x="394.854492188" y="887.0"/>
      <point x="390.701171875" y="903.0"/>
      <point x="379.87109375" y="903.0" type="curve" smooth="yes"/>
      <point x="368.138671875" y="903.0"/>
      <point x="355.241210938" y="892.0"/>
      <point x="331.232421875" y="787.0" type="curve"/>
    </contour>
  </outline>
</glyph>
<glyph name="n" format="2">
  <advance height="960" width="561"/>
  <unicode hex="006E"/>
  <anchor x="197.0" y="0.0" name="bottom"/>
  <anchor x="440.0" y="1050.0" name="top"/>
  <outline>
    <contour>
      <point x="275.241210938" y="1065.0" type="curve" smooth="yes"/>
      <point x="285.241210938" y="1065.0" type="line" smooth="yes"/>
      <point x="359.241210938" y="1065.0"/>
      <point x="394.241210938" y="1039.0"/>
      <point x="361.241210938" y="895.0" type="curve" smooth="yes"/>
      <point x="355.241210938" y="869.0" type="line"/>
      <point x="356.241210938" y="855.0" type="line"/>
      <point x="195.241210938" y="155.0" type="line" smooth="yes"/>
      <point x="162.216796875" y="11.0"/>
      <point x="110.241210938" y="-15.0"/>
      <point x="36.2412109375" y="-15.0" type="curve" smooth="yes"/>
      <point x="31.2412109375" y="-15.0" type="line" smooth="yes"/>
      <point x="-42.7587890625" y="-15.0"/>
      <point x="-82.7587890625" y="11.0"/>
      <point x="-49.7587890625" y="155.0" type="curve" smooth="yes"/>
      <point x="121.241210938" y="895.0" type="line" smooth="yes"/>
      <point x="154.241210938" y="1039.0"/>
      <point x="201.241210938" y="1065.0"/>
    </contour>
    <contour>
      <point x="336.241210938" y="877.0" type="line"/>
      <point x="364.241210938" y="997.0"/>
      <point x="448.048828125" y="1067.0"/>
      <point x="542.048828125" y="1067.0" type="curve" smooth="yes"/>
      <point x="646.048828125" y="1067.0"/>
      <point x="677.048828125" y="1012.0"/>
      <point x="641.048828125" y="857.0" type="curve" smooth="yes"/>
      <point x="479.048828125" y="155.0" type="line" smooth="yes"/>
      <point x="446.048828125" y="11.0"/>
      <point x="394.048828125" y="-15.0"/>
      <point x="320.048828125" y="-15.0" type="curve" smooth="yes"/>
      <point x="315.048828125" y="-15.0" type="line" smooth="yes"/>
      <point x="241.048828125" y="-15.0"/>
      <point x="201.048828125" y="11.0"/>
      <point x="234.048828125" y="155.0" type="curve" smooth="yes"/>
      <point x="390.055664062" y="831.0" type="line" smooth="yes"/>
      <point x="402.048828125" y="881.0"/>
      <point x="402.505859375" y="903.0"/>
      <point x="389.87109375" y="903.0" type="curve" smooth="yes"/>
      <point x="373.625976562" y="903.0"/>
      <point x="359.241210938" y="866.0"/>
      <point x="335.232421875" y="761.0" type="curve"/>
    </contour>
  </outline>
</glyph>
<glyph name="p" format="2">
  <advance height="960" width="571"/>
  <unicode hex="0070"/>
  <outline>
    <contour>
      <point x="316.403320312" y="812.0" type="line"/>
      <point x="349.403320312" y="957.0"/>
      <point x="437.905273438" y="1068.0"/>
      <point x="540.075195312" y="1068.0" type="curve" smooth="yes"/>
      <point x="648.075195312" y="1068.0"/>
      <point x="684.075195312" y="996.0"/>
      <point x="645.075195312" y="826.0" type="curve" smooth="yes"/>
      <point x="505.075195312" y="223.0" type="line" smooth="yes"/>
      <point x="466.075195312" y="53.0"/>
      <point x="397.075195312" y="-17.0"/>
      <point x="289.075195312" y="-17.0" type="curve" smooth="yes"/>
      <point x="186.955078125" y="-17.0"/>
      <point x="151.403320312" y="94.0"/>
      <point x="184.403320312" y="239.0" type="curve"/>
      <point x="215.369140625" y="243.0" type="line"/>
      <point x="202.399414062" y="188.0"/>
      <point x="196.196289062" y="153.0"/>
      <point x="217.856445312" y="153.0" type="curve" smooth="yes"/>
      <point x="239.516601562" y="153.0"/>
      <point x="249.104492188" y="178.0"/>
      <point x="262.075195312" y="233.0" type="curve" smooth="yes"/>
      <point x="396.1328125" y="816.0" type="line" smooth="yes"/>
      <point x="409.103515625" y="871.0"/>
      <point x="411.516601562" y="898.0"/>
      <point x="389.85546875" y="898.0" type="curve" smooth="yes"/>
      <point x="368.196289062" y="898.0"/>
      <point x="358.338867188" y="861.0"/>
      <point x="345.3671875" y="806.0" type="curve"/>
    </contour>
    <contour>
      <point x="-143.596679688" y="-245.0" type="curve" smooth="yes"/>
      <point x="129.403320312" y="935.0" type="line" smooth="yes"/>
      <point x="148.403320312" y="1019.0"/>
      <point x="202.403320312" y="1065.0"/>
      <point x="276.403320312" y="1065.0" type="curve" smooth="yes"/>
      <point x="279.403320312" y="1065.0" type="line" smooth="yes"/>
      <point x="353.403320312" y="1065.0"/>
      <point x="386.403320312" y="1019.0"/>
      <point x="367.403320312" y="935.0" type="curve" smooth="yes"/>
      <point x="363.403320312" y="920.0" type="line"/>
      <point x="370.361328125" y="914.0" type="line"/>
      <point x="102.403320312" y="-245.0" type="line" smooth="yes"/>
      <point x="83.3642578125" y="-329.0"/>
      <point x="25.4033203125" y="-375.0"/>
      <point x="-48.5966796875" y="-375.0" type="curve" smooth="yes"/>
      <point x="-53.5966796875" y="-375.0" type="line" smooth="yes"/>
      <point x="-127.596679688" y="-375.0"/>
      <point x="-162.596679688" y="-329.0"/>
    </contour>
  </outline>
</glyph>
<glyph name="q" format="2">
  <advance height="960" width="570"/>
  <unicode hex="0071"/>
  <outline>
    <contour>
      <point x="242.482421875" y="-375.0" type="curve" smooth="yes"/>
      <point x="237.482421875" y="-375.0" type="line" smooth="yes"/>
      <point x="163.482421875" y="-375.0"/>
      <point x="127.482421875" y="-334.0"/>
      <point x="146.482421875" y="-250.0" type="curve" smooth="yes"/>
      <point x="408.486328125" y="885.0" type="line"/>
      <point x="552.482421875" y="1020.0" type="line" smooth="yes"/>
      <point x="581.482421875" y="1047.0"/>
      <point x="607.482421875" y="1065.0"/>
      <point x="635.482421875" y="1065.0" type="curve" smooth="yes"/>
      <point x="641.482421875" y="1065.0" type="line" smooth="yes"/>
      <point x="675.482421875" y="1065.0"/>
      <point x="689.482421875" y="1038.0"/>
      <point x="671.482421875" y="960.0" type="curve" smooth="yes"/>
      <point x="391.482421875" y="-250.0" type="line" smooth="yes"/>
      <point x="372.482421875" y="-334.0"/>
      <point x="316.482421875" y="-375.0"/>
    </contour>
    <contour>
      <point x="291.482421875" y="249.0" type="line"/>
      <point x="258.482421875" y="104.0"/>
      <point x="162.557617188" y="-17.0"/>
      <point x="65.7978515625" y="-17.0" type="curve" smooth="yes"/>
      <point x="-42.2021484375" y="-17.0"/>
      <point x="-78.203125" y="53.0"/>
      <point x="-39.2021484375" y="223.0" type="curve" smooth="yes"/>
      <point x="100.796875" y="826.0" type="line" smooth="yes"/>
      <point x="137.797851562" y="986.0"/>
      <point x="224.797851562" y="1068.0"/>
      <point x="372.797851562" y="1068.0" type="curve" smooth="yes"/>
      <point x="491.482421875" y="1068.0"/>
      <point x="556.482421875" y="987.0"/>
      <point x="523.482421875" y="842.0" type="curve"/>
      <point x="390.482421875" y="806.0" type="line"/>
      <point x="406.482421875" y="876.0"/>
      <point x="406.071289062" y="898.0"/>
      <point x="387.118164062" y="898.0" type="curve" smooth="yes"/>
      <point x="365.458984375" y="898.0"/>
      <point x="355.796875" y="871.0"/>
      <point x="342.796875" y="816.0" type="curve" smooth="yes"/>
      <point x="208.797851562" y="233.0" type="line" smooth="yes"/>
      <point x="195.797851562" y="178.0"/>
      <point x="193.458984375" y="153.0"/>
      <point x="215.118164062" y="153.0" type="curve" smooth="yes"/>
      <point x="234.071289062" y="153.0"/>
      <point x="247.494140625" y="188.0"/>
      <point x="260.482421875" y="243.0" type="curve"/>
    </contour>
  </outline>
</glyph>
<glyph name="r" format="2">
  <advance height="960" width="496"/>
  <unicode hex="0072"/>
  <anchor x="32.0" y="0.0" name="bottom"/>
  <anchor x="350.0" y="1050.0" name="top"/>
  <outline>
    <contour>
      <point x="277.241210938" y="513.0" type="curve"/>
      <point x="290.241210938" y="770.0" type="line"/>
      <point x="364.241210938" y="930.0"/>
      <point x="414.076171875" y="1059.0"/>
      <point x="543.560546875" y="1059.0" type="curve" smooth="yes"/>
      <point x="692.560546875" y="1059.0"/>
      <point x="589.055664062" y="807.779296875"/>
      <point x="518.560546875" y="670.0" type="curve" smooth="yes"/>
      <point x="490.850585938" y="615.841796875"/>
      <point x="459.560546875" y="583.0"/>
      <point x="402.560546875" y="583.0" type="curve" smooth="yes"/>
      <point x="398.560546875" y="583.0" type="line" smooth="yes"/>
      <point x="351.560546875" y="583.0"/>
      <point x="326.264648438" y="606.0"/>
      <point x="347.560546875" y="670.0" type="curve" smooth="yes"/>
      <point x="381.232421875" y="767.955078125"/>
      <point x="413.560546875" y="840.0"/>
      <point x="391.560546875" y="840.0" type="curve" smooth="yes"/>
      <point x="364.923828125" y="840.0"/>
      <point x="326.98046875" y="718.0"/>
    </contour>
    <contour>
      <point x="270.241210938" y="1065.0" type="curve" smooth="yes"/>
      <point x="278.241210938" y="1065.0" type="line" smooth="yes"/>
      <point x="352.241210938" y="1065.0"/>
      <point x="381.241210938" y="1038.0"/>
      <point x="348.241210938" y="895.0" type="curve" smooth="yes"/>
      <point x="346.241210938" y="887.0" type="line"/>
      <point x="363.184570312" y="883.0" type="line"/>
      <point x="195.178710938" y="155.0" type="line" smooth="yes"/>
      <point x="162.154296875" y="11.0"/>
      <point x="109.241210938" y="-15.0"/>
      <point x="36.2412109375" y="-15.0" type="curve" smooth="yes"/>
      <point x="31.2412109375" y="-15.0" type="line" smooth="yes"/>
      <point x="-41.7587890625" y="-15.0"/>
      <point x="-82.7587890625" y="12.0"/>
      <point x="-49.7587890625" y="155.0" type="curve" smooth="yes"/>
      <point x="121.241210938" y="895.0" type="line" smooth="yes"/>
      <point x="154.241210938" y="1038.0"/>
      <point x="197.241210938" y="1065.0"/>
    </contour>
  </outline>
</glyph>
<glyph name="s" format="2">
  <advance height="960" width="485"/>
  <unicode hex="0073"/>
  <anchor x="123.0" y="0.0" name="bottom"/>
  <anchor x="363.0" y="1050.0" name="top"/>
  <outline>
    <contour>
      <point x="80.7060546875" y="414.0" type="curve" smooth="yes"/>
      <point x="86.7060546875" y="414.0" type="line" smooth="yes"/>
      <point x="140.706054688" y="414.0"/>
      <point x="167.706054688" y="387.0"/>
      <point x="143.706054688" y="284.0" type="curve" smooth="yes"/>
      <point x="141.698242188" y="274.0"/>
      <point x="138.706054688" y="262.0"/>
      <point x="137.706054688" y="257.0" type="curve" smooth="yes"/>
      <point x="122.682617188" y="191.0"/>
      <point x="120.224609375" y="162.0"/>
      <point x="138.274414062" y="162.0" type="curve" smooth="yes"/>
      <point x="153.6171875" y="162.0"/>
      <point x="167.61328125" y="181.0"/>
      <point x="184.61328125" y="256.0" type="curve" smooth="yes"/>
      <point x="248.61328125" y="531.0"/>
      <point x="24.7060546875" y="467.0"/>
      <point x="102.706054688" y="804.0" type="curve" smooth="yes"/>
      <point x="145.706054688" y="992.0"/>
      <point x="251.706054688" y="1067.0"/>
      <point x="391.61328125" y="1067.0" type="curve" smooth="yes"/>
      <point x="528.61328125" y="1067.0"/>
      <point x="580.61328125" y="981.0"/>
      <point x="551.61328125" y="842.0" type="curve" smooth="yes"/>
      <point x="548.61328125" y="826.0"/>
      <point x="545.61328125" y="807.0"/>
      <point x="540.61328125" y="786.0" type="curve" smooth="yes"/>
      <point x="514.61328125" y="673.0"/>
      <point x="482.61328125" y="646.0"/>
      <point x="428.61328125" y="646.0" type="curve" smooth="yes"/>
      <point x="421.61328125" y="646.0" type="line" smooth="yes"/>
      <point x="367.61328125" y="646.0"/>
      <point x="349.61328125" y="674.0"/>
      <point x="375.61328125" y="787.0" type="curve" smooth="yes"/>
      <point x="377.61328125" y="795.0"/>
      <point x="378.61328125" y="806.0"/>
      <point x="382.61328125" y="824.0" type="curve" smooth="yes"/>
      <point x="393.61328125" y="877.0"/>
      <point x="388.61328125" y="895.0"/>
      <point x="374.61328125" y="895.0" type="curve" smooth="yes"/>
      <point x="361.61328125" y="895.0"/>
      <point x="342.61328125" y="875.0"/>
      <point x="330.61328125" y="823.0" type="curve" smooth="yes"/>
      <point x="261.61328125" y="525.0"/>
      <point x="513.61328125" y="601.0"/>
      <point x="428.61328125" y="231.0" type="curve" smooth="yes"/>
      <point x="393.61328125" y="79.0"/>
      <point x="309.61328125" y="-18.0"/>
      <point x="139.61328125" y="-18.0" type="curve" smooth="yes"/>
      <point x="-40.2939453125" y="-18.0"/>
      <point x="-76.2939453125" y="65.0"/>
      <point x="-48.2939453125" y="211.0" type="curve" smooth="yes"/>
      <point x="-43.2939453125" y="238.0"/>
      <point x="-37.2939453125" y="268.0"/>
      <point x="-33.2939453125" y="285.0" type="curve" smooth="yes"/>
      <point x="-9.2939453125" y="388.0"/>
      <point x="26.7060546875" y="414.0"/>
    </contour>
  </outline>
</glyph>
<glyph name="t" format="2">
  <advance height="960" width="346"/>
  <unicode hex="0074"/>
  <anchor x="134.0" y="0.0" name="bottom"/>
  <outline>
    <contour>
      <point x="377.95703125" y="930.0" type="curve" smooth="yes"/>
      <point x="177.95703125" y="930.0" type="line" smooth="yes"/>
      <point x="103.95703125" y="930.0"/>
      <point x="78.95703125" y="941.0"/>
      <point x="88.95703125" y="985.0" type="curve" smooth="yes"/>
      <point x="91.95703125" y="995.0" type="line" smooth="yes"/>
      <point x="101.95703125" y="1039.0"/>
      <point x="130.95703125" y="1050.0"/>
      <point x="204.95703125" y="1050.0" type="curve" smooth="yes"/>
      <point x="404.95703125" y="1050.0" type="line" smooth="yes"/>
      <point x="478.95703125" y="1050.0"/>
      <point x="501.95703125" y="1039.0"/>
      <point x="491.95703125" y="995.0" type="curve" smooth="yes"/>
      <point x="488.95703125" y="985.0" type="line" smooth="yes"/>
      <point x="478.95703125" y="941.0"/>
      <point x="451.95703125" y="930.0"/>
    </contour>
    <contour>
      <point x="284.95703125" y="85.0" type="curve" smooth="yes"/>
      <point x="282.95703125" y="80.0" type="line" smooth="yes"/>
      <point x="265.95703125" y="6.0"/>
      <point x="236.95703125" y="-8.0"/>
      <point x="142.95703125" y="-8.0" type="curve" smooth="yes"/>
      <point x="-1.04296875" y="-8.0"/>
      <point x="-68.04296875" y="22.0"/>
      <point x="-32.04296875" y="176.0" type="curve" smooth="yes"/>
      <point x="216.95703125" y="1255.0" type="line" smooth="yes"/>
      <point x="249.95703125" y="1399.0"/>
      <point x="307.95703125" y="1425.0"/>
      <point x="381.95703125" y="1425.0" type="curve" smooth="yes"/>
      <point x="383.95703125" y="1425.0" type="line" smooth="yes"/>
      <point x="457.95703125" y="1425.0"/>
      <point x="492.95703125" y="1399.0"/>
      <point x="459.95703125" y="1255.0" type="curve" smooth="yes"/>
      <point x="218.95703125" y="211.0" type="line" smooth="yes"/>
      <point x="208.95703125" y="167.0"/>
      <point x="231.95703125" y="161.0"/>
      <point x="241.95703125" y="161.0" type="curve" smooth="yes"/>
      <point x="274.95703125" y="161.0"/>
      <point x="301.95703125" y="158.0"/>
    </contour>
  </outline>
</glyph>
<glyph name="u" format="2">
  <advance height="960" width="563"/>
  <unicode hex="0075"/>
  <anchor x="142.0" y="0.0" name="bottom"/>
  <anchor x="319.0" y="0.0" name="ogonek"/>
  <anchor x="406.0" y="1050.0" name="top"/>
  <outline>
    <contour>
      <point x="322.315429688" y="-16.0" type="curve" smooth="yes"/>
      <point x="312.315429688" y="-16.0" type="line" smooth="yes"/>
      <point x="238.315429688" y="-16.0"/>
      <point x="204.315429688" y="10.0"/>
      <point x="237.315429688" y="154.0" type="curve" smooth="yes"/>
      <point x="243.315429688" y="180.0" type="line"/>
      <point x="241.315429688" y="194.0" type="line"/>
      <point x="402.310546875" y="894.0" type="line" smooth="yes"/>
      <point x="435.333984375" y="1038.0"/>
      <point x="488.310546875" y="1064.0"/>
      <point x="562.310546875" y="1064.0" type="curve" smooth="yes"/>
      <point x="567.310546875" y="1064.0" type="line" smooth="yes"/>
      <point x="641.310546875" y="1064.0"/>
      <point x="680.310546875" y="1038.0"/>
      <point x="647.310546875" y="894.0" type="curve" smooth="yes"/>
      <point x="477.315429688" y="154.0" type="line" smooth="yes"/>
      <point x="444.315429688" y="10.0"/>
      <point x="396.315429688" y="-16.0"/>
    </contour>
    <contour>
      <point x="261.315429688" y="172.0" type="line"/>
      <point x="233.315429688" y="52.0"/>
      <point x="149.49609375" y="-18.0"/>
      <point x="55.49609375" y="-18.0" type="curve" smooth="yes"/>
      <point x="-48.50390625" y="-18.0"/>
      <point x="-79.50390625" y="37.0"/>
      <point x="-43.50390625" y="192.0" type="curve" smooth="yes"/>
      <point x="118.49609375" y="894.0" type="line" smooth="yes"/>
      <point x="151.49609375" y="1038.0"/>
      <point x="204.49609375" y="1064.0"/>
      <point x="278.49609375" y="1064.0" type="curve" smooth="yes"/>
      <point x="283.49609375" y="1064.0" type="line" smooth="yes"/>
      <point x="357.49609375" y="1064.0"/>
      <point x="396.49609375" y="1038.0"/>
      <point x="363.49609375" y="894.0" type="curve" smooth="yes"/>
      <point x="207.49609375" y="218.0" type="line" smooth="yes"/>
      <point x="195.49609375" y="168.0"/>
      <point x="195.045898438" y="146.0"/>
      <point x="207.680664062" y="146.0" type="curve" smooth="yes"/>
      <point x="223.92578125" y="146.0"/>
      <point x="238.315429688" y="183.0"/>
      <point x="262.319335938" y="288.0" type="curve"/>
    </contour>
  </outline>
</glyph>
<glyph name="v" format="2">
  <advance height="960" width="522"/>
  <unicode hex="0076"/>
  <outline>
    <contour>
      <point x="253.427734375" y="319.0" type="line"/>
      <point x="430.427734375" y="895.0" type="line" smooth="yes"/>
      <point x="471.427734375" y="1028.0"/>
      <point x="519.427734375" y="1065.0"/>
      <point x="573.427734375" y="1065.0" type="curve" smooth="yes"/>
      <point x="576.427734375" y="1065.0" type="line" smooth="yes"/>
      <point x="640.427734375" y="1065.0"/>
      <point x="671.427734375" y="1028.0"/>
      <point x="626.427734375" y="895.0" type="curve" smooth="yes"/>
      <point x="374.427734375" y="155.0" type="line" smooth="yes"/>
      <point x="329.427734375" y="22.0"/>
      <point x="251.427734375" y="-15.0"/>
      <point x="167.427734375" y="-15.0" type="curve" smooth="yes"/>
      <point x="165.427734375" y="-15.0" type="line" smooth="yes"/>
      <point x="81.427734375" y="-15.0"/>
      <point x="19.427734375" y="23.0"/>
      <point x="32.427734375" y="155.0" type="curve" smooth="yes"/>
      <point x="104.427734375" y="895.0" type="line" smooth="yes"/>
      <point x="118.427734375" y="1037.0"/>
      <point x="182.427734375" y="1064.0"/>
      <point x="256.427734375" y="1064.0" type="curve" smooth="yes"/>
      <point x="261.427734375" y="1064.0" type="line" smooth="yes"/>
      <point x="335.427734375" y="1064.0"/>
      <point x="383.427734375" y="1039.0"/>
      <point x="357.427734375" y="895.0" type="curve" smooth="yes"/>
    </contour>
  </outline>
</glyph>
<glyph name="w" format="2">
  <advance height="960" width="642"/>
  <unicode hex="0077"/>
  <outline>
    <contour>
      <point x="473.459960938" y="454.0" type="line"/>
      <point x="591.6875" y="895.0" type="line" smooth="yes"/>
      <point x="630.6875" y="1039.0"/>
      <point x="653.6875" y="1065.0"/>
      <point x="707.6875" y="1065.0" type="curve" smooth="yes"/>
      <point x="712.6875" y="1065.0" type="line" smooth="yes"/>
      <point x="766.6875" y="1065.0"/>
      <point x="784.6875" y="1038.0"/>
      <point x="742.6875" y="895.0" type="curve" smooth="yes"/>
      <point x="531.024414062" y="155.0" type="line" smooth="yes"/>
      <point x="489.024414062" y="12.0"/>
      <point x="444.024414062" y="-15.0"/>
      <point x="370.024414062" y="-15.0" type="curve" smooth="yes"/>
      <point x="363.024414062" y="-15.0" type="line" smooth="yes"/>
      <point x="289.024414062" y="-15.0"/>
      <point x="256.024414062" y="11.0"/>
      <point x="282.024414062" y="155.0" type="curve" smooth="yes"/>
      <point x="335.756835938" y="459.0" type="line"/>
      <point x="246.827148438" y="155.0" type="line" smooth="yes"/>
      <point x="202.827148438" y="12.0"/>
      <point x="152.827148438" y="-15.0"/>
      <point x="78.8271484375" y="-15.0" type="curve" smooth="yes"/>
      <point x="76.8271484375" y="-15.0" type="line" smooth="yes"/>
      <point x="2.8271484375" y="-15.0"/>
      <point x="-34.1728515625" y="12.0"/>
      <point x="-11.1728515625" y="155.0" type="curve" smooth="yes"/>
      <point x="107.827148438" y="895.0" type="line" smooth="yes"/>
      <point x="130.827148438" y="1038.0"/>
      <point x="180.827148438" y="1065.0"/>
      <point x="254.827148438" y="1065.0" type="curve" smooth="yes"/>
      <point x="255.827148438" y="1065.0" type="line" smooth="yes"/>
      <point x="329.827148438" y="1065.0"/>
      <point x="360.827148438" y="1039.0"/>
      <point x="331.827148438" y="895.0" type="curve" smooth="yes"/>
      <point x="243.719726562" y="469.0" type="line"/>
      <point x="378.756835938" y="895.0" type="line" smooth="yes"/>
      <point x="424.756835938" y="1038.0"/>
      <point x="453.756835938" y="1065.0"/>
      <point x="497.756835938" y="1065.0" type="curve" smooth="yes"/>
      <point x="505.756835938" y="1065.0" type="line" smooth="yes"/>
      <point x="549.756835938" y="1065.0"/>
      <point x="566.756835938" y="1038.0"/>
      <point x="544.756835938" y="895.0" type="curve" smooth="yes"/>
    </contour>
  </outline>
</glyph>
<glyph name="x" format="2">
  <advance height="960" width="544"/>
  <unicode hex="0078"/>
  <outline>
    <contour>
      <point x="5.4912109375" y="-15.0" type="curve" smooth="yes"/>
      <point x="0.4912109375" y="-15.0" type="line" smooth="yes"/>
      <point x="-73.5087890625" y="-15.0"/>
      <point x="-118.508789062" y="22.0"/>
      <point x="-47.5087890625" y="155.0" type="curve" smooth="yes"/>
      <point x="140.491210938" y="508.0" type="line"/>
      <point x="137.491210938" y="895.0" type="line" smooth="yes"/>
      <point x="136.491210938" y="1032.0"/>
      <point x="207.491210938" y="1065.0"/>
      <point x="281.491210938" y="1065.0" type="curve" smooth="yes"/>
      <point x="286.491210938" y="1065.0" type="line" smooth="yes"/>
      <point x="350.491210938" y="1065.0"/>
      <point x="400.078125" y="1039.0"/>
      <point x="373.078125" y="895.0" type="curve" smooth="yes"/>
      <point x="340.078125" y="718.0" type="line"/>
      <point x="404.078125" y="895.0" type="line" smooth="yes"/>
      <point x="455.078125" y="1037.0"/>
      <point x="497.078125" y="1065.0"/>
      <point x="561.078125" y="1065.0" type="curve" smooth="yes"/>
      <point x="566.078125" y="1065.0" type="line" smooth="yes"/>
      <point x="640.078125" y="1065.0"/>
      <point x="675.078125" y="1030.0"/>
      <point x="607.078125" y="895.0" type="curve" smooth="yes"/>
      <point x="412.078125" y="507.0" type="line"/>
      <point x="446.078125" y="155.0" type="line" smooth="yes"/>
      <point x="459.078125" y="24.0"/>
      <point x="383.078125" y="-15.0"/>
      <point x="309.078125" y="-15.0" type="curve" smooth="yes"/>
      <point x="304.078125" y="-15.0" type="line" smooth="yes"/>
      <point x="230.078125" y="-15.0"/>
      <point x="171.078125" y="12.0"/>
      <point x="194.078125" y="155.0" type="curve" smooth="yes"/>
      <point x="222.294921875" y="326.0" type="line"/>
      <point x="162.491210938" y="155.0" type="line" smooth="yes"/>
      <point x="110.491210938" y="13.0"/>
      <point x="69.4912109375" y="-15.0"/>
    </contour>
  </outline>
</glyph>
<glyph name="y" format="2">
  <advance height="960" width="532"/>
  <unicode hex="0079"/>
  <anchor x="404.0" y="1050.0" name="top"/>
  <outline>
    <contour>
      <point x="252.020507812" y="281.0" type="line"/>
      <point x="445.020507812" y="895.0" type="line" smooth="yes"/>
      <point x="490.020507812" y="1037.0"/>
      <point x="526.020507812" y="1065.0"/>
      <point x="590.020507812" y="1065.0" type="curve" smooth="yes"/>
      <point x="594.020507812" y="1065.0" type="line" smooth="yes"/>
      <point x="658.020507812" y="1065.0"/>
      <point x="690.020507812" y="1036.0"/>
      <point x="641.020507812" y="895.0" type="curve" smooth="yes"/>
      <point x="312.020507812" y="-59.0" type="line" smooth="yes"/>
      <point x="239.952148438" y="-267.9765625"/>
      <point x="146.020507812" y="-371.0"/>
      <point x="-12.9794921875" y="-371.0" type="curve" smooth="yes"/>
      <point x="-241.979492188" y="-371.0"/>
      <point x="-205.241210938" y="-222.004882812"/>
      <point x="-196.979492188" y="-172.0" type="curve" smooth="yes"/>
      <point x="-189.676757812" y="-127.801757812"/>
      <point x="-159.979492188" y="-85.0"/>
      <point x="-102.979492188" y="-85.0" type="curve" smooth="yes"/>
      <point x="-96.9794921875" y="-85.0" type="line" smooth="yes"/>
      <point x="-59.9794921875" y="-85.0"/>
      <point x="-27.40234375" y="-107.572265625"/>
      <point x="-38.9794921875" y="-162.0" type="curve" smooth="yes"/>
      <point x="-43.4619140625" y="-183.073242188"/>
      <point x="-47.9794921875" y="-204.0"/>
      <point x="-27.9794921875" y="-204.0" type="curve" smooth="yes"/>
      <point x="-4.9794921875" y="-204.0"/>
      <point x="7.0205078125" y="-163.0"/>
      <point x="30.0205078125" y="-104.0" type="curve"/>
      <point x="111.020507812" y="895.0" type="line" smooth="yes"/>
      <point x="122.020507812" y="1035.0"/>
      <point x="183.020507812" y="1065.0"/>
      <point x="257.020507812" y="1065.0" type="curve" smooth="yes"/>
      <point x="267.020507812" y="1065.0" type="line" smooth="yes"/>
      <point x="341.020507812" y="1065.0"/>
      <point x="383.020507812" y="1038.0"/>
      <point x="358.020507812" y="895.0" type="curve" smooth="yes"/>
    </contour>
  </outline>
</glyph>
<glyph name="z" format="2">
  <advance height="960" width="477"/>
  <unicode hex="007A"/>
  <anchor x="362.0" y="1050.0" name="top"/>
  <outline>
    <contour>
      <point x="-50.9052734375" y="145.0" type="curve" smooth="yes"/>
      <point x="305.094726562" y="875.0" type="line"/>
      <point x="269.094726562" y="875.0" type="line" smooth="yes"/>
      <point x="125.094726562" y="875.0"/>
      <point x="104.094726562" y="896.0"/>
      <point x="119.094726562" y="960.0" type="curve" smooth="yes"/>
      <point x="120.094726562" y="965.0" type="line" smooth="yes"/>
      <point x="135.094726562" y="1029.0"/>
      <point x="165.094726562" y="1050.0"/>
      <point x="309.094726562" y="1050.0" type="curve" smooth="yes"/>
      <point x="479.094726562" y="1050.0" type="line" smooth="yes"/>
      <point x="613.094726562" y="1050.0"/>
      <point x="620.094726562" y="1023.0"/>
      <point x="561.094726562" y="895.0" type="curve" smooth="yes"/>
      <point x="227.094726562" y="175.0" type="line"/>
      <point x="247.094726562" y="175.0" type="line" smooth="yes"/>
      <point x="391.094726562" y="175.0"/>
      <point x="410.094726562" y="144.0"/>
      <point x="398.094726562" y="90.0" type="curve" smooth="yes"/>
      <point x="397.094726562" y="85.0" type="line" smooth="yes"/>
      <point x="385.094726562" y="32.0"/>
      <point x="351.094726562" y="0.0"/>
      <point x="207.094726562" y="0.0" type="curve" smooth="yes"/>
      <point x="32.0947265625" y="0.0" type="line" smooth="yes"/>
      <point x="-101.905273438" y="0.0"/>
      <point x="-112.905273438" y="19.0"/>
    </contour>
  </outline>
</glyph>
<glyph name="braceleft" format="2">
  <advance height="2048" width="388"/>
  <unicode hex="007B"/>
  <outline>
    <contour>
      <point x="288.0" y="1437.0" type="line" smooth="yes"/>
      <point x="314.0" y="1551.0"/>
      <point x="385.0" y="1593.0"/>
      <point x="530.0" y="1598.0" type="curve" smooth="yes"/>
      <point x="583.0" y="1600.0"/>
      <point x="594.0" y="1572.0"/>
      <point x="586.0" y="1538.0" type="curve" smooth="yes"/>
      <point x="585.0" y="1533.0" type="line" smooth="yes"/>
      <point x="577.0" y="1499.0"/>
      <point x="561.0" y="1483.0"/>
      <point x="526.0" y="1478.0" type="curve" smooth="yes"/>
      <point x="501.0" y="1474.0"/>
      <point x="479.0" y="1454.0"/>
      <point x="459.0" y="1367.0" type="curve" smooth="yes"/>
      <point x="324.0" y="786.0" type="line" smooth="yes"/>
      <point x="303.0" y="694.0"/>
      <point x="248.0" y="642.0"/>
      <point x="164.0" y="618.0" type="curve"/>
      <point x="236.0" y="594.0"/>
      <point x="268.0" y="542.0"/>
      <point x="247.0" y="450.0" type="curve" smooth="yes"/>
      <point x="114.0" y="-126.0" type="line" smooth="yes"/>
      <point x="94.0" y="-212.0"/>
      <point x="107.0" y="-233.0"/>
      <point x="129.0" y="-237.0" type="curve" smooth="yes"/>
      <point x="163.0" y="-243.0"/>
      <point x="172.0" y="-258.0"/>
      <point x="164.0" y="-292.0" type="curve" smooth="yes"/>
      <point x="161.0" y="-302.0" type="line" smooth="yes"/>
      <point x="153.0" y="-336.0"/>
      <point x="130.0" y="-364.0"/>
      <point x="76.0" y="-362.0" type="curve" smooth="yes"/>
      <point x="-66.0" y="-357.0"/>
      <point x="-116.0" y="-315.0"/>
      <point x="-90.0" y="-201.0" type="curve" smooth="yes"/>
      <point x="60.0" y="450.0" type="line" smooth="yes"/>
      <point x="73.0" y="506.0"/>
      <point x="66.0" y="533.0"/>
      <point x="45.0" y="544.0" type="curve" smooth="yes"/>
      <point x="19.0" y="557.0"/>
      <point x="-1.0" y="568.0"/>
      <point x="10.0" y="616.0" type="curve" smooth="yes"/>
      <point x="11.0" y="620.0" type="line" smooth="yes"/>
      <point x="22.0" y="668.0"/>
      <point x="47.0" y="680.0"/>
      <point x="78.0" y="692.0" type="curve" smooth="yes"/>
      <point x="107.0" y="703.0"/>
      <point x="124.0" y="729.0"/>
      <point x="137.0" y="786.0" type="curve" smooth="yes"/>
    </contour>
  </outline>
</glyph>
<glyph name="bar" format="2">
  <advance height="1920" width="260"/>
  <unicode hex="007C"/>
  <outline>
    <contour>
      <point x="378.0" y="1615.0" type="curve" smooth="yes"/>
      <point x="388.0" y="1615.0" type="line" smooth="yes"/>
      <point x="442.0" y="1615.0"/>
      <point x="458.0" y="1553.0"/>
      <point x="445.0" y="1495.0" type="curve" smooth="yes"/>
      <point x="41.0" y="-255.0" type="line" smooth="yes"/>
      <point x="29.0" y="-309.0"/>
      <point x="-18.0" y="-375.0"/>
      <point x="-72.0" y="-375.0" type="curve" smooth="yes"/>
      <point x="-82.0" y="-375.0" type="line" smooth="yes"/>
      <point x="-136.0" y="-375.0"/>
      <point x="-151.0" y="-309.0"/>
      <point x="-139.0" y="-255.0" type="curve" smooth="yes"/>
      <point x="265.0" y="1495.0" type="line" smooth="yes"/>
      <point x="278.0" y="1553.0"/>
      <point x="324.0" y="1615.0"/>
    </contour>
  </outline>
</glyph>
<glyph name="braceright" format="2">
  <advance height="2048" width="388"/>
  <unicode hex="007D"/>
  <outline>
    <contour>
      <point x="144.0" y="-199.0" type="line" smooth="yes"/>
      <point x="118.0" y="-313.0"/>
      <point x="47.0" y="-355.0"/>
      <point x="-98.0" y="-360.0" type="curve" smooth="yes"/>
      <point x="-151.0" y="-362.0"/>
      <point x="-162.0" y="-334.0"/>
      <point x="-154.0" y="-300.0" type="curve" smooth="yes"/>
      <point x="-153.0" y="-295.0" type="line" smooth="yes"/>
      <point x="-145.0" y="-261.0"/>
      <point x="-129.0" y="-245.0"/>
      <point x="-94.0" y="-240.0" type="curve" smooth="yes"/>
      <point x="-69.0" y="-236.0"/>
      <point x="-47.0" y="-216.0"/>
      <point x="-27.0" y="-129.0" type="curve" smooth="yes"/>
      <point x="107.0" y="452.0" type="line" smooth="yes"/>
      <point x="128.0" y="544.0"/>
      <point x="184.0" y="596.0"/>
      <point x="268.0" y="620.0" type="curve"/>
      <point x="196.0" y="644.0"/>
      <point x="164.0" y="696.0"/>
      <point x="185.0" y="788.0" type="curve" smooth="yes"/>
      <point x="318.0" y="1364.0" type="line" smooth="yes"/>
      <point x="338.0" y="1450.0"/>
      <point x="325.0" y="1471.0"/>
      <point x="303.0" y="1475.0" type="curve" smooth="yes"/>
      <point x="269.0" y="1481.0"/>
      <point x="260.0" y="1496.0"/>
      <point x="268.0" y="1530.0" type="curve" smooth="yes"/>
      <point x="271.0" y="1540.0" type="line" smooth="yes"/>
      <point x="279.0" y="1574.0"/>
      <point x="301.0" y="1602.0"/>
      <point x="355.0" y="1600.0" type="curve" smooth="yes"/>
      <point x="497.0" y="1595.0"/>
      <point x="548.0" y="1553.0"/>
      <point x="522.0" y="1439.0" type="curve" smooth="yes"/>
      <point x="372.0" y="788.0" type="line" smooth="yes"/>
      <point x="359.0" y="732.0"/>
      <point x="366.0" y="705.0"/>
      <point x="387.0" y="694.0" type="curve" smooth="yes"/>
      <point x="413.0" y="681.0"/>
      <point x="433.0" y="670.0"/>
      <point x="422.0" y="622.0" type="curve" smooth="yes"/>
      <point x="421.0" y="618.0" type="line" smooth="yes"/>
      <point x="410.0" y="570.0"/>
      <point x="385.0" y="558.0"/>
      <point x="354.0" y="546.0" type="curve" smooth="yes"/>
      <point x="325.0" y="535.0"/>
      <point x="307.0" y="509.0"/>
      <point x="294.0" y="452.0" type="curve" smooth="yes"/>
    </contour>
  </outline>
</glyph>
<glyph name="asciitilde" format="2">
  <advance height="2048" width="664"/>
  <unicode hex="007E"/>
  <outline>
    <contour>
      <point x="221.0" y="562.0" type="curve" smooth="yes"/>
      <point x="200.0" y="562.0"/>
      <point x="191.0" y="552.0"/>
      <point x="185.0" y="541.0" type="curve" smooth="yes"/>
      <point x="166.0" y="503.0"/>
      <point x="130.0" y="487.0"/>
      <point x="92.0" y="487.0" type="curve" smooth="yes"/>
      <point x="82.0" y="487.0" type="line" smooth="yes"/>
      <point x="28.0" y="487.0"/>
      <point x="4.0" y="535.0"/>
      <point x="30.0" y="586.0" type="curve" smooth="yes"/>
      <point x="57.0" y="640.0"/>
      <point x="127.0" y="742.0"/>
      <point x="262.0" y="742.0" type="curve" smooth="yes"/>
      <point x="406.0" y="742.0"/>
      <point x="432.0" y="644.0"/>
      <point x="483.0" y="644.0" type="curve" smooth="yes"/>
      <point x="504.0" y="644.0"/>
      <point x="512.0" y="653.0"/>
      <point x="521.0" y="674.0" type="curve" smooth="yes"/>
      <point x="532.0" y="702.0"/>
      <point x="574.0" y="724.0"/>
      <point x="612.0" y="724.0" type="curve" smooth="yes"/>
      <point x="622.0" y="724.0" type="line" smooth="yes"/>
      <point x="676.0" y="724.0"/>
      <point x="705.0" y="676.0"/>
      <point x="679.0" y="624.0" type="curve" smooth="yes"/>
      <point x="652.0" y="570.0"/>
      <point x="577.0" y="469.0"/>
      <point x="442.0" y="469.0" type="curve" smooth="yes"/>
      <point x="298.0" y="469.0"/>
      <point x="272.0" y="562.0"/>
    </contour>
  </outline>
</glyph>
<glyph name="exclamdown" format="2">
  <advance height="1920" width="400"/>
  <unicode hex="00A1"/>
  <outline>
    <contour>
      <point x="318.0" y="1065.0" type="curve" smooth="yes"/>
      <point x="334.0" y="1065.0" type="line" smooth="yes"/>
      <point x="418.0" y="1065.0"/>
      <point x="464.0" y="1024.0"/>
      <point x="438.0" y="910.0" type="curve" smooth="yes"/>
      <point x="419.0" y="826.0" type="line" smooth="yes"/>
      <point x="393.0" y="712.0"/>
      <point x="327.0" y="671.0"/>
      <point x="243.0" y="671.0" type="curve" smooth="yes"/>
      <point x="227.0" y="671.0" type="line" smooth="yes"/>
      <point x="143.0" y="671.0"/>
      <point x="97.0" y="712.0"/>
      <point x="123.0" y="826.0" type="curve" smooth="yes"/>
      <point x="142.0" y="910.0" type="line" smooth="yes"/>
      <point x="168.0" y="1024.0"/>
      <point x="234.0" y="1065.0"/>
    </contour>
    <contour>
      <point x="226.0" y="-102.0" type="curve" smooth="yes"/>
      <point x="196.0" y="-232.0" type="line" smooth="yes"/>
      <point x="171.0" y="-339.0"/>
      <point x="96.0" y="-417.0"/>
      <point x="-11.0" y="-417.0" type="curve" smooth="yes"/>
      <point x="-21.0" y="-417.0" type="line" smooth="yes"/>
      <point x="-128.0" y="-417.0"/>
      <point x="-169.0" y="-339.0"/>
      <point x="-144.0" y="-232.0" type="curve" smooth="yes"/>
      <point x="-114.0" y="-102.0" type="line" smooth="yes"/>
      <point x="-89.0" y="5.0"/>
      <point x="-68.0" y="72.0"/>
      <point x="23.0" y="268.0" type="curve" smooth="yes"/>
      <point x="79.0" y="388.0" type="line" smooth="yes"/>
      <point x="131.0" y="499.0"/>
      <point x="168.0" y="563.0"/>
      <point x="205.0" y="563.0" type="curve" smooth="yes"/>
      <point x="215.0" y="563.0" type="line" smooth="yes"/>
      <point x="252.0" y="563.0"/>
      <point x="261.0" y="499.0"/>
      <point x="261.0" y="388.0" type="curve" smooth="yes"/>
      <point x="261.0" y="268.0" type="line" smooth="yes"/>
      <point x="261.0" y="72.0"/>
      <point x="251.0" y="5.0"/>
    </contour>
  </outline>
</glyph>
<glyph name="cent" format="2">
  <advance height="1920" width="461"/>
  <unicode hex="00A2"/>
  <outline>
    <contour>
      <point x="408.889648438" y="1240.0" type="curve" smooth="yes"/>
      <point x="413.889648438" y="1240.0" type="line" smooth="yes"/>
      <point x="421.889648438" y="1240.0"/>
      <point x="429.889648438" y="1234.0"/>
      <point x="425.889648438" y="1216.0" type="curve" smooth="yes"/>
      <point x="106.889648438" y="-166.0" type="line" smooth="yes"/>
      <point x="102.889648438" y="-184.0"/>
      <point x="91.8896484375" y="-190.0"/>
      <point x="83.8896484375" y="-190.0" type="curve" smooth="yes"/>
      <point x="78.8896484375" y="-190.0" type="line" smooth="yes"/>
      <point x="70.8896484375" y="-190.0"/>
      <point x="62.8896484375" y="-184.0"/>
      <point x="66.8896484375" y="-166.0" type="curve" smooth="yes"/>
      <point x="385.889648438" y="1216.0" type="line" smooth="yes"/>
      <point x="389.889648438" y="1234.0"/>
      <point x="400.889648438" y="1240.0"/>
    </contour>
    <component base="c"/>
  </outline>
</glyph>
<glyph name="sterling" format="2">
  <advance height="1920" width="610"/>
  <unicode hex="00A3"/>
  <outline>
    <contour>
      <point x="55.0" y="692.0" type="curve" smooth="yes"/>
      <point x="55.0" y="700.0" type="line" smooth="yes"/>
      <point x="55.0" y="754.0"/>
      <point x="82.0" y="775.0"/>
      <point x="176.0" y="775.0" type="curve" smooth="yes"/>
      <point x="470.0" y="775.0" type="line" smooth="yes"/>
      <point x="564.0" y="775.0"/>
      <point x="591.0" y="754.0"/>
      <point x="591.0" y="700.0" type="curve" smooth="yes"/>
      <point x="591.0" y="692.0" type="line" smooth="yes"/>
      <point x="591.0" y="638.0"/>
      <point x="564.0" y="617.0"/>
      <point x="470.0" y="617.0" type="curve" smooth="yes"/>
      <point x="176.0" y="617.0" type="line" smooth="yes"/>
      <point x="82.0" y="617.0"/>
      <point x="55.0" y="638.0"/>
    </contour>
    <contour>
      <point x="-41.0" y="177.0" type="curve" smooth="yes"/>
      <point x="44.0" y="278.0"/>
      <point x="138.0" y="422.0"/>
      <point x="192.0" y="657.0" type="curve" smooth="yes"/>
      <point x="238.0" y="856.0"/>
      <point x="156.0" y="907.0"/>
      <point x="198.0" y="1091.0" type="curve" smooth="yes"/>
      <point x="248.0" y="1306.0"/>
      <point x="357.0" y="1417.0"/>
      <point x="525.0" y="1417.0" type="curve" smooth="yes"/>
      <point x="697.0" y="1417.0"/>
      <point x="745.0" y="1322.0"/>
      <point x="712.0" y="1067.0" type="curve" smooth="yes"/>
      <point x="703.0" y="993.0"/>
      <point x="649.0" y="948.0"/>
      <point x="575.0" y="948.0" type="curve" smooth="yes"/>
      <point x="569.0" y="948.0" type="line" smooth="yes"/>
      <point x="496.0" y="948.0"/>
      <point x="460.0" y="973.0"/>
      <point x="481.0" y="1067.0" type="curve" smooth="yes"/>
      <point x="512.0" y="1210.0"/>
      <point x="527.0" y="1247.0"/>
      <point x="500.0" y="1247.0" type="curve" smooth="yes"/>
      <point x="482.0" y="1247.0"/>
      <point x="465.0" y="1211.0"/>
      <point x="432.0" y="1066.0" type="curve" smooth="yes"/>
      <point x="404.0" y="945.0"/>
      <point x="474.0" y="885.0"/>
      <point x="425.0" y="672.0" type="curve" smooth="yes"/>
      <point x="368.0" y="426.0"/>
      <point x="282.0" y="295.0"/>
      <point x="186.0" y="177.0" type="curve"/>
      <point x="401.0" y="177.0" type="line" smooth="yes"/>
      <point x="485.0" y="177.0"/>
      <point x="517.0" y="156.0"/>
      <point x="502.0" y="92.0" type="curve" smooth="yes"/>
      <point x="501.0" y="85.0" type="line" smooth="yes"/>
      <point x="486.0" y="21.0"/>
      <point x="444.0" y="0.0"/>
      <point x="360.0" y="0.0" type="curve" smooth="yes"/>
      <point x="70.0" y="0.0" type="line" smooth="yes"/>
      <point x="-74.0" y="0.0"/>
      <point x="-90.0" y="41.0"/>
      <point x="-75.0" y="105.0" type="curve" smooth="yes"/>
      <point x="-74.0" y="107.0" type="line" smooth="yes"/>
      <point x="-64.0" y="149.0"/>
      <point x="-53.0" y="162.0"/>
    </contour>
  </outline>
</glyph>
<glyph name="currency" format="2">
  <advance width="579"/>
  <unicode hex="00A4"/>
  <outline>
    <contour>
      <point x="624.0" y="945.0" type="curve" smooth="yes"/>
      <point x="630.0" y="937.0" type="line" smooth="yes"/>
      <point x="659.0" y="899.0"/>
      <point x="636.0" y="855.0"/>
      <point x="589.0" y="817.0" type="curve" smooth="yes"/>
      <point x="554.0" y="789.0" type="line" smooth="yes"/>
      <point x="552.0" y="787.0"/>
      <point x="548.0" y="787.0"/>
      <point x="546.0" y="789.0" type="curve" smooth="yes"/>
      <point x="458.0" y="903.0" type="line" smooth="yes"/>
      <point x="456.0" y="905.0"/>
      <point x="458.0" y="908.0"/>
      <point x="460.0" y="910.0" type="curve" smooth="yes"/>
      <point x="495.0" y="938.0" type="line" smooth="yes"/>
      <point x="542.0" y="976.0"/>
      <point x="595.0" y="983.0"/>
    </contour>
    <contour>
      <point x="119.0" y="627.0" type="curve" smooth="yes"/>
      <point x="206.0" y="513.0" type="line" smooth="yes"/>
      <point x="208.0" y="511.0"/>
      <point x="207.0" y="508.0"/>
      <point x="205.0" y="506.0" type="curve" smooth="yes"/>
      <point x="170.0" y="478.0" type="line" smooth="yes"/>
      <point x="123.0" y="440.0"/>
      <point x="76.0" y="425.0"/>
      <point x="47.0" y="463.0" type="curve" smooth="yes"/>
      <point x="41.0" y="471.0" type="line" smooth="yes"/>
      <point x="12.0" y="509.0"/>
      <point x="31.0" y="561.0"/>
      <point x="78.0" y="599.0" type="curve" smooth="yes"/>
      <point x="113.0" y="627.0" type="line" smooth="yes"/>
      <point x="115.0" y="629.0"/>
      <point x="117.0" y="629.0"/>
    </contour>
    <contour>
      <point x="145.0" y="940.0" type="curve" smooth="yes"/>
      <point x="155.0" y="949.0" type="line" smooth="yes"/>
      <point x="202.0" y="987.0"/>
      <point x="248.0" y="976.0"/>
      <point x="277.0" y="938.0" type="curve" smooth="yes"/>
      <point x="298.0" y="910.0" type="line" smooth="yes"/>
      <point x="300.0" y="908.0"/>
      <point x="298.0" y="905.0"/>
      <point x="296.0" y="903.0" type="curve" smooth="yes"/>
      <point x="156.0" y="788.0" type="line" smooth="yes"/>
      <point x="154.0" y="786.0"/>
      <point x="152.0" y="786.0"/>
      <point x="150.0" y="788.0" type="curve" smooth="yes"/>
      <point x="128.0" y="817.0" type="line" smooth="yes"/>
      <point x="99.0" y="855.0"/>
      <point x="98.0" y="902.0"/>
    </contour>
    <contour>
      <point x="368.0" y="513.0" type="curve" smooth="yes"/>
      <point x="467.0" y="592.0" type="line" smooth="yes"/>
      <point x="469.0" y="594.0"/>
      <point x="515.0" y="629.0"/>
      <point x="517.0" y="627.0" type="curve" smooth="yes"/>
      <point x="538.0" y="599.0" type="line" smooth="yes"/>
      <point x="567.0" y="561.0"/>
      <point x="567.0" y="513.0"/>
      <point x="520.0" y="475.0" type="curve" smooth="yes"/>
      <point x="510.0" y="467.0" type="line" smooth="yes"/>
      <point x="463.0" y="429.0"/>
      <point x="417.0" y="439.0"/>
      <point x="388.0" y="477.0" type="curve" smooth="yes"/>
      <point x="367.0" y="506.0" type="line" smooth="yes"/>
      <point x="365.0" y="508.0"/>
      <point x="366.0" y="511.0"/>
    </contour>
    <contour>
      <point x="90.0" y="709.0" type="curve" smooth="yes"/>
      <point x="121.0" y="843.0"/>
      <point x="257.0" y="954.0"/>
      <point x="391.0" y="954.0" type="curve" smooth="yes"/>
      <point x="525.0" y="954.0"/>
      <point x="611.0" y="843.0"/>
      <point x="580.0" y="709.0" type="curve" smooth="yes"/>
      <point x="549.0" y="575.0"/>
      <point x="412.0" y="464.0"/>
      <point x="278.0" y="464.0" type="curve" smooth="yes"/>
      <point x="144.0" y="464.0"/>
      <point x="59.0" y="575.0"/>
    </contour>
    <contour>
      <point x="270.0" y="709.0" type="curve" smooth="yes"/>
      <point x="260.0" y="665.0"/>
      <point x="275.0" y="639.0"/>
      <point x="319.0" y="639.0" type="curve" smooth="yes"/>
      <point x="363.0" y="639.0"/>
      <point x="390.0" y="665.0"/>
      <point x="400.0" y="709.0" type="curve" smooth="yes"/>
      <point x="410.0" y="753.0"/>
      <point x="395.0" y="779.0"/>
      <point x="351.0" y="779.0" type="curve" smooth="yes"/>
      <point x="307.0" y="779.0"/>
      <point x="280.0" y="753.0"/>
    </contour>
  </outline>
</glyph>
<glyph name="yen" format="2">
  <advance height="1920" width="630"/>
  <unicode hex="00A5"/>
  <outline>
    <contour>
      <point x="13.0" y="474.0" type="curve" smooth="yes"/>
      <point x="13.0" y="476.0" type="line" smooth="yes"/>
      <point x="13.0" y="494.0"/>
      <point x="30.0" y="506.0"/>
      <point x="68.0" y="506.0" type="curve" smooth="yes"/>
      <point x="553.0" y="506.0" type="line" smooth="yes"/>
      <point x="591.0" y="506.0"/>
      <point x="608.0" y="494.0"/>
      <point x="608.0" y="476.0" type="curve" smooth="yes"/>
      <point x="608.0" y="474.0" type="line" smooth="yes"/>
      <point x="608.0" y="456.0"/>
      <point x="591.0" y="444.0"/>
      <point x="553.0" y="444.0" type="curve" smooth="yes"/>
      <point x="68.0" y="444.0" type="line" smooth="yes"/>
      <point x="30.0" y="444.0"/>
      <point x="13.0" y="456.0"/>
    </contour>
    <contour>
      <point x="43.0" y="609.0" type="curve" smooth="yes"/>
      <point x="43.0" y="611.0" type="line" smooth="yes"/>
      <point x="43.0" y="629.0"/>
      <point x="60.0" y="641.0"/>
      <point x="98.0" y="641.0" type="curve" smooth="yes"/>
      <point x="583.0" y="641.0" type="line" smooth="yes"/>
      <point x="621.0" y="641.0"/>
      <point x="638.0" y="629.0"/>
      <point x="638.0" y="611.0" type="curve" smooth="yes"/>
      <point x="638.0" y="609.0" type="line" smooth="yes"/>
      <point x="638.0" y="591.0"/>
      <point x="621.0" y="579.0"/>
      <point x="583.0" y="579.0" type="curve" smooth="yes"/>
      <point x="98.0" y="579.0" type="line" smooth="yes"/>
      <point x="60.0" y="579.0"/>
      <point x="43.0" y="591.0"/>
    </contour>
    <component base="Y"/>
  </outline>
</glyph>
<glyph name="brokenbar" format="2">
  <advance height="1920" width="260"/>
  <unicode hex="00A6"/>
  <outline>
    <contour>
      <point x="108.0" y="445.0" type="curve" smooth="yes"/>
      <point x="118.0" y="445.0" type="line" smooth="yes"/>
      <point x="172.0" y="445.0"/>
      <point x="188.0" y="383.0"/>
      <point x="175.0" y="325.0" type="curve" smooth="yes"/>
      <point x="41.0" y="-255.0" type="line" smooth="yes"/>
      <point x="29.0" y="-309.0"/>
      <point x="-18.0" y="-375.0"/>
      <point x="-72.0" y="-375.0" type="curve" smooth="yes"/>
      <point x="-82.0" y="-375.0" type="line" smooth="yes"/>
      <point x="-136.0" y="-375.0"/>
      <point x="-151.0" y="-309.0"/>
      <point x="-139.0" y="-255.0" type="curve" smooth="yes"/>
      <point x="-5.0" y="325.0" type="line" smooth="yes"/>
      <point x="8.0" y="383.0"/>
      <point x="54.0" y="445.0"/>
    </contour>
    <contour>
      <point x="378.0" y="1615.0" type="curve" smooth="yes"/>
      <point x="388.0" y="1615.0" type="line" smooth="yes"/>
      <point x="442.0" y="1615.0"/>
      <point x="458.0" y="1553.0"/>
      <point x="445.0" y="1495.0" type="curve" smooth="yes"/>
      <point x="311.0" y="915.0" type="line" smooth="yes"/>
      <point x="299.0" y="861.0"/>
      <point x="253.0" y="795.0"/>
      <point x="199.0" y="795.0" type="curve" smooth="yes"/>
      <point x="189.0" y="795.0" type="line" smooth="yes"/>
      <point x="135.0" y="795.0"/>
      <point x="119.0" y="861.0"/>
      <point x="131.0" y="915.0" type="curve" smooth="yes"/>
      <point x="265.0" y="1495.0" type="line" smooth="yes"/>
      <point x="278.0" y="1553.0"/>
      <point x="324.0" y="1615.0"/>
    </contour>
  </outline>
</glyph>
